# Blender 5.0.1
# www.blender.org
o Cylinder.002
v 0.000000 0.005963 -0.025827
v 0.000000 2.514359 -0.025827
v 0.018262 0.005963 -0.018262
v 0.018262 2.514359 -0.018262
v 0.025827 0.005963 0.000000
v 0.025827 2.514359 0.000000
v 0.018262 0.005963 0.018262
v 0.018262 2.514359 0.018262
v 0.000000 0.005963 0.025827
v 0.000000 2.514359 0.025827
v -0.018262 0.005963 0.018262
v -0.018262 2.514359 0.018262
v -0.025827 0.005963 0.000000
v -0.025827 2.514359 0.000000
v -0.018262 0.005963 -0.018262
v -0.018262 2.514359 -0.018262
v 0.000000 1.736073 -0.025827
v 0.018262 1.736073 -0.018262
v 0.025827 1.736073 0.000000
v 0.018262 1.736073 0.018262
v 0.000000 1.736073 0.025827
v -0.018262 1.736073 0.018262
v -0.025827 1.736073 0.000000
v -0.018262 1.736073 -0.018262
v 0.000000 2.459665 -0.025827
v 0.018262 2.459665 -0.018262
v 0.025827 2.459665 0.000000
v 0.018262 2.459665 0.018262
v 0.000000 2.459665 0.025827
v -0.018262 2.459665 0.018262
v -0.025827 2.459665 0.000000
v -0.018262 2.459665 -0.018262
v -0.433638 1.736073 1.021069
v -0.433638 2.459665 1.021069
v -0.415376 1.736073 1.028633
v -0.415376 2.459665 1.028633
v 0.037654 2.534458 -0.037654
v 0.022271 2.514359 -0.022271
v 0.033149 2.520246 -0.033149
v -0.000000 2.514359 -0.031496
v -0.000000 2.534458 -0.053251
v -0.000000 2.520246 -0.046879
v 0.053251 2.534458 0.000000
v 0.031496 2.514359 0.000000
v 0.046879 2.520246 0.000000
v 0.037654 2.534458 0.037654
v 0.022271 2.514359 0.022271
v 0.033149 2.520246 0.033149
v -0.000000 2.534458 0.053251
v -0.000000 2.514359 0.031496
v -0.000000 2.520246 0.046879
v -0.037654 2.534458 0.037654
v -0.022271 2.514359 0.022271
v -0.033149 2.520246 0.033149
v -0.053251 2.534458 0.000000
v -0.031496 2.514359 0.000000
v -0.046879 2.520246 0.000000
v -0.037654 2.534458 -0.037654
v -0.022271 2.514359 -0.022271
v -0.033149 2.520246 -0.033149
v 0.022271 2.575929 -0.022271
v 0.037654 2.555830 -0.037654
v 0.033149 2.570042 -0.033149
v -0.000000 2.555830 -0.053251
v 0.000000 2.575929 -0.031496
v -0.000000 2.570042 -0.046879
v 0.031496 2.575929 0.000000
v 0.053251 2.555830 0.000000
v 0.046879 2.570042 0.000000
v 0.022271 2.575929 0.022271
v 0.037654 2.555830 0.037654
v 0.033149 2.570042 0.033149
v 0.000000 2.575929 0.031496
v -0.000000 2.555830 0.053251
v -0.000000 2.570042 0.046879
v -0.022271 2.575929 0.022271
v -0.037654 2.555830 0.037654
v -0.033149 2.570042 0.033149
v -0.031496 2.575929 0.000000
v -0.053251 2.555830 0.000000
v -0.046879 2.570042 0.000000
v -0.022271 2.575929 -0.022271
v -0.037654 2.555830 -0.037654
v -0.033149 2.570042 -0.033149
vn 0.3827 -0.0000 -0.9239
vn 0.9239 -0.0000 -0.3827
vn 0.9239 -0.0000 0.3827
vn 0.3827 -0.0000 0.9239
vn -0.3827 -0.0000 0.9239
vn -0.9239 -0.0000 0.3827
vn -0.9239 -0.0000 -0.3827
vn -0.3827 -0.0000 -0.9239
vn -0.0000 -1.0000 -0.0000
vn -0.0000 1.0000 -0.0000
vn 0.1464 -0.9239 -0.3536
vn 0.3536 -0.3827 -0.8535
vn 0.3536 -0.9239 -0.1464
vn 0.8535 -0.3827 -0.3536
vn 0.3536 -0.9239 0.1464
vn 0.8536 -0.3827 0.3535
vn 0.1465 -0.9239 0.3536
vn 0.3536 -0.3827 0.8535
vn -0.1464 -0.9239 0.3536
vn -0.3536 -0.3827 0.8535
vn -0.3536 -0.9239 0.1464
vn -0.8535 -0.3827 0.3536
vn -0.3536 -0.9239 -0.1464
vn -0.8536 -0.3827 -0.3535
vn -0.1465 -0.9239 -0.3536
vn -0.3536 -0.3827 -0.8535
vn 0.3536 0.3827 -0.8535
vn 0.1464 0.9239 -0.3535
vn 0.8536 0.3827 -0.3536
vn 0.3535 0.9239 -0.1464
vn 0.8536 0.3827 0.3536
vn 0.3536 0.9239 0.1464
vn 0.3536 0.3827 0.8536
vn 0.1464 0.9239 0.3535
vn -0.3536 0.3827 0.8535
vn -0.1464 0.9239 0.3535
vn -0.8536 0.3827 0.3536
vn -0.3535 0.9239 0.1464
vn -0.8536 0.3827 -0.3536
vn -0.3536 0.9239 -0.1464
vn -0.3536 0.3827 -0.8536
vn -0.1464 0.9239 -0.3535
vn -0.0001 -1.0000 -0.0000
vn 0.0001 -1.0000 -0.0000
vn 0.1465 -0.9239 -0.3536
vn 0.8536 -0.3827 -0.3535
vn 0.8535 -0.3827 0.3536
vn 0.1464 -0.9239 0.3536
vn -0.1465 -0.9239 0.3536
vn -0.8536 -0.3827 0.3535
vn -0.8535 -0.3827 -0.3536
vn -0.1464 -0.9239 -0.3536
vn 0.3535 0.3827 -0.8536
vn 0.8535 0.3827 -0.3536
vn 0.3536 0.9239 -0.1464
vn 0.8535 0.3827 0.3536
vn 0.3535 0.9239 0.1464
vn 0.3535 0.3827 0.8536
vn -0.3535 0.3827 0.8536
vn -0.8535 0.3827 0.3536
vn -0.3536 0.9239 0.1464
vn -0.8535 0.3827 -0.3536
vn -0.3535 0.9239 -0.1464
vn -0.3535 0.3827 -0.8536
vt 0.748092 0.000000
vt 0.755972 0.021804
vt 0.748092 0.021805
vt 0.755972 0.000000
vt 0.761544 0.021804
vt 0.000000 0.000000
vt 0.007880 0.021804
vt 0.000000 0.021804
vt 0.007880 0.000000
vt 0.013453 0.021804
vt 0.734639 0.000000
vt 0.742520 0.021804
vt 0.734639 0.021804
vt 0.742520 0.000000
vt 0.748092 0.021804
vt 0.761544 0.000000
vt 0.769425 0.021804
vt 0.774997 0.000000
vt 0.774997 0.021805
vt 0.467504 0.501784
vt 0.473076 0.515236
vt 0.459624 0.520809
vt 0.769425 0.310272
vt 0.774997 1.000000
vt 0.769425 1.000000
vt 0.761544 0.310272
vt 0.761544 1.000000
vt 0.742520 0.310273
vt 0.748092 1.000000
vt 0.742520 1.000000
vt 0.734639 0.310273
vt 0.734639 1.000000
vt 0.007880 0.310272
vt 0.013453 1.000000
vt 0.007880 1.000000
vt 0.000000 0.310272
vt 0.000000 1.000000
vt 0.755972 0.310272
vt 0.755972 1.000000
vt 0.748092 0.310272
vt 0.748092 1.000000
vt 0.774997 0.310272
vt 0.748092 0.310273
vt 0.774997 0.432719
vt 0.782877 -0.000000
vt 0.782877 0.432719
vt 0.013453 0.310272
vt 0.446171 0.310272
vt 0.782877 0.432719
vt 0.790757 0.000000
vt 0.790757 0.432719
vt 0.734639 0.000000
vt 0.446171 0.432719
vt 0.446171 -0.000000
vt 0.446171 0.432719
vt 0.454052 0.721187
vt 0.446171 0.721187
vt 0.459717 0.454790
vt 0.454051 0.442833
vt 0.459717 0.445180
vt 0.508436 0.487221
vt 0.502770 0.471945
vt 0.508436 0.472917
vt 0.466513 0.438385
vt 0.464166 0.432719
vt 0.508436 0.462803
vt 0.502770 0.460456
vt 0.478470 0.432719
vt 0.476123 0.438385
vt 0.508436 0.514958
vt 0.502770 0.499682
vt 0.508436 0.500654
vt 0.482918 0.445180
vt 0.488584 0.442833
vt 0.508436 0.490540
vt 0.502770 0.488193
vt 0.488584 0.457137
vt 0.482918 0.454790
vt 0.508436 0.459484
vt 0.502770 0.444208
vt 0.508436 0.445180
vt 0.476123 0.461585
vt 0.478470 0.467251
vt 0.508436 0.435066
vt 0.502770 0.432719
vt 0.464166 0.467251
vt 0.466513 0.461585
vt 0.528288 0.459484
vt 0.522622 0.444208
vt 0.528288 0.445180
vt 0.454051 0.457137
vt 0.528288 0.435066
vt 0.522622 0.432719
vt 0.494250 0.488193
vt 0.488584 0.472917
vt 0.494250 0.471945
vt 0.464166 0.501784
vt 0.459717 0.489323
vt 0.466513 0.496118
vt 0.488584 0.462803
vt 0.494250 0.460456
vt 0.476123 0.496118
vt 0.478470 0.501784
vt 0.494250 0.515930
vt 0.488584 0.500654
vt 0.494250 0.499682
vt 0.488584 0.491669
vt 0.482918 0.489323
vt 0.488584 0.490540
vt 0.482918 0.479712
vt 0.488584 0.477366
vt 0.494250 0.460456
vt 0.488584 0.445180
vt 0.494250 0.444208
vt 0.478470 0.467251
vt 0.476123 0.472917
vt 0.488584 0.435066
vt 0.494250 0.432719
vt 0.466513 0.472917
vt 0.464166 0.467251
vt 0.514102 0.460456
vt 0.508436 0.445180
vt 0.514102 0.444208
vt 0.454051 0.477366
vt 0.459717 0.479712
vt 0.508436 0.435066
vt 0.514102 0.432719
vt 0.454051 0.491669
vt 0.467378 0.440473
vt 0.461805 0.453925
vt 0.461805 0.446045
vt 0.475258 0.440473
vt 0.502770 0.515930
vt 0.480830 0.446045
vt 0.480830 0.453925
vt 0.502770 0.460456
vt 0.475258 0.459497
vt 0.467378 0.459497
vt 0.522622 0.460456
vt 0.013453 0.000000
vt 0.769425 0.000000
vt 0.454051 0.515236
vt 0.454051 0.507356
vt 0.459624 0.501784
vt 0.473076 0.507356
vt 0.467504 0.520809
vt 0.774997 -0.000000
vt 0.446171 0.021804
vt 0.782877 0.000000
vt 0.734639 0.432719
vt 0.454052 0.432719
vt 0.488584 0.487221
vt 0.488584 0.514958
vt 0.488584 0.459484
vt 0.508436 0.459484
s 0
f 2/1/1 26/2/1 25/3/1
f 4/4/2 27/5/2 26/2/2
f 6/6/3 28/7/3 27/8/3
f 8/9/4 29/10/4 28/7/4
f 10/11/5 30/12/5 29/13/5
f 12/14/6 31/15/6 30/12/6
f 14/16/7 32/17/7 31/5/7
f 32/17/8 2/18/8 25/19/8
f 7/20/9 11/21/9 15/22/9
f 24/23/8 1/24/8 15/25/8
f 23/26/7 15/25/7 13/27/7
f 22/28/6 13/29/6 11/30/6
f 21/31/5 11/30/5 9/32/5
f 20/33/4 9/34/4 7/35/4
f 19/36/3 7/35/3 5/37/3
f 18/38/2 5/27/2 3/39/2
f 17/40/1 3/39/1 1/41/1
f 24/23/8 25/19/8 17/42/8
f 31/5/7 24/23/7 23/26/7
f 30/12/6 23/43/6 22/28/6
f 21/44/9 33/45/9 22/46/9
f 28/7/4 21/47/4 20/33/4
f 27/8/3 20/33/3 19/36/3
f 26/2/2 19/26/2 18/38/2
f 25/3/1 18/38/1 17/40/1
f 29/10/3 35/48/3 21/47/3
f 30/49/10 36/50/10 29/51/10
f 22/52/7 34/53/7 30/54/7
f 36/55/5 33/56/5 35/57/5
f 40/58/11 39/59/11 38/60/11
f 42/61/12 37/62/12 39/63/12
f 44/64/13 39/59/13 45/65/13
f 45/66/14 37/62/14 43/67/14
f 44/64/15 48/68/15 47/69/15
f 45/70/16 46/71/16 48/72/16
f 50/73/17 48/68/17 51/74/17
f 51/75/18 46/71/18 49/76/18
f 50/73/19 54/77/19 53/78/19
f 51/79/20 52/80/20 54/81/20
f 56/82/21 54/77/21 57/83/21
f 57/84/22 52/80/22 55/85/22
f 56/82/23 60/86/23 59/87/23
f 57/88/24 58/89/24 60/90/24
f 40/58/25 60/86/25 42/91/25
f 42/92/26 58/89/26 41/93/26
f 64/94/27 63/95/27 62/96/27
f 63/97/28 65/98/28 61/99/28
f 62/96/29 69/100/29 68/101/29
f 63/97/30 67/102/30 69/103/30
f 68/104/31 72/105/31 71/106/31
f 72/107/32 67/102/32 70/108/32
f 71/106/33 75/109/33 74/94/33
f 72/107/34 73/110/34 75/111/34
f 74/112/35 78/113/35 77/114/35
f 78/115/36 73/110/36 76/116/36
f 77/114/37 81/117/37 80/118/37
f 78/115/38 79/119/38 81/120/38
f 80/121/39 84/122/39 83/123/39
f 84/124/40 79/119/40 82/125/40
f 83/123/41 66/126/41 64/127/41
f 84/124/42 65/98/42 66/128/42
f 41/76/1 62/96/1 37/62/1
f 6/129/9 38/60/9 44/64/9
f 2/130/9 38/60/9 4/131/9
f 37/62/2 68/101/2 43/67/2
f 58/89/8 64/127/8 41/93/8
f 2/130/9 59/87/9 40/58/9
f 6/129/43 47/69/43 8/132/43
f 43/133/3 71/106/3 46/71/3
f 10/134/9 47/69/9 50/73/9
f 46/71/4 74/94/4 49/76/4
f 10/134/9 53/78/9 12/135/9
f 49/136/5 77/114/5 52/80/5
f 14/137/9 53/78/9 56/82/9
f 52/80/6 80/118/6 55/85/6
f 14/137/44 59/87/44 16/138/44
f 55/139/7 83/123/7 58/89/7
f 61/99/10 65/98/10 73/110/10
f 2/1/1 4/4/1 26/2/1
f 4/4/2 6/16/2 27/5/2
f 6/6/3 8/9/3 28/7/3
f 8/9/4 10/140/4 29/10/4
f 10/11/5 12/14/5 30/12/5
f 12/14/6 14/1/6 31/15/6
f 14/16/7 16/141/7 32/17/7
f 32/17/8 16/141/8 2/18/8
f 15/22/9 1/142/9 3/143/9
f 3/143/9 5/144/9 7/20/9
f 7/20/9 9/145/9 11/21/9
f 11/21/9 13/146/9 15/22/9
f 15/22/9 3/143/9 7/20/9
f 24/23/8 17/42/8 1/24/8
f 23/26/7 24/23/7 15/25/7
f 22/28/6 23/43/6 13/29/6
f 21/31/5 22/28/5 11/30/5
f 20/33/4 21/47/4 9/34/4
f 19/36/3 20/33/3 7/35/3
f 18/38/2 19/26/2 5/27/2
f 17/40/1 18/38/1 3/39/1
f 24/23/8 32/17/8 25/19/8
f 31/5/7 32/17/7 24/23/7
f 30/12/6 31/15/6 23/43/6
f 21/44/9 35/147/9 33/45/9
f 28/7/4 29/10/4 21/47/4
f 27/8/3 28/7/3 20/33/3
f 26/2/2 27/5/2 19/26/2
f 25/3/1 26/2/1 18/38/1
f 29/10/3 36/148/3 35/48/3
f 30/49/10 34/149/10 36/50/10
f 22/52/7 33/150/7 34/53/7
f 36/55/5 34/151/5 33/56/5
f 40/58/45 42/91/45 39/59/45
f 42/61/12 41/76/12 37/62/12
f 44/64/13 38/60/13 39/59/13
f 45/66/46 39/63/46 37/62/46
f 44/64/15 45/65/15 48/68/15
f 45/70/47 43/133/47 46/71/47
f 50/73/48 47/69/48 48/68/48
f 51/75/18 48/72/18 46/71/18
f 50/73/49 51/74/49 54/77/49
f 51/79/20 49/136/20 52/80/20
f 56/82/21 53/78/21 54/77/21
f 57/84/50 54/81/50 52/80/50
f 56/82/23 57/83/23 60/86/23
f 57/88/51 55/139/51 58/89/51
f 40/58/52 59/87/52 60/86/52
f 42/92/26 60/90/26 58/89/26
f 64/94/53 66/152/53 63/95/53
f 63/97/28 66/128/28 65/98/28
f 62/96/54 63/95/54 69/100/54
f 63/97/55 61/99/55 67/102/55
f 68/104/56 69/153/56 72/105/56
f 72/107/57 69/103/57 67/102/57
f 71/106/58 72/105/58 75/109/58
f 72/107/34 70/108/34 73/110/34
f 74/112/59 75/154/59 78/113/59
f 78/115/36 75/111/36 73/110/36
f 77/114/60 78/113/60 81/117/60
f 78/115/61 76/116/61 79/119/61
f 80/121/62 81/155/62 84/122/62
f 84/124/63 81/120/63 79/119/63
f 83/123/64 84/122/64 66/126/64
f 84/124/42 82/125/42 65/98/42
f 41/76/1 64/94/1 62/96/1
f 6/129/43 4/131/43 38/60/43
f 2/130/9 40/58/9 38/60/9
f 37/62/2 62/96/2 68/101/2
f 58/89/8 83/123/8 64/127/8
f 2/130/9 16/138/9 59/87/9
f 6/129/9 44/64/9 47/69/9
f 43/133/3 68/104/3 71/106/3
f 10/134/9 8/132/9 47/69/9
f 46/71/4 71/106/4 74/94/4
f 10/134/9 50/73/9 53/78/9
f 49/136/5 74/112/5 77/114/5
f 14/137/44 12/135/44 53/78/44
f 52/80/6 77/114/6 80/118/6
f 14/137/9 56/82/9 59/87/9
f 55/139/7 80/121/7 83/123/7
f 65/98/10 82/125/10 79/119/10
f 79/119/10 76/116/10 65/98/10
f 76/116/10 73/110/10 65/98/10
f 73/110/10 70/108/10 67/102/10
f 67/102/10 61/99/10 73/110/10
