# Blender 5.0.1
# www.blender.org
o Cylinder.001
v -0.000028 0.000617 0.007474
v -0.000006 0.617942 -0.011003
v 0.010959 0.000617 0.012025
v 0.010982 0.617942 -0.006452
v 0.015511 0.000617 0.023013
v 0.015533 0.617942 0.004536
v 0.010959 0.000617 0.034000
v 0.010982 0.617942 0.015524
v -0.000028 0.000617 0.038552
v -0.000006 0.617942 0.020075
v -0.011016 0.000617 0.034000
v -0.010993 0.617942 0.015524
v -0.015567 0.000617 0.023013
v -0.015545 0.617942 0.004536
v -0.011016 0.000617 0.012025
v -0.010993 0.617942 -0.006452
v -0.000058 0.090288 0.031903
v -0.000085 0.179711 0.053213
v -0.000096 0.268505 0.062332
v -0.000085 0.356703 0.053213
v -0.000058 0.444182 0.031903
v -0.000028 0.531056 0.007474
v 0.010959 0.531143 0.012025
v 0.010929 0.444196 0.036454
v 0.010903 0.356706 0.057764
v 0.010892 0.268505 0.066883
v 0.010903 0.179711 0.057764
v 0.010929 0.090288 0.036454
v 0.015511 0.531224 0.023013
v 0.015481 0.444231 0.047442
v 0.015454 0.356713 0.068752
v 0.015443 0.268506 0.077871
v 0.015454 0.179711 0.068752
v 0.015481 0.090288 0.047442
v 0.010959 0.531251 0.034000
v 0.010929 0.444266 0.058430
v 0.010903 0.356720 0.079740
v 0.010892 0.268506 0.088859
v 0.010903 0.179711 0.079740
v 0.010929 0.090288 0.058430
v -0.000028 0.531285 0.038552
v -0.000058 0.444280 0.062981
v -0.000085 0.356723 0.084291
v -0.000096 0.268506 0.093410
v -0.000085 0.179711 0.084291
v -0.000058 0.090288 0.062981
v -0.011016 0.531251 0.034000
v -0.011046 0.444265 0.058430
v -0.011072 0.356720 0.079740
v -0.011083 0.268506 0.088859
v -0.011072 0.179711 0.079740
v -0.011046 0.090288 0.058430
v -0.015567 0.531224 0.023013
v -0.015597 0.444230 0.047442
v -0.015623 0.356713 0.068752
v -0.015635 0.268506 0.077871
v -0.015623 0.179711 0.068752
v -0.015597 0.090288 0.047442
v -0.011016 0.531143 0.012025
v -0.011046 0.444196 0.036454
v -0.011072 0.356706 0.057764
v -0.011083 0.268505 0.066883
v -0.011072 0.179711 0.057764
v -0.011046 0.090288 0.036454
v 0.052414 0.644936 -0.047884
v -0.000006 0.644936 -0.069596
v 0.074127 0.644936 0.004536
v 0.052414 0.644936 0.056955
v -0.000006 0.644936 0.078668
v -0.052425 0.644936 0.056955
v -0.074138 0.644936 0.004536
v -0.052425 0.644936 -0.047884
v 0.094257 0.703283 -0.089727
v -0.000006 0.703283 -0.128771
v 0.133302 0.703283 0.004536
v 0.094257 0.703283 0.098798
v -0.000006 0.703283 0.137843
v -0.094268 0.703283 0.098798
v -0.133313 0.703283 0.004536
v -0.094268 0.703283 -0.089727
v 0.154400 0.838124 -0.149870
v -0.000006 0.838124 -0.213826
v 0.218357 0.838124 0.004536
v 0.154400 0.838124 0.158941
v -0.000006 0.838124 0.222898
v -0.154411 0.838124 0.158941
v -0.218368 0.838124 0.004536
v -0.154411 0.838124 -0.149870
v 0.106429 1.007430 -0.101899
v -0.000006 1.007430 -0.145986
v 0.150516 1.007430 0.004536
v 0.106429 1.007430 0.110971
v -0.000006 1.007430 0.155058
v -0.106441 1.007430 0.110971
v -0.150527 1.007430 0.004536
v -0.106441 1.007430 -0.101899
v 0.149448 1.067798 -0.144917
v -0.000006 1.067798 -0.206823
v 0.211353 1.067798 0.004536
v 0.149448 1.067798 0.153989
v -0.000006 1.067798 0.215894
v -0.149459 1.067798 0.153989
v -0.211364 1.067798 0.004536
v -0.149459 1.067798 -0.144917
v 0.063989 0.906943 -0.059458
v -0.000006 0.906943 -0.085966
v 0.090496 0.906943 0.004536
v 0.063989 0.906943 0.068530
v -0.000006 0.906943 0.095037
v -0.064000 0.906943 0.068530
v -0.090507 0.906943 0.004536
v -0.064000 0.906943 -0.059458
v 0.106429 0.906943 -0.101899
v -0.000006 0.906943 -0.145986
v 0.150516 0.906943 0.004536
v 0.106429 0.906943 0.110971
v -0.000006 0.906943 0.155058
v -0.106441 0.906943 0.110971
v -0.150527 0.906943 0.004536
v -0.106441 0.906943 -0.101899
v 0.059090 1.045527 -0.054560
v 0.063989 1.022434 -0.059458
v -0.000006 1.022434 -0.085966
v -0.000006 1.045527 -0.079038
v 0.083568 1.045527 0.004536
v 0.090496 1.022434 0.004536
v 0.059090 1.045527 0.063631
v 0.063989 1.022434 0.068530
v -0.000006 1.045527 0.088110
v -0.000006 1.022434 0.095037
v -0.059101 1.045527 0.063631
v -0.064000 1.022434 0.068530
v -0.083579 1.045527 0.004536
v -0.090507 1.022434 0.004536
v -0.059101 1.045527 -0.054560
v -0.064000 1.022434 -0.059458
v 0.032190 1.083355 -0.027659
v 0.046605 1.072695 -0.042074
v -0.000006 1.072695 -0.061381
v -0.000006 1.083355 -0.040995
v 0.045525 1.083355 0.004536
v 0.065911 1.072695 0.004536
v 0.032190 1.083355 0.036731
v 0.046604 1.072695 0.051146
v -0.000006 1.083355 0.050067
v -0.000006 1.072695 0.070452
v -0.032201 1.083355 0.036731
v -0.046616 1.072695 0.051146
v -0.045537 1.083355 0.004536
v -0.065922 1.072695 0.004536
v -0.032201 1.083355 -0.027659
v -0.046616 1.072695 -0.042074
vn 0.3761 -0.1929 -0.9063
vn 0.9208 -0.0814 -0.3813
vn 0.9209 0.0810 0.3813
vn 0.3757 0.1931 0.9064
vn -0.3755 0.1933 0.9064
vn -0.9209 0.0815 0.3812
vn -0.1708 -0.8949 -0.4123
vn -0.9209 -0.0809 -0.3812
vn -0.3763 -0.1927 -0.9062
vn -0.0000 -1.0000 -0.0000
vn -0.3711 0.2440 -0.8960
vn -0.3737 0.2149 -0.9023
vn -0.3810 0.0944 -0.9198
vn -0.3810 -0.0950 -0.9197
vn -0.3734 -0.2194 -0.9013
vn -0.3713 -0.2511 -0.8939
vn -0.9189 0.1034 -0.3806
vn -0.9201 0.0906 -0.3811
vn -0.9232 0.0392 -0.3824
vn -0.9232 -0.0394 -0.3824
vn -0.9199 -0.0925 -0.3810
vn -0.9189 -0.1064 -0.3798
vn -0.9189 -0.1040 0.3806
vn -0.9200 -0.0911 0.3811
vn -0.9232 -0.0394 0.3824
vn -0.9232 0.0396 0.3824
vn -0.9201 0.0930 0.3805
vn -0.9187 0.1071 0.3802
vn -0.3711 -0.2442 0.8959
vn -0.3737 -0.2151 0.9022
vn -0.3810 -0.0945 0.9197
vn -0.3809 0.0951 0.9197
vn -0.3734 0.2195 0.9013
vn -0.3711 0.2512 0.8940
vn 0.3711 -0.2440 0.8960
vn 0.3737 -0.2149 0.9023
vn 0.3810 -0.0944 0.9198
vn 0.3810 0.0950 0.9197
vn 0.3734 0.2193 0.9014
vn 0.3710 0.2510 0.8941
vn 0.9189 -0.1034 0.3806
vn 0.9201 -0.0906 0.3811
vn 0.9232 -0.0392 0.3824
vn 0.9232 0.0394 0.3824
vn 0.9199 0.0925 0.3810
vn 0.9187 0.1065 0.3802
vn 0.9189 0.1040 -0.3806
vn 0.9200 0.0911 -0.3811
vn 0.9232 0.0394 -0.3824
vn 0.9232 -0.0396 -0.3824
vn 0.9199 -0.0930 -0.3810
vn 0.9189 -0.1070 -0.3798
vn 0.3711 0.2442 -0.8959
vn 0.3737 0.2151 -0.9022
vn 0.3810 0.0945 -0.9197
vn 0.3809 -0.0951 -0.9197
vn 0.3734 -0.2196 -0.9013
vn 0.3711 -0.2514 -0.8939
vn -0.2793 -0.6837 -0.6742
vn 0.1708 -0.8949 -0.4123
vn 0.4123 -0.8949 0.1708
vn -0.4123 -0.8949 0.1708
vn 0.1708 -0.8949 0.4123
vn -0.4123 -0.8949 -0.1708
vn 0.4123 -0.8949 -0.1708
vn -0.1708 -0.8949 0.4123
vn 0.7982 -0.5035 0.3306
vn -0.6742 -0.6837 0.2793
vn 0.2793 -0.6837 0.6742
vn 0.6742 -0.6837 -0.2793
vn -0.6742 -0.6837 -0.2793
vn -0.2793 -0.6837 0.6742
vn 0.6742 -0.6837 0.2793
vn 0.2793 -0.6837 -0.6742
vn -0.3825 0.0282 0.9235
vn 0.3306 -0.5035 -0.7982
vn -0.3306 -0.5035 -0.7982
vn -0.7982 -0.5035 0.3306
vn 0.3306 -0.5035 0.7982
vn 0.7982 -0.5035 -0.3306
vn -0.7982 -0.5035 -0.3306
vn -0.3306 -0.5035 0.7982
vn 0.9239 -0.0000 -0.3827
vn 0.9235 0.0282 0.3825
vn 0.3825 0.0282 -0.9235
vn -0.3825 0.0282 -0.9235
vn -0.9235 0.0282 0.3825
vn 0.3825 0.0282 0.9235
vn 0.9235 0.0282 -0.3825
vn -0.9235 0.0282 -0.3825
vn -0.2801 0.6814 0.6762
vn -0.6762 0.6814 0.2801
vn -0.6762 0.6814 -0.2801
vn -0.2801 0.6814 -0.6762
vn 0.2801 0.6814 -0.6762
vn 0.6762 0.6814 -0.2801
vn 0.6762 0.6814 0.2801
vn 0.2801 0.6814 0.6762
vn -0.3827 -0.0000 -0.9239
vn -0.9239 -0.0000 0.3827
vn 0.9239 -0.0000 0.3827
vn 0.3827 -0.0000 -0.9239
vn -0.9239 -0.0000 -0.3827
vn -0.3827 -0.0000 0.9239
vn 0.3827 -0.0000 0.9239
vn -0.0000 1.0000 -0.0000
vn 0.3688 0.2671 -0.8903
vn 0.8903 0.2671 -0.3688
vn 0.8903 0.2671 0.3688
vn 0.3688 0.2671 0.8903
vn -0.3688 0.2671 0.8903
vn -0.8903 0.2671 0.3688
vn -0.8903 0.2671 -0.3688
vn -0.3688 0.2671 -0.8903
vn 0.1885 0.8703 -0.4551
vn 0.4551 0.8703 -0.1885
vn 0.4551 0.8703 0.1885
vn 0.1885 0.8703 0.4551
vn -0.1885 0.8703 0.4551
vn -0.4551 0.8703 0.1885
vn -0.4551 0.8703 -0.1885
vn -0.1885 0.8703 -0.4551
vn 0.3281 0.5148 -0.7921
vn 0.7921 0.5148 -0.3281
vn -0.3281 0.5148 -0.7921
vn 0.7921 0.5148 0.3281
vn 0.3281 0.5148 0.7921
vn -0.3281 0.5148 0.7921
vn -0.7921 0.5148 0.3281
vn -0.7921 0.5148 -0.3281
vn 0.3762 -0.1929 -0.9062
vn 0.9208 -0.0814 -0.3814
vn 0.9208 0.0810 0.3814
vn 0.3759 0.1931 0.9063
vn -0.3759 0.1933 0.9063
vn -0.9208 0.0815 0.3814
vn -0.9211 -0.0809 -0.3809
vn -0.3762 -0.1927 -0.9063
vn -0.3736 -0.2194 -0.9013
vn -0.3715 -0.2511 -0.8938
vn -0.9200 -0.0925 -0.3808
vn -0.9188 -0.1064 -0.3801
vn -0.9199 0.0930 0.3811
vn -0.9187 0.1071 0.3803
vn -0.3810 0.0951 0.9197
vn -0.3736 0.2195 0.9012
vn 0.3736 0.2193 0.9013
vn 0.3711 0.2510 0.8940
vn 0.9200 0.0924 0.3808
vn 0.9187 0.1065 0.3803
vn 0.9232 -0.0397 -0.3824
vn 0.9200 -0.0930 -0.3808
vn 0.9186 -0.1071 -0.3803
vn 0.3810 -0.0951 -0.9197
vn 0.3736 -0.2196 -0.9012
vn 0.3715 -0.2514 -0.8938
vt 0.237257 0.603382
vt 0.244462 0.525500
vt 0.244672 0.604547
vt 0.776659 0.077959
vt 0.774192 0.000293
vt 0.787267 0.078180
vt 0.672613 0.573733
vt 0.679974 0.496462
vt 0.680070 0.574612
vt 0.729398 0.451967
vt 0.734574 0.374128
vt 0.740007 0.452058
vt 0.747512 0.451869
vt 0.889478 0.000149
vt 0.885954 0.077726
vt 0.875345 0.077852
vt 0.880611 0.819391
vt 0.913512 0.866154
vt 0.876551 0.829193
vt 0.214896 0.524802
vt 0.222291 0.601826
vt 0.214801 0.602296
vt 0.713355 0.373908
vt 0.717471 0.451303
vt 0.706862 0.451203
vt 0.649865 0.495559
vt 0.667977 0.503062
vt 0.660475 0.521174
vt 0.705854 0.924471
vt 0.708267 0.844320
vt 0.716464 0.924494
vt 0.697657 0.844297
vt 0.701137 0.764391
vt 0.690528 0.764368
vt 0.698183 0.685112
vt 0.690864 0.606476
vt 0.687573 0.685090
vt 0.698329 0.528586
vt 0.701474 0.606501
vt 0.708939 0.528621
vt 0.892588 0.550809
vt 0.878847 0.471063
vt 0.900087 0.550471
vt 0.871348 0.471401
vt 0.860179 0.391808
vt 0.852680 0.392146
vt 0.851558 0.312842
vt 0.211684 0.758426
vt 0.222380 0.836506
vt 0.214896 0.837049
vt 0.212690 0.680161
vt 0.219168 0.757889
vt 0.220177 0.679649
vt 0.881980 0.550958
vt 0.860740 0.471550
vt 0.842071 0.392295
vt 0.844060 0.313180
vt 0.839858 0.234476
vt 0.833451 0.313329
vt 0.856314 0.155948
vt 0.850467 0.234333
vt 0.866923 0.155831
vt 0.229734 0.766793
vt 0.232139 0.686368
vt 0.237061 0.768420
vt 0.224812 0.684741
vt 0.229707 0.604980
vt 0.222380 0.603353
vt 0.237061 0.525886
vt 0.753866 0.609361
vt 0.763587 0.688112
vt 0.756082 0.688332
vt 0.747473 0.530522
vt 0.761371 0.609145
vt 0.754978 0.530316
vt 0.733240 0.845916
vt 0.734574 0.925046
vt 0.723965 0.924924
vt 0.741444 0.767011
vt 0.743849 0.846037
vt 0.745473 0.688210
vt 0.752054 0.767133
vt 0.743257 0.609242
vt 0.736864 0.530413
vt 0.796514 0.472033
vt 0.781687 0.551603
vt 0.774193 0.551209
vt 0.816261 0.392981
vt 0.804008 0.472428
vt 0.825956 0.314107
vt 0.823755 0.393376
vt 0.672519 0.810499
vt 0.683156 0.732467
vt 0.679974 0.811402
vt 0.675701 0.731570
vt 0.682161 0.653386
vt 0.674704 0.652514
vt 0.785908 0.471740
vt 0.763587 0.550916
vt 0.805655 0.392688
vt 0.815350 0.313814
vt 0.820622 0.235186
vt 0.810016 0.234899
vt 0.805235 0.156498
vt 0.794628 0.156236
vt 0.723965 0.924449
vt 0.715768 0.844275
vt 0.708639 0.764346
vt 0.237061 0.842314
vt 0.252042 0.764823
vt 0.244462 0.843554
vt 0.244641 0.763585
vt 0.249662 0.684704
vt 0.242259 0.683476
vt 0.303177 0.376465
vt 0.374176 0.325047
vt 0.353793 0.376635
vt 0.866749 0.833253
vt 0.866749 0.885525
vt 0.673354 0.485757
vt 0.683156 0.429425
vt 0.683156 0.481697
vt 0.875662 0.561406
vt 0.931994 0.551603
vt 0.912623 0.598367
vt 0.936978 0.819391
vt 0.904077 0.772627
vt 0.941039 0.809588
vt 0.865860 0.617737
vt 0.865860 0.565466
vt 0.617022 0.495559
vt 0.636392 0.448796
vt 0.950841 0.753257
vt 0.950841 0.805528
vt 0.120064 0.326691
vt 0.254530 0.207319
vt 0.184430 0.328299
vt 0.301603 0.750751
vt 0.373063 0.701153
vt 0.352216 0.751402
vt 0.555436 0.373054
vt 0.627092 0.324234
vt 0.606045 0.373908
vt 0.099865 0.379945
vt 0.029043 0.326691
vt 0.865860 0.670528
vt 0.866749 0.735298
vt 0.950841 0.700466
vt 0.683156 0.376635
vt 0.950841 0.903483
vt 0.866749 0.938315
vt 0.658111 0.207405
vt 0.761272 -0.000000
vt 0.763587 0.204889
vt 0.866749 0.847731
vt 0.763587 0.700466
vt 0.866749 0.722316
vt 0.283155 0.324742
vt 0.403625 0.205424
vt 0.254530 0.581562
vt 0.403613 0.583479
vt 0.536084 0.322699
vt 0.149095 0.204686
vt 0.803423 0.684793
vt 0.865860 0.577277
vt 0.865860 0.700466
vt 0.207102 0.855687
vt 0.105514 0.705750
vt 0.207102 0.734110
vt 0.196189 0.555408
vt 0.105514 0.453566
vt 0.195126 0.452639
vt 0.000000 0.584848
vt 0.102129 0.381226
vt 0.105514 0.586171
vt 0.509037 0.204925
vt 0.401920 0.000484
vt 0.503951 0.000000
vt 0.254530 0.204925
vt 0.403858 0.378491
vt 0.509037 0.204889
vt 0.659179 0.002435
vt -0.000000 0.204686
vt 0.146705 -0.000000
vt 0.505940 0.376635
vt 0.509077 0.581562
vt 0.105514 0.876456
vt 0.155655 1.000000
vt 0.105514 0.979231
vt 0.614562 0.675914
vt 0.669947 0.552372
vt 0.669947 0.696686
vt 0.900087 0.267857
vt 0.950229 0.144313
vt 0.950229 0.288626
vt 0.668820 0.717447
vt 0.614562 0.840999
vt 0.614562 0.696686
vt 0.950229 0.412170
vt 0.900087 0.288626
vt 0.950229 0.309396
vt 0.952672 0.123548
vt 0.900087 0.000000
vt 0.952672 0.020774
vt 0.664704 0.964543
vt 0.614562 0.840999
vt 0.664704 0.861768
vt 0.252042 0.400711
vt 0.196189 0.524259
vt 0.196189 0.379945
vt 0.509422 0.376635
vt 0.598719 0.479709
vt 0.509078 0.479409
vt 0.853189 0.950505
vt 0.763587 0.847731
vt 0.853189 0.847731
vt 0.106577 0.380873
vt 0.196189 0.379945
vt 0.599064 0.552372
vt 0.509422 0.552072
vt 0.972771 0.433527
vt 0.900087 0.522582
vt 0.900087 0.432940
vt 0.228325 0.857943
vt 0.155655 0.945289
vt 0.155655 0.855687
vt 0.509077 0.850526
vt 0.598648 0.953301
vt 0.509077 0.953300
vt 0.331722 0.789263
vt 0.408914 0.846353
vt 0.355369 0.846353
vt 0.023647 0.829530
vt 0.037862 0.924481
vt 0.000000 0.886620
vt 0.000000 0.772440
vt 0.077192 0.829530
vt 0.408914 0.903443
vt 0.486106 0.846353
vt 0.446775 0.941304
vt 0.408914 0.789263
vt 0.432561 0.846353
vt 0.331722 0.789263
vt 0.254530 0.846353
vt 0.293860 0.751402
vt 0.331722 0.903443
vt 0.308075 0.846353
vt 0.369584 0.941304
vt 0.570871 0.747499
vt 0.608848 0.726526
vt 0.614559 0.747145
vt 0.000000 0.630489
vt 0.059429 0.610037
vt 0.061793 0.630489
vt 0.642363 0.541951
vt 0.600938 0.526733
vt 0.640923 0.521050
vt 0.509077 0.599296
vt 0.568505 0.578479
vt 0.570871 0.599296
vt 0.608852 0.576835
vt 0.614562 0.597515
vt 0.105514 0.602769
vt 0.164942 0.582000
vt 0.167307 0.602769
vt 0.211003 0.601412
vt 0.205294 0.580748
vt 0.511442 0.726852
vt 0.568505 0.726852
vt 0.980924 0.825210
vt 0.950841 0.796488
vt 0.963700 0.783629
vt 0.980312 0.289275
vt 0.950229 0.317996
vt 0.962126 0.289275
vt 0.963088 0.247694
vt 0.950229 0.260553
vt 0.980312 0.372437
vt 0.950229 0.401159
vt 0.962126 0.372437
vt 0.950229 0.343715
vt 0.963088 0.330856
vt 0.968064 0.700466
vt 0.969027 0.742047
vt 0.950841 0.742047
vt 0.968064 0.783629
vt 0.980924 0.770769
vt 0.950841 0.853931
vt 0.962738 0.825210
vt 0.594294 0.702241
vt 0.000000 0.733488
vt 0.061793 0.733487
vt 0.570871 0.850526
vt 0.614559 0.850172
vt 0.002366 0.610037
vt 0.053402 0.586171
vt 0.517467 0.702498
vt 0.562475 0.702498
vt 0.509077 0.850526
vt 0.105491 0.734579
vt 0.105491 0.631581
vt 0.610826 0.500041
vt 0.642363 0.495559
vt 0.570871 0.702241
vt 0.517469 0.553669
vt 0.562476 0.553669
vt 0.993644 0.655941
vt 0.949952 0.551603
vt 0.993644 0.552960
vt 0.594298 0.552372
vt 0.167307 0.705750
vt 0.107879 0.582000
vt 0.158915 0.557323
vt 0.950229 0.247340
vt 0.993930 0.144667
vt 0.993930 0.247694
vt 0.190741 0.556335
vt -0.000000 0.977552
vt 0.021983 0.924481
vt 0.075053 0.946464
vt 0.237061 0.524259
vt 0.763587 0.000000
vt 0.672519 0.495559
vt 0.723965 0.374006
vt 0.742079 0.373908
vt 0.900087 -0.000000
vt 0.932883 0.819391
vt 0.222380 0.524259
vt 0.723965 0.373931
vt 0.649865 0.521174
vt 0.642363 0.513671
vt 0.642363 0.503062
vt 0.660475 0.495559
vt 0.667977 0.513671
vt 0.229734 0.524259
vt 0.833451 0.314502
vt 0.705684 0.685067
vt 0.879722 0.551603
vt 0.884707 0.819391
vt 0.669293 0.495559
vt 0.282050 0.699983
vt 0.049249 0.379945
vt 0.949952 0.635696
vt 0.599064 0.411467
vt 0.803770 0.834392
vt 0.763587 0.551603
vt 0.145083 0.838373
vt 0.106577 0.556335
vt 0.000000 0.379945
vt 0.257607 0.000000
vt 0.259557 0.376635
vt 0.514886 -0.000000
vt 0.002392 0.000000
vt 0.614562 0.573140
vt 0.900087 0.165083
vt 0.668820 0.820222
vt 0.900087 0.432940
vt 0.900087 0.144313
vt 0.614562 0.985312
vt 0.252042 0.503486
vt 0.599064 0.376935
vt 0.763587 0.950505
vt 0.972771 0.523170
vt 0.228325 0.947546
vt 0.598648 0.850526
vt 0.369584 0.751402
vt 0.037862 0.734579
vt 0.446775 0.751402
vt 0.293860 0.941304
vt 0.599064 0.548105
vt 0.511442 0.578479
vt 0.509077 0.747499
vt 0.963088 0.330856
vt 0.963088 0.414018
vt 0.980924 0.713326
vt 0.963700 0.866791
vt 0.008395 0.586171
vt 0.509077 0.702241
vt 0.949952 0.654584
vt 0.105514 0.705750
vt 0.113908 0.557323
vt 0.950229 0.144313
vt 0.053071 0.999535
vt 0.021983 0.999535
vt -0.000000 0.946464
vt 0.053071 0.924481
vt 0.075053 0.977552
s 0
f 22/1/1 4/2/1 23/3/1
f 23/4/2 6/5/2 29/6/2
f 29/7/3 8/8/3 35/9/3
f 35/10/4 10/11/4 41/12/4
f 10/11/5 47/13/5 41/12/5
f 12/14/6 53/15/6 47/16/6
f 16/17/7 66/18/7 2/19/7
f 14/20/8 59/21/8 53/22/8
f 16/23/9 22/24/9 59/25/9
f 7/26/10 11/27/10 15/28/10
f 15/29/11 17/30/11 1/31/11
f 64/32/12 18/33/12 17/30/12
f 63/34/13 19/35/13 18/33/13
f 61/36/14 19/35/14 62/37/14
f 60/38/15 20/39/15 61/36/15
f 59/25/16 21/40/16 60/38/16
f 13/41/17 64/42/17 15/43/17
f 58/44/18 63/45/18 64/42/18
f 57/46/19 62/47/19 63/45/19
f 55/48/20 62/49/20 56/50/20
f 54/51/21 61/52/21 55/48/21
f 53/22/22 60/53/22 54/51/22
f 11/54/23 58/44/23 13/41/23
f 52/55/24 57/46/24 58/44/24
f 51/56/25 56/57/25 57/46/25
f 49/58/26 56/57/26 50/59/26
f 48/60/27 55/61/27 49/58/27
f 47/16/28 54/62/28 48/60/28
f 9/63/29 52/64/29 11/65/29
f 46/66/30 51/67/30 52/64/30
f 45/68/31 50/69/31 51/67/31
f 43/70/32 50/71/32 44/72/32
f 42/73/33 49/74/33 43/70/33
f 41/12/34 48/75/34 42/73/34
f 40/76/35 9/77/35 7/78/35
f 39/79/36 46/80/36 40/76/36
f 38/81/37 45/82/37 39/79/37
f 38/81/38 43/70/38 44/72/38
f 37/83/39 42/73/39 43/70/39
f 36/84/40 41/12/40 42/73/40
f 34/85/41 7/86/41 5/87/41
f 33/88/42 40/89/42 34/85/42
f 32/90/43 39/91/43 33/88/43
f 32/92/44 37/93/44 38/94/44
f 31/95/45 36/96/45 37/93/45
f 30/97/46 35/9/46 36/96/46
f 28/98/47 5/87/47 3/99/47
f 27/100/48 34/85/48 28/98/48
f 26/101/49 33/88/49 27/100/49
f 26/101/50 31/102/50 32/90/50
f 25/103/51 30/104/51 31/102/51
f 24/105/52 29/6/52 30/104/52
f 17/30/53 3/106/53 1/31/53
f 18/33/54 28/107/54 17/30/54
f 19/35/55 27/108/55 18/33/55
f 19/109/56 25/110/56 26/111/56
f 20/112/57 24/113/57 25/110/57
f 21/114/58 23/3/58 24/113/58
f 72/115/59 74/116/59 66/117/59
f 4/118/60 66/18/60 65/119/60
f 6/120/61 68/121/61 8/122/61
f 14/123/62 70/124/62 71/125/62
f 8/126/63 69/127/63 10/128/63
f 14/123/64 72/129/64 16/130/64
f 6/120/65 65/131/65 67/132/65
f 10/128/66 70/133/66 12/134/66
f 75/135/67 84/136/67 76/137/67
f 70/138/68 79/139/68 71/140/68
f 68/141/69 77/142/69 69/143/69
f 67/144/70 73/145/70 75/135/70
f 71/125/71 80/146/71 72/129/71
f 70/133/72 77/147/72 78/148/72
f 67/132/73 76/149/73 68/121/73
f 65/119/74 74/150/74 73/151/74
f 85/152/75 102/153/75 86/154/75
f 73/155/76 82/156/76 81/157/76
f 80/158/77 82/159/77 74/116/77
f 79/139/78 86/160/78 87/161/78
f 76/162/79 85/152/79 77/142/79
f 73/145/80 83/163/80 75/135/80
f 79/164/81 88/165/81 80/166/81
f 78/167/82 85/168/82 86/169/82
f 94/170/83 119/171/83 95/172/83
f 83/173/84 100/174/84 84/175/84
f 81/176/85 98/177/85 97/178/85
f 88/179/86 98/177/86 82/159/86
f 86/160/87 103/180/87 87/161/87
f 84/181/88 101/182/88 85/152/88
f 81/183/89 99/184/89 83/163/89
f 87/161/90 104/185/90 88/186/90
f 89/187/91 98/188/91 90/189/91
f 89/190/92 99/191/92 97/192/92
f 91/193/93 100/194/93 99/195/93
f 92/196/94 101/197/94 100/198/94
f 94/199/95 101/200/95 93/201/95
f 95/202/96 102/203/96 94/204/96
f 96/205/97 103/206/97 95/207/97
f 96/208/98 98/209/98 104/210/98
f 92/211/99 117/212/99 93/213/99
f 89/214/100 115/215/100 91/216/100
f 95/172/101 120/217/101 96/218/101
f 93/213/102 118/219/102 94/220/102
f 91/221/103 116/222/103 92/223/103
f 90/224/104 113/225/104 89/226/104
f 96/227/105 114/228/105 90/229/105
f 105/230/106 114/231/106 106/232/106
f 107/233/106 113/234/106 105/235/106
f 108/236/106 115/237/106 107/233/106
f 108/238/106 117/239/106 116/240/106
f 110/241/106 117/239/106 109/242/106
f 110/243/106 119/244/106 118/245/106
f 112/246/106 119/244/106 111/247/106
f 112/246/106 114/231/106 120/248/106
f 123/249/107 121/250/107 122/251/107
f 122/252/108 125/253/108 126/254/108
f 128/255/109 125/256/109 127/257/109
f 128/258/110 129/259/110 130/260/110
f 130/260/111 131/261/111 132/262/111
f 132/263/112 133/264/112 134/265/112
f 136/266/113 133/264/113 135/267/113
f 123/249/114 135/268/114 124/269/114
f 139/270/115 137/271/115 138/272/115
f 142/273/116 137/274/116 141/275/116
f 144/276/117 141/275/117 143/277/117
f 146/278/118 143/279/118 145/280/118
f 146/278/119 147/281/119 148/282/119
f 148/283/120 149/284/120 150/285/120
f 152/286/121 149/284/121 151/287/121
f 139/270/122 151/288/122 140/289/122
f 124/269/123 138/290/123 121/250/123
f 105/291/83 126/254/83 107/292/83
f 106/293/102 122/251/102 105/294/102
f 121/295/124 142/296/124 125/253/124
f 124/269/125 152/297/125 139/298/125
f 112/299/99 123/249/99 106/293/99
f 108/300/101 126/254/101 128/301/101
f 127/257/126 142/302/126 144/303/126
f 109/304/105 128/258/105 130/260/105
f 129/259/127 144/305/127 146/306/127
f 110/307/104 130/308/104 132/309/104
f 129/259/128 148/310/128 131/261/128
f 111/311/100 132/263/100 134/265/100
f 131/312/129 150/313/129 133/264/129
f 111/314/103 136/315/103 112/316/103
f 135/267/130 150/313/130 152/317/130
f 140/318/106 149/319/106 145/320/106
f 22/1/131 2/321/131 4/2/131
f 23/4/132 4/322/132 6/5/132
f 29/7/133 6/323/133 8/8/133
f 35/10/134 8/324/134 10/11/134
f 10/11/135 12/325/135 47/13/135
f 12/14/136 14/326/136 53/15/136
f 16/17/7 72/327/7 66/18/7
f 14/20/137 16/328/137 59/21/137
f 16/23/138 2/329/138 22/24/138
f 15/28/10 1/330/10 3/331/10
f 3/331/10 5/332/10 15/28/10
f 5/332/10 7/26/10 15/28/10
f 7/26/10 9/333/10 11/27/10
f 11/27/10 13/334/10 15/28/10
f 15/29/11 64/32/11 17/30/11
f 64/32/12 63/34/12 18/33/12
f 63/34/13 62/37/13 19/35/13
f 61/36/14 20/39/14 19/35/14
f 60/38/139 21/40/139 20/39/139
f 59/25/140 22/24/140 21/40/140
f 13/41/17 58/44/17 64/42/17
f 58/44/18 57/46/18 63/45/18
f 57/46/19 56/57/19 62/47/19
f 55/48/20 61/52/20 62/49/20
f 54/51/141 60/53/141 61/52/141
f 53/22/142 59/21/142 60/53/142
f 11/54/23 52/55/23 58/44/23
f 52/55/24 51/56/24 57/46/24
f 51/56/25 50/59/25 56/57/25
f 49/58/26 55/61/26 56/57/26
f 48/60/143 54/62/143 55/61/143
f 47/16/144 53/15/144 54/62/144
f 9/63/29 46/66/29 52/64/29
f 46/66/30 45/68/30 51/67/30
f 45/68/31 44/335/31 50/69/31
f 43/70/145 49/74/145 50/71/145
f 42/73/146 48/75/146 49/74/146
f 41/12/34 47/13/34 48/75/34
f 40/76/35 46/80/35 9/77/35
f 39/79/36 45/82/36 46/80/36
f 38/81/37 44/72/37 45/82/37
f 38/81/38 37/83/38 43/70/38
f 37/83/147 36/84/147 42/73/147
f 36/84/148 35/10/148 41/12/148
f 34/85/41 40/89/41 7/86/41
f 33/88/42 39/91/42 40/89/42
f 32/90/43 38/336/43 39/91/43
f 32/92/44 31/95/44 37/93/44
f 31/95/149 30/97/149 36/96/149
f 30/97/150 29/7/150 35/9/150
f 28/98/47 34/85/47 5/87/47
f 27/100/48 33/88/48 34/85/48
f 26/101/49 32/90/49 33/88/49
f 26/101/151 25/103/151 31/102/151
f 25/103/152 24/105/152 30/104/152
f 24/105/153 23/4/153 29/6/153
f 17/30/53 28/107/53 3/106/53
f 18/33/54 27/108/54 28/107/54
f 19/35/55 26/337/55 27/108/55
f 19/109/154 20/112/154 25/110/154
f 20/112/155 21/114/155 24/113/155
f 21/114/156 22/1/156 23/3/156
f 72/115/59 80/158/59 74/116/59
f 4/118/60 2/19/60 66/18/60
f 6/120/61 67/132/61 68/121/61
f 14/123/62 12/338/62 70/124/62
f 8/126/63 68/339/63 69/127/63
f 14/123/64 71/125/64 72/129/64
f 6/120/65 4/340/65 65/131/65
f 10/128/66 69/127/66 70/133/66
f 75/135/67 83/163/67 84/136/67
f 70/138/68 78/341/68 79/139/68
f 68/141/69 76/162/69 77/142/69
f 67/144/70 65/342/70 73/145/70
f 71/125/71 79/343/71 80/146/71
f 70/133/72 69/127/72 77/147/72
f 67/132/73 75/344/73 76/149/73
f 65/119/74 66/18/74 74/150/74
f 85/152/75 101/182/75 102/153/75
f 73/155/76 74/345/76 82/156/76
f 80/158/77 88/179/77 82/159/77
f 79/139/78 78/341/78 86/160/78
f 76/162/79 84/181/79 85/152/79
f 73/145/80 81/183/80 83/163/80
f 79/164/81 87/346/81 88/165/81
f 78/167/82 77/347/82 85/168/82
f 94/170/83 118/348/83 119/171/83
f 83/173/84 99/349/84 100/174/84
f 81/176/85 82/159/85 98/177/85
f 88/179/86 104/350/86 98/177/86
f 86/160/87 102/351/87 103/180/87
f 84/181/88 100/352/88 101/182/88
f 81/183/89 97/353/89 99/184/89
f 87/161/90 103/180/90 104/185/90
f 89/187/91 97/226/91 98/188/91
f 89/190/92 91/354/92 99/191/92
f 91/193/93 92/355/93 100/194/93
f 92/196/94 93/356/94 101/197/94
f 94/199/95 102/357/95 101/200/95
f 95/202/96 103/358/96 102/203/96
f 96/205/97 104/359/97 103/206/97
f 96/208/98 90/360/98 98/209/98
f 92/211/99 116/361/99 117/212/99
f 89/214/100 113/362/100 115/215/100
f 95/172/101 119/171/101 120/217/101
f 93/213/102 117/212/102 118/219/102
f 91/221/103 115/363/103 116/222/103
f 90/224/104 114/364/104 113/225/104
f 96/227/105 120/365/105 114/228/105
f 105/230/106 113/366/106 114/231/106
f 107/233/106 115/237/106 113/234/106
f 108/236/106 116/367/106 115/237/106
f 108/238/106 109/242/106 117/239/106
f 110/241/106 118/368/106 117/239/106
f 110/243/106 111/247/106 119/244/106
f 112/246/106 120/369/106 119/244/106
f 112/246/106 106/232/106 114/231/106
f 123/249/107 124/269/107 121/250/107
f 122/252/108 121/295/108 125/253/108
f 128/255/109 126/370/109 125/256/109
f 128/258/110 127/371/110 129/259/110
f 130/260/111 129/259/111 131/261/111
f 132/263/112 131/312/112 133/264/112
f 136/266/113 134/265/113 133/264/113
f 123/249/114 136/372/114 135/268/114
f 139/270/115 140/289/115 137/271/115
f 142/273/116 138/373/116 137/274/116
f 144/276/117 142/273/117 141/275/117
f 146/278/118 144/374/118 143/279/118
f 146/278/119 145/280/119 147/281/119
f 148/283/120 147/375/120 149/284/120
f 152/286/121 150/285/121 149/284/121
f 139/270/122 152/376/122 151/288/122
f 124/269/123 139/298/123 138/290/123
f 105/291/83 122/252/83 126/254/83
f 106/293/102 123/249/102 122/251/102
f 121/295/124 138/377/124 142/296/124
f 124/269/125 135/268/125 152/297/125
f 112/299/99 136/372/99 123/249/99
f 108/300/101 107/292/101 126/254/101
f 127/257/126 125/256/126 142/302/126
f 109/304/105 108/378/105 128/258/105
f 129/259/127 127/371/127 144/305/127
f 110/307/104 109/379/104 130/308/104
f 129/259/128 146/306/128 148/310/128
f 111/311/100 110/380/100 132/263/100
f 131/312/129 148/381/129 150/313/129
f 111/314/103 134/382/103 136/315/103
f 135/267/130 133/264/130 150/313/130
f 141/383/106 137/384/106 140/318/106
f 140/318/106 151/385/106 149/319/106
f 149/319/106 147/386/106 145/320/106
f 145/320/106 143/387/106 141/383/106
f 141/383/106 140/318/106 145/320/106
