# Blender 5.0.1
# www.blender.org
mtllib House.mtl
o Cube
v -9.822627 -0.054940 9.822627
v -9.822627 16.532801 9.822627
v -9.822627 -0.054940 -9.822627
v -9.822627 16.532801 -9.822627
v 9.822627 -0.054940 9.822627
v 9.822627 16.532801 9.822627
v 9.822627 -0.054940 -9.822627
v 9.822627 16.532801 -9.822627
v 2.937560 13.561906 -9.822627
v 2.937561 13.561906 9.822627
v 0.000000 14.301031 9.822627
v -2.937560 13.561906 9.822627
v -15.136996 16.532799 10.992202
v -15.136996 16.532799 -10.992202
v 9.822627 9.308829 9.822627
v 15.136996 16.532799 -10.992202
v 15.136996 16.532799 10.992202
v 9.822627 9.308829 -9.822627
v -15.136996 19.915691 10.992202
v -15.136996 19.915691 -10.992202
v -9.822627 9.308829 -9.822627
v 15.136996 19.915691 -10.992202
v 15.136996 19.915691 10.992202
v -9.822627 9.308829 9.822627
v -2.971999 -0.054940 -9.822627
v 2.971999 -0.054940 -9.822627
v 0.000000 -0.054940 -9.822627
v -2.903122 25.038954 -9.822627
v 2.903122 25.038954 -9.822627
v 0.000000 26.517204 -9.822627
v 2.971999 -0.054940 9.822627
v -2.971999 -0.054940 9.822627
v 0.000000 -0.054940 9.822627
v 2.903122 25.038954 9.822627
v -2.903122 25.038954 9.822627
v 0.000000 26.517204 9.822627
v -3.568066 25.761475 -10.992202
v 3.568066 25.761475 -10.992202
v 0.000000 26.940445 -10.992202
v 3.568066 25.761475 10.992202
v -3.568066 25.761475 10.992202
v 0.000000 26.940445 10.992202
v 3.548539 28.680126 -10.992202
v -3.548539 28.680126 -10.992202
v 0.000000 29.791786 -10.992202
v -3.548539 28.680126 10.992202
v 3.548539 28.680126 10.992202
v 0.000000 29.791786 10.992202
v 0.000000 14.301031 -9.822627
v -2.937561 13.561906 -9.822627
v 0.000000 14.301031 5.476205
v 2.937561 13.561906 5.476205
v 2.971999 2.084858 5.476205
v -2.937560 13.561906 5.476205
v 0.000000 2.084858 5.476205
v -2.971999 2.084858 5.476205
v -9.822627 -0.054940 -3.274209
v -9.822627 -0.054940 3.274209
v -9.822627 16.532801 3.274209
v -9.822627 16.532801 -3.274209
v -9.822627 9.308829 3.274209
v -9.822627 9.308829 -3.274209
v 9.822627 -0.054940 3.274209
v 9.822627 -0.054940 -3.274209
v 9.822627 16.532801 -3.274209
v 9.822627 16.532801 3.274209
v 9.822627 9.308829 -3.274209
v 9.822627 9.308829 3.274209
v -15.136996 16.532799 3.664067
v -15.136996 16.532799 -3.664067
v 15.136996 16.532799 -3.664067
v 15.136996 16.532799 3.664067
v -15.136996 19.915691 3.664067
v -15.136996 19.915691 -3.664067
v 15.136996 19.915691 -3.664067
v 15.136996 19.915691 3.664067
v -3.548539 28.680126 -3.664067
v -3.548539 28.680126 3.664067
v 0.000000 29.791786 3.664067
v 0.000000 29.791786 -3.664067
v 3.548539 28.680126 3.664067
v 3.548539 28.680126 -3.664067
v -9.822627 14.988459 9.822627
v 2.910484 22.585388 -9.822627
v -2.910484 22.585388 9.822627
v -9.822627 14.988459 -9.822627
v 9.822627 14.988459 9.822627
v 9.822627 14.988459 -9.822627
v 0.000000 23.905628 9.822627
v 2.910485 22.585388 9.822627
v 0.000000 23.905628 -9.822627
v -2.910485 22.585388 -9.822627
v 9.822627 14.988459 -3.274209
v 9.822627 14.988459 3.274209
v -9.822627 14.988459 3.274209
v -9.822627 14.988459 -3.274209
v 4.476923 9.308829 -3.274209
v 4.476923 9.308829 3.274209
v 4.476923 14.988459 -3.274209
v 4.476923 14.988459 3.274209
v -6.878658 9.308829 3.274209
v -6.878658 9.308829 -3.274209
v -6.878658 14.988459 3.274209
v -6.878658 14.988459 -3.274209
vn -1.0000 -0.0000 -0.0000
vn -0.0000 -0.0000 1.0000
vn 1.0000 -0.0000 -0.0000
vn 1.0000 -0.0027 -0.0007
vn -1.0000 -0.0027 -0.0007
vn -0.0000 -0.0000 -1.0000
vn -0.0000 -1.0000 -0.0000
vn -0.2440 -0.9698 -0.0000
vn -0.0000 0.8972 0.4417
vn 0.2440 -0.9698 -0.0000
vn 0.3313 -0.8067 0.4893
vn -0.3313 -0.8067 0.4893
vn -0.3313 -0.8067 -0.4893
vn 0.3313 -0.8067 -0.4893
vn -0.2989 0.9543 -0.0000
vn 0.2989 0.9543 -0.0000
vn -0.3105 -0.3237 -0.8937
vn 0.3105 -0.3237 -0.8937
vn 0.3105 -0.3237 0.8937
vn -0.3105 -0.3237 0.8937
vn -0.6032 0.7976 -0.0000
vn 0.6032 0.7976 -0.0000
vn -0.0000 1.0000 -0.0000
vt 0.763859 0.821241
vt 0.763859 0.843126
vt 0.671062 0.843126
vt 0.671062 0.821241
vt 0.304177 0.622448
vt 0.304177 0.755140
vt 0.206610 0.815410
vt 0.207098 0.622448
vt 0.857951 0.388654
vt 0.857951 0.366769
vt 0.950747 0.366769
vt 0.950747 0.388654
vt 0.659774 0.790809
vt 0.659774 0.983772
vt 0.598182 0.953449
vt 0.598182 0.790809
vt 0.659775 0.511997
vt 0.659774 0.704959
vt 0.598182 0.704959
vt 0.598182 0.542319
vt 0.345376 0.414285
vt 0.344888 0.251646
vt 0.387004 0.251646
vt 0.387004 0.424759
vt 0.763859 0.608064
vt 0.763859 0.740756
vt 0.671062 0.740757
vt 0.671062 0.608064
vt 0.123739 0.943280
vt 0.123355 0.815410
vt 0.164982 0.825884
vt 0.164982 0.961989
vt 0.402862 0.943280
vt 0.402478 0.815410
vt 0.444106 0.825884
vt 0.444106 0.961989
vt 0.583300 0.622448
vt 0.583300 0.755140
vt 0.485733 0.815410
vt 0.486221 0.622448
vt 0.233479 0.008656
vt 0.337325 0.008656
vt 0.337325 0.056594
vt 0.233479 0.056594
vt 0.122867 0.622448
vt 0.025788 0.755140
vt 0.025788 0.622448
vt 0.889382 0.118285
vt 0.889382 0.025488
vt 0.964691 0.008915
vt 0.964691 0.112760
vt 0.659774 0.747884
vt 0.598182 0.747884
vt 0.401990 0.622448
vt 0.304911 0.755140
vt 0.304911 0.622448
vt 0.807185 0.117746
vt 0.807185 0.024950
vt 0.882494 0.008376
vt 0.882494 0.112222
vt 0.485350 0.943280
vt 0.206226 0.943280
vt 0.129633 0.621714
vt 0.025788 0.621714
vt 0.025788 0.573776
vt 0.129633 0.573776
vt 0.429119 0.251646
vt 0.428631 0.414285
vt 0.857951 0.601831
vt 0.857951 0.469139
vt 0.950747 0.469139
vt 0.950747 0.601831
vt 0.387004 0.182994
vt 0.429119 0.182994
vt 0.344888 0.182994
vt 0.444106 0.622448
vt 0.608308 0.337147
vt 0.587992 0.329693
vt 0.595120 0.284081
vt 0.612745 0.284081
vt 0.587992 0.238469
vt 0.608308 0.231015
vt 0.668497 0.329012
vt 0.648181 0.321558
vt 0.655309 0.275946
vt 0.672934 0.275946
vt 0.648181 0.230334
vt 0.668497 0.222880
vt 0.129633 0.367880
vt 0.025788 0.367880
vt 0.025788 0.315185
vt 0.129633 0.315185
vt 0.025788 0.262489
vt 0.129633 0.262489
vt 0.571897 0.350928
vt 0.530537 0.351205
vt 0.547244 0.300643
vt 0.587650 0.300643
vt 0.530537 0.250080
vt 0.571897 0.250357
vt 0.521882 0.349795
vt 0.480522 0.350072
vt 0.497229 0.299510
vt 0.537635 0.299510
vt 0.480522 0.248947
vt 0.521882 0.249224
vt 0.583300 0.835625
vt 0.583300 0.857510
vt 0.485245 0.978049
vt 0.402966 0.978049
vt 0.304911 0.857510
vt 0.304911 0.835625
vt 0.581432 0.461876
vt 0.614341 0.531611
vt 0.581432 0.090016
vt 0.614341 0.020280
vt 0.304177 0.835625
vt 0.304177 0.857510
vt 0.206122 0.978049
vt 0.123843 0.978049
vt 0.025788 0.857510
vt 0.025788 0.835625
vt 0.521243 0.470011
vt 0.554153 0.539747
vt 0.521243 0.098151
vt 0.554153 0.028415
vt 0.399760 0.515146
vt 0.447698 0.515146
vt 0.399760 0.086139
vt 0.447698 0.086139
vt 0.349744 0.514013
vt 0.397683 0.514013
vt 0.349744 0.085006
vt 0.397683 0.085006
vt 0.129633 0.056594
vt 0.025788 0.056594
vt 0.337325 0.262489
vt 0.233479 0.262489
vt 0.337325 0.367880
vt 0.337325 0.573776
vt 0.233479 0.573776
vt 0.233479 0.367880
vt 0.337325 0.315185
vt 0.233479 0.315185
vt 0.672358 0.601831
vt 0.672358 0.469139
vt 0.765154 0.469139
vt 0.765154 0.601831
vt 0.337325 0.621714
vt 0.233479 0.621714
vt 0.807185 0.303339
vt 0.807185 0.210543
vt 0.882494 0.216067
vt 0.882494 0.319913
vt 0.889382 0.303877
vt 0.889382 0.211081
vt 0.964691 0.216606
vt 0.964691 0.320451
vt 0.025788 0.008656
vt 0.129633 0.008656
vt 0.949451 0.608064
vt 0.949451 0.740756
vt 0.856655 0.740756
vt 0.856655 0.608064
vt 0.672358 0.388654
vt 0.672358 0.366769
vt 0.765154 0.366769
vt 0.765154 0.388654
vt 0.949451 0.821241
vt 0.949451 0.843126
vt 0.856655 0.843126
vt 0.856655 0.821241
vt 0.678094 0.093100
vt 0.678094 0.012615
vt 0.719813 0.012615
vt 0.719813 0.093100
vt 0.800425 0.277445
vt 0.800425 0.357930
vt 0.724672 0.357930
vt 0.724672 0.277445
vt 0.164982 0.998997
vt 0.444106 0.998997
vt 0.423346 0.527501
vt 0.503830 0.527501
vt 0.503830 0.620297
vt 0.423346 0.620297
vt 0.800425 0.011368
vt 0.800425 0.104164
vt 0.724672 0.104164
vt 0.724672 0.011368
vt 0.800425 0.184649
vt 0.724672 0.184649
vt 0.422611 0.620297
vt 0.342126 0.620297
vt 0.342126 0.527501
vt 0.422611 0.527501
vt 0.678094 0.185896
vt 0.719813 0.185896
vt 0.678094 0.359178
vt 0.678094 0.266381
vt 0.719813 0.266381
vt 0.719813 0.359178
s 0
f 96/1/1 60/2/1 4/3/1 86/4/1
f 5/5/2 15/6/2 10/7/2 31/8/2
f 94/9/3 66/10/3 6/11/3 87/12/3
f 12/13/4 32/14/4 56/15/4 54/16/4
f 31/17/5 10/18/5 52/19/5 53/20/5
f 54/21/2 56/22/2 55/23/2 51/24/2
f 57/25/1 62/26/1 21/27/1 3/28/1
f 85/29/2 12/30/2 11/31/2 89/32/2
f 84/33/6 9/34/6 49/35/6 91/36/6
f 3/37/6 21/38/6 50/39/6 25/40/6
f 71/41/3 16/42/3 22/43/3 75/44/3
f 32/45/2 12/30/2 24/46/2 1/47/2
f 59/48/7 2/49/7 13/50/7 69/51/7
f 10/18/8 11/52/8 51/53/8 52/19/8
f 26/54/6 9/34/6 18/55/6 7/56/6
f 65/57/7 8/58/7 16/59/7 71/60/7
f 91/36/6 49/35/6 50/39/6 92/61/6
f 89/32/2 11/31/2 10/7/2 90/62/2
f 69/63/1 13/64/1 19/65/1 73/66/1
f 51/24/2 55/23/2 53/67/2 52/68/2
f 63/69/3 68/70/3 15/71/3 5/72/3
f 33/73/9 31/74/9 53/67/9 55/23/9
f 32/75/9 33/73/9 55/23/9 56/22/9
f 11/52/10 12/13/10 54/16/10 51/53/10
f 9/34/6 26/54/6 27/76/6 49/35/6
f 49/35/6 27/76/6 25/40/6 50/39/6
f 41/77/11 35/78/11 36/79/11 42/80/11
f 42/80/12 36/79/12 34/81/12 40/82/12
f 38/83/13 29/84/13 30/85/13 39/86/13
f 39/86/14 30/85/14 28/87/14 37/88/14
f 78/89/15 46/90/15 48/91/15 79/92/15
f 79/92/16 48/91/16 47/93/16 81/94/16
f 43/95/6 38/96/6 39/97/6 45/98/6
f 45/98/6 39/97/6 37/99/6 44/100/6
f 46/101/2 41/102/2 42/103/2 48/104/2
f 48/104/2 42/103/2 40/105/2 47/106/2
f 86/107/6 4/108/6 28/109/6 92/61/6
f 84/33/6 29/110/6 8/111/6 88/112/6
f 8/113/17 29/84/17 38/83/17 16/114/17
f 28/87/18 4/115/18 14/116/18 37/88/18
f 87/117/2 6/118/2 34/119/2 90/62/2
f 85/29/2 35/120/2 2/121/2 83/122/2
f 2/123/19 35/78/19 41/77/19 13/124/19
f 34/81/20 6/125/20 17/126/20 40/82/20
f 16/127/6 38/96/6 43/95/6 22/128/6
f 37/99/6 14/129/6 20/130/6 44/100/6
f 13/131/2 41/102/2 46/101/2 19/132/2
f 40/105/2 17/133/2 23/134/2 47/106/2
f 78/89/21 73/66/21 19/65/21 46/90/21
f 76/135/22 81/94/22 47/93/22 23/136/22
f 22/43/22 43/137/22 82/138/22 75/44/22
f 75/44/22 82/138/22 81/94/22 76/135/22
f 44/139/21 20/140/21 74/141/21 77/142/21
f 77/142/21 74/141/21 73/66/21 78/89/21
f 45/143/16 80/144/16 82/138/16 43/137/16
f 80/144/16 79/92/16 81/94/16 82/138/16
f 44/139/15 77/142/15 80/144/15 45/143/15
f 77/142/15 78/89/15 79/92/15 80/144/15
f 7/145/3 18/146/3 67/147/3 64/148/3
f 64/148/3 67/147/3 68/70/3 63/69/3
f 14/149/1 70/150/1 74/141/1 20/140/1
f 70/150/1 69/63/1 73/66/1 74/141/1
f 6/151/7 66/152/7 72/153/7 17/154/7
f 66/152/7 65/57/7 71/60/7 72/153/7
f 4/155/7 60/156/7 70/157/7 14/158/7
f 60/156/7 59/48/7 69/51/7 70/157/7
f 17/159/3 72/160/3 76/135/3 23/136/3
f 72/160/3 71/41/3 75/44/3 76/135/3
f 1/161/1 24/162/1 61/163/1 58/164/1
f 58/164/1 61/163/1 62/26/1 57/25/1
f 88/165/3 8/166/3 65/167/3 93/168/3
f 93/168/3 65/167/3 66/10/3 94/9/3
f 83/169/1 2/170/1 59/171/1 95/172/1
f 95/172/1 59/171/1 60/2/1 96/1/1
f 61/173/6 95/174/6 103/175/6 101/176/6
f 24/162/1 83/169/1 95/172/1 61/163/1
f 67/177/2 93/178/2 99/179/2 97/180/2
f 18/146/3 88/165/3 93/168/3 67/147/3
f 12/30/2 85/29/2 83/122/2 24/46/2
f 15/6/2 87/117/2 90/62/2 10/7/2
f 9/34/6 84/33/6 88/112/6 18/55/6
f 21/38/6 86/107/6 92/61/6 50/39/6
f 36/181/2 89/32/2 90/62/2 34/119/2
f 30/182/6 91/36/6 92/61/6 28/109/6
f 29/110/6 84/33/6 91/36/6 30/182/6
f 35/120/2 85/29/2 89/32/2 36/181/2
f 68/70/3 94/9/3 87/12/3 15/71/3
f 62/26/1 96/1/1 86/4/1 21/27/1
f 97/183/3 99/184/3 100/185/3 98/186/3
f 93/187/7 94/188/7 100/189/7 99/190/7
f 94/188/6 68/191/6 98/192/6 100/189/6
f 68/191/23 67/177/23 97/180/23 98/192/23
f 101/193/1 103/194/1 104/195/1 102/196/1
f 62/197/23 61/173/23 101/176/23 102/198/23
f 95/199/7 96/200/7 104/201/7 103/202/7
f 96/200/2 62/197/2 102/198/2 104/201/2
