# Blender 5.0.1
# www.blender.org
mtllib moon.mtl
o Cube.002
v -0.646605 -1.013409 0.843097
v -0.646605 1.013400 0.843097
v -0.646605 -1.013409 -0.843087
v -0.646605 1.013400 -0.843087
v 0.511157 -1.360362 0.843097
v 0.511157 1.360352 0.843097
v 0.511157 -1.360362 -0.843087
v 0.511157 1.360352 -0.843087
v -0.692917 -1.222951 -0.500202
v -0.747344 -1.336952 0.000005
v -0.692917 -1.222951 0.500211
v -0.840432 -0.524570 0.966076
v -0.926424 -0.000005 1.027848
v -0.840432 0.524561 0.966076
v -0.692917 1.222941 0.500211
v -0.747344 1.336942 0.000005
v -0.692917 1.222941 -0.500202
v -0.840432 0.524561 -0.966066
v -0.926423 -0.000005 -1.027839
v -0.840432 -0.524570 -0.966066
v 0.612534 -1.508935 -0.966066
v 0.292895 -1.538239 -1.027839
v -0.312555 -1.296377 -0.966066
v -0.312555 1.296367 -0.966066
v 0.292893 1.538227 -1.027839
v 0.612534 1.508925 -0.966066
v 0.022838 0.682798 -0.966066
v -0.199192 -0.000005 -1.027839
v 0.022838 -0.682808 -0.966066
v 0.981763 -1.657218 0.500211
v 1.271530 -1.657371 0.000005
v 0.981763 -1.657218 -0.500202
v 0.981763 1.657209 -0.500202
v 1.271528 1.657363 0.000005
v 0.981763 1.657209 0.500211
v 0.022838 0.682798 0.966076
v -0.199193 -0.000005 1.027848
v 0.022838 -0.682808 0.966076
v -0.312555 -1.296377 0.966076
v 0.292895 -1.538239 1.027848
v 0.612534 -1.508935 0.966076
v 0.612534 1.508925 0.966076
v 0.292895 1.538229 1.027848
v -0.312555 1.296367 0.966076
v -0.976382 -0.557433 0.533104
v -1.069927 -0.000005 0.561741
v -0.976382 0.557423 0.533104
v -1.040182 -0.590178 0.000005
v -1.137437 -0.000005 0.000005
v -1.040182 0.590168 0.000005
v -0.976382 -0.557433 -0.533095
v -1.069927 -0.000005 -0.561731
v -0.976382 0.557423 -0.533095
v -0.591705 -0.584117 -1.229206
v -0.698796 -0.000005 -1.318303
v -0.591705 0.584108 -1.229206
v -0.201766 -0.655467 -1.318303
v -0.351577 -0.000005 -1.415557
v -0.201766 0.655458 -1.318303
v 0.072173 -0.653092 -1.229206
v -0.097773 -0.000005 -1.318303
v 0.072173 0.653083 -1.229206
v -0.078586 -0.830733 -0.533095
v -0.381018 -0.000005 -0.561731
v -0.078586 0.830723 -0.533095
v -0.062022 -0.911115 0.000005
v -0.384971 -0.000005 0.000005
v -0.062022 0.911106 0.000005
v -0.078586 -0.830733 0.533104
v -0.381018 -0.000005 0.561741
v -0.078586 0.830723 0.533104
v 0.072173 -0.653092 1.229216
v -0.097773 -0.000005 1.318312
v 0.072173 0.653083 1.229216
v -0.201766 -0.655467 1.318312
v -0.351577 -0.000005 1.415567
v -0.201766 0.655458 1.318312
v -0.591705 -0.584117 1.229216
v -0.698796 -0.000005 1.318312
v -0.591705 0.584108 1.229216
v 0.094656 -1.958323 -0.533095
v 1.119542 -1.975632 -0.561731
v 1.447314 -1.809051 -0.533095
v 0.300052 -2.140259 0.000005
v 1.382301 -1.999773 0.000005
v 1.753752 -1.833997 0.000005
v 0.094656 -1.958323 0.533104
v 1.119542 -1.975632 0.561741
v 1.447313 -1.809052 0.533104
v 1.447313 1.809043 -0.533095
v 1.119542 1.975623 -0.561731
v 0.094656 1.958313 -0.533095
v 1.753752 1.833987 0.000005
v 1.382301 1.999763 0.000005
v 0.300052 2.140249 0.000005
v 1.447314 1.809041 0.533104
v 1.119542 1.975623 0.561741
v 0.094656 1.958313 0.533104
vn -0.9786 -0.1657 0.1223
vn -0.9786 0.1657 0.1223
vn -0.9786 -0.1657 -0.1223
vn -0.9786 0.1657 -0.1223
vn -0.8573 -0.3985 0.3259
vn -0.9374 -0.1804 0.2980
vn -0.9374 0.1804 0.2980
vn -0.8573 0.3985 0.3259
vn -0.9130 0.3762 0.1579
vn -0.9130 0.3762 -0.1579
vn -0.8573 0.3985 -0.3259
vn -0.9374 0.1804 -0.2980
vn -0.9374 -0.1804 -0.2980
vn -0.8573 -0.3985 -0.3259
vn -0.9130 -0.3762 -0.1579
vn -0.9130 -0.3762 0.1579
vn -0.2581 -0.1957 -0.9461
vn -0.2581 0.1957 -0.9461
vn 0.3327 -0.0528 -0.9415
vn 0.3327 0.0528 -0.9416
vn -0.6619 -0.4527 -0.5974
vn -0.7515 -0.2157 -0.6234
vn -0.7515 0.2157 -0.6235
vn -0.6619 0.4527 -0.5974
vn -0.2657 0.4286 -0.8635
vn 0.2511 0.1548 -0.9555
vn 0.2511 0.1547 -0.9555
vn 0.8062 -0.5755 0.1376
vn 0.9166 -0.2989 0.2657
vn 0.9165 -0.2989 0.2657
vn 0.9166 0.2989 0.2656
vn 0.8062 0.5754 0.1375
vn 0.2511 -0.1548 -0.9555
vn -0.2658 -0.4286 -0.8635
vn 0.9410 0.3381 0.0140
vn 0.9410 -0.3381 0.0140
vn 0.9410 0.3381 -0.0140
vn 0.9410 -0.3381 -0.0140
vn 0.6899 0.7191 0.0839
vn 0.8848 0.3265 0.3325
vn 0.8848 -0.3265 0.3325
vn 0.6899 -0.7190 0.0840
vn 0.5474 -0.8312 -0.0975
vn 0.5474 -0.8312 0.0975
vn 0.6899 -0.7190 -0.0840
vn 0.8848 -0.3265 -0.3325
vn 0.8848 0.3265 -0.3325
vn 0.6899 0.7191 -0.0839
vn 0.5474 0.8312 0.0976
vn 0.5474 0.8312 -0.0976
vn 0.3327 -0.0528 0.9415
vn 0.3327 0.0528 0.9416
vn -0.2581 -0.1957 0.9461
vn -0.2582 0.1957 0.9461
vn 0.8062 0.5754 -0.1375
vn 0.8062 0.5755 -0.1375
vn 0.9166 0.2989 -0.2656
vn 0.9165 -0.2989 -0.2657
vn 0.9166 -0.2989 -0.2657
vn 0.8062 -0.5755 -0.1376
vn 0.2511 0.1547 0.9555
vn -0.2657 0.4286 0.8635
vn -0.6619 0.4527 0.5974
vn -0.7515 0.2157 0.6234
vn -0.7515 -0.2157 0.6234
vn -0.6619 -0.4527 0.5974
vn -0.2658 -0.4286 0.8635
vn 0.2511 -0.1548 0.9555
vn 0.0543 -0.9768 -0.2071
vn 0.4233 -0.8682 -0.2590
vn 0.0543 -0.9768 0.2071
vn 0.4233 -0.8682 0.2590
vn -0.6408 -0.6412 -0.4221
vn -0.6408 -0.6412 -0.4222
vn -0.1523 -0.7225 -0.6744
vn -0.1523 -0.7224 -0.6745
vn -0.1523 -0.7224 -0.6744
vn 0.2573 -0.4578 -0.8510
vn 0.4509 0.8895 -0.0742
vn 0.3182 0.9343 -0.1609
vn 0.3182 0.9343 0.1609
vn 0.4509 0.8895 0.0742
vn 0.2573 -0.4578 0.8510
vn -0.1523 -0.7225 0.6744
vn -0.1523 -0.7224 0.6745
vn -0.6408 -0.6412 0.4222
vn -0.6389 -0.7592 0.1241
vn -0.6389 -0.7592 -0.1241
vn 0.4233 0.8682 -0.2590
vn 0.0543 0.9768 -0.2071
vn 0.4233 0.8682 0.2590
vn 0.0543 0.9768 0.2071
vn 0.4509 -0.8895 -0.0743
vn 0.2573 0.4577 -0.8510
vn -0.1522 0.7225 -0.6744
vn -0.6408 0.6412 -0.4221
vn -0.6409 0.6412 -0.4221
vn -0.6389 0.7593 -0.1241
vn -0.6389 0.7592 -0.1241
vn -0.6390 0.7591 -0.1240
vn -0.6389 0.7593 0.1241
vn -0.6389 0.7592 0.1241
vn -0.6408 0.6412 0.4221
vn -0.1522 0.7225 0.6744
vn 0.2573 0.4577 0.8510
vn 0.4509 -0.8895 0.0742
vn 0.4509 -0.8895 0.0743
vn 0.3182 -0.9343 0.1609
vn 0.3182 -0.9343 -0.1609
vn 0.3327 -0.0528 -0.9416
vn 0.3327 0.0528 -0.9415
vn -0.7515 -0.2157 -0.6235
vn -0.7515 0.2157 -0.6234
vn -0.2658 0.4286 -0.8635
vn 0.8062 -0.5755 0.1375
vn 0.8062 -0.5754 0.1375
vn 0.9166 -0.2989 0.2656
vn 0.9165 0.2989 0.2657
vn 0.9166 0.2989 0.2657
vn 0.8062 0.5755 0.1376
vn 0.2511 -0.1547 -0.9555
vn -0.2657 -0.4286 -0.8635
vn 0.6899 0.7190 0.0840
vn 0.6899 -0.7191 0.0839
vn 0.5474 -0.8312 -0.0976
vn 0.5474 -0.8312 0.0976
vn 0.6899 -0.7191 -0.0839
vn 0.6899 0.7190 -0.0840
vn 0.5474 0.8312 0.0975
vn 0.5474 0.8312 -0.0975
vn 0.3327 -0.0528 0.9416
vn 0.3327 0.0528 0.9415
vn -0.2581 0.1957 0.9461
vn 0.8062 0.5755 -0.1376
vn 0.9166 0.2989 -0.2657
vn 0.9165 0.2989 -0.2657
vn 0.9166 -0.2989 -0.2656
vn 0.8062 -0.5754 -0.1375
vn 0.2511 0.1548 0.9555
vn -0.2658 0.4286 0.8635
vn -0.7515 -0.2157 0.6235
vn -0.2657 -0.4286 0.8635
vn 0.2511 -0.1547 0.9555
vn -0.1522 -0.7225 -0.6744
vn 0.2573 -0.4577 -0.8510
vn 0.4509 0.8895 -0.0743
vn 0.4509 0.8895 0.0743
vn 0.2573 -0.4577 0.8510
vn -0.1522 -0.7225 0.6744
vn -0.6408 -0.6412 0.4221
vn -0.6409 -0.6412 0.4221
vn -0.6390 -0.7591 0.1240
vn -0.6389 -0.7593 0.1241
vn -0.6389 -0.7593 -0.1241
vn 0.4509 -0.8895 -0.0742
vn 0.2573 0.4578 -0.8510
vn -0.1523 0.7225 -0.6744
vn -0.1523 0.7224 -0.6745
vn -0.6408 0.6412 -0.4222
vn -0.6408 0.6412 0.4222
vn -0.1523 0.7224 0.6745
vn -0.1523 0.7224 0.6744
vn -0.1523 0.7225 0.6744
vn 0.2573 0.4578 0.8510
vt 0.756727 0.640462
vt 0.839833 0.576185
vt 0.832253 0.651314
vt 0.208392 0.515745
vt 0.146749 0.440001
vt 0.223644 0.443561
vt 0.904764 0.665088
vt 0.068244 0.519531
vt 0.075967 0.447550
vt 0.700732 0.712062
vt 0.747902 0.740080
vt 0.693092 0.637778
vt 0.759957 0.568703
vt 0.272386 0.521597
vt 0.291408 0.453713
vt 0.251208 0.594444
vt 0.198131 0.616055
vt 0.134506 0.516171
vt 0.066630 0.619607
vt 0.029565 0.600432
vt 0.018412 0.528458
vt 0.021195 0.461012
vt 0.915947 0.594651
vt 0.961363 0.682404
vt 0.934853 0.751008
vt 0.886806 0.763186
vt 0.817930 0.760190
vt 0.327989 0.393233
vt 0.365452 0.314641
vt 0.384536 0.403954
vt 0.327989 0.229485
vt 0.314740 0.313614
vt 0.399140 0.311757
vt 0.421215 0.400851
vt 0.384536 0.220203
vt 0.990476 0.715497
vt 0.940283 0.813251
vt 0.287775 0.379973
vt 0.287775 0.232918
vt 0.276941 0.308045
vt 0.312523 0.161144
vt 0.361903 0.123104
vt 0.448165 0.088667
vt 0.421215 0.217766
vt 0.308305 0.801270
vt 0.389789 0.705384
vt 0.343401 0.813152
vt 0.313527 0.897247
vt 0.276941 0.876378
vt 0.593576 0.159457
vt 0.623924 0.078435
vt 0.630814 0.156076
vt 0.646407 0.265591
vt 0.628559 0.288704
vt 0.448165 0.519891
vt 0.491810 0.513462
vt 0.361903 0.486526
vt 0.691812 0.155421
vt 0.769697 0.057441
vt 0.767200 0.164149
vt 0.402630 0.825380
vt 0.448357 0.953907
vt 0.371645 0.932631
vt 0.843030 0.156931
vt 0.548464 0.865017
vt 0.525313 0.974397
vt 0.694235 0.344998
vt 0.690027 0.057123
vt 0.457598 0.643425
vt 0.477773 0.835979
vt 0.594434 0.680617
vt 0.620425 0.768070
vt 0.607679 0.884982
vt 0.594703 0.973670
vt 0.849368 0.058714
vt 0.904848 0.158812
vt 0.885556 0.267979
vt 0.836122 0.346415
vt 0.765186 0.380733
vt 0.607700 0.433563
vt 0.526187 0.386658
vt 0.551910 0.354912
vt 0.671633 0.502535
vt 0.583732 0.463648
vt 0.503450 0.431440
vt 0.633064 0.534703
vt 0.556900 0.497326
vt 0.942252 0.162939
vt 0.902593 0.291441
vt 0.915480 0.081347
vt 0.644567 0.892665
vt 0.637576 0.974397
vt 0.696829 0.470369
vt 0.818901 0.518655
vt 0.343907 0.588011
vt 0.274515 0.654175
vt 0.316555 0.548004
vt 0.339893 0.471409
vt 0.644567 0.581420
vt 0.649133 0.658716
vt 0.672013 0.768625
vt 0.454828 0.330321
vt 0.477570 0.246716
vt 0.509436 0.213389
vt 0.115879 0.094392
vt 0.193019 0.195471
vt 0.115905 0.199262
vt 0.120512 0.044240
vt 0.196617 0.069408
vt 0.275122 0.094392
vt 0.267030 0.199262
vt 0.271637 0.044241
vt 0.410389 0.568703
vt 0.554885 0.568582
vt 0.689165 0.412488
vt 0.764714 0.452127
vt 0.840383 0.413998
vt 0.510970 0.105218
vt 0.715319 0.887143
vt 0.644567 0.843997
vt 0.863356 0.911769
vt 0.109018 0.387142
vt 0.184934 0.365114
vt 0.185060 0.422317
vt 0.104886 0.335157
vt 0.183879 0.223900
vt 0.260244 0.387142
vt 0.264235 0.335157
vt 0.379274 0.676744
vt 0.491810 0.090453
vt 0.554885 0.014740
vt 0.600338 0.036459
vt 0.410389 0.019714
vt 0.020541 0.661036
vt 0.077219 0.769460
vt 0.126701 0.626520
vt 0.151460 0.805480
vt 0.217367 0.765673
vt 0.303222 0.731704
vt 0.267039 0.851892
vt 0.949358 0.454482
vt 0.844264 0.480148
vt 0.959321 0.404054
vt 0.643552 0.748574
vt 0.535000 0.633233
vt 0.616597 0.621302
vt 0.470762 0.581665
vt 0.691241 0.569611
vt 0.976665 0.617091
vt 0.582731 0.090280
vt 0.956679 0.094014
vt 0.197363 0.014793
vt 0.600338 0.543602
vt 0.557897 0.084239
vt 0.682638 0.971826
vt 0.782112 0.936886
vt 0.107647 0.212601
vt 0.258873 0.212601
vt 0.553709 0.568703
s 0
f 45/1/1 49/2/1 48/3/1
f 47/4/2 49/5/2 46/6/2
f 49/2/3 51/7/3 48/3/3
f 49/5/4 53/8/4 52/9/4
f 1/10/5 45/1/5 11/11/5
f 12/12/6 46/13/6 45/1/6
f 14/14/7 46/6/7 13/15/7
f 2/16/8 47/4/8 14/14/8
f 15/17/9 50/18/9 47/4/9
f 50/18/10 17/19/10 53/8/10
f 53/8/11 4/20/11 18/21/11
f 52/9/12 18/21/12 19/22/12
f 52/23/13 20/24/13 51/7/13
f 51/7/14 3/25/14 9/26/14
f 48/3/15 9/26/15 10/27/15
f 11/11/16 48/3/16 10/27/16
f 54/28/17 58/29/17 57/30/17
f 56/31/18 58/29/18 55/32/18
f 57/30/19 61/33/19 60/34/19
f 59/35/20 61/33/20 58/29/20
f 3/25/21 54/36/21 23/37/21
f 20/38/22 55/32/22 54/28/22
f 18/39/23 55/32/23 19/40/23
f 4/41/24 56/31/24 18/39/24
f 24/42/25 59/35/25 56/31/25
f 25/43/26 62/44/27 59/35/27
f 62/45/28 8/46/28 27/47/28
f 62/45/29 28/48/29 61/49/30
f 60/50/31 28/51/31 29/52/31
f 60/50/32 7/53/32 21/54/32
f 22/55/33 60/34/33 21/56/33
f 23/57/34 57/30/34 22/55/34
f 63/58/35 67/59/35 66/60/35
f 65/61/36 67/62/36 64/63/36
f 67/59/37 69/64/37 66/60/37
f 67/62/38 71/65/38 70/66/38
f 7/53/39 63/58/39 32/67/39
f 29/52/40 64/68/40 63/58/40
f 27/47/41 64/63/41 28/48/41
f 8/46/42 65/61/42 27/47/42
f 33/69/43 68/70/43 65/61/43
f 68/70/44 35/71/44 71/65/44
f 71/65/45 6/72/45 36/73/45
f 70/66/46 36/73/46 37/74/46
f 70/75/47 38/76/47 69/64/47
f 69/64/48 5/77/48 30/78/48
f 66/60/49 30/78/49 31/79/49
f 32/67/50 66/60/50 31/79/50
f 73/80/51 75/81/51 72/82/51
f 73/80/52 77/83/52 76/84/52
f 76/84/53 78/85/53 75/81/53
f 76/84/54 80/86/54 79/87/54
f 5/77/55 72/88/56 41/89/56
f 37/90/57 72/88/57 38/76/57
f 37/74/58 74/91/58 73/92/59
f 6/72/60 74/91/60 36/73/60
f 74/93/61 43/94/61 77/83/61
f 77/95/62 44/96/62 80/97/62
f 80/97/63 2/16/63 14/14/63
f 79/98/64 14/14/64 13/15/64
f 79/99/65 12/12/65 78/100/65
f 78/100/66 1/10/66 39/101/66
f 75/81/67 39/102/67 40/103/67
f 72/82/68 40/103/68 41/104/68
f 82/105/69 84/106/69 81/107/69
f 83/108/70 85/109/70 82/105/70
f 84/106/71 88/110/71 87/111/71
f 85/109/72 89/112/72 88/110/72
f 23/37/73 9/26/74 3/25/74
f 22/55/75 81/113/76 23/57/77
f 21/56/78 82/114/78 22/55/78
f 21/54/79 32/67/79 83/115/79
f 83/115/80 31/79/80 86/116/80
f 31/79/81 89/117/81 86/116/81
f 30/78/82 41/89/82 89/117/82
f 88/118/83 41/104/83 40/103/83
f 87/119/84 40/120/84 39/101/85
f 11/11/86 39/101/86 1/10/86
f 10/27/87 87/119/87 11/11/87
f 81/121/88 10/27/88 9/26/88
f 90/122/89 94/123/89 93/124/89
f 91/125/90 95/126/90 94/123/90
f 94/123/91 96/127/91 93/124/91
f 95/126/92 97/128/92 94/123/92
f 26/129/93 33/69/93 8/46/93
f 26/130/94 91/131/94 90/132/94
f 25/43/95 92/133/95 91/131/95
f 24/134/96 17/19/96 92/135/97
f 92/135/98 16/136/99 95/137/100
f 16/136/101 98/138/101 95/137/102
f 15/17/103 44/96/103 98/138/103
f 98/138/104 43/139/104 97/140/104
f 97/141/105 42/142/105 96/143/105
f 35/71/106 42/144/107 6/72/107
f 34/145/108 96/146/108 35/71/108
f 90/147/109 34/145/109 33/69/109
f 45/1/1 46/13/1 49/2/1
f 47/4/2 50/18/2 49/5/2
f 49/2/3 52/23/3 51/7/3
f 49/5/4 50/18/4 53/8/4
f 1/10/5 12/12/5 45/1/5
f 12/12/6 13/148/6 46/13/6
f 14/14/7 47/4/7 46/6/7
f 2/16/8 15/17/8 47/4/8
f 15/17/9 16/136/9 50/18/9
f 50/18/10 16/136/10 17/19/10
f 53/8/11 17/19/11 4/20/11
f 52/9/12 53/8/12 18/21/12
f 52/23/13 19/149/13 20/24/13
f 51/7/14 20/24/14 3/25/14
f 48/3/15 51/7/15 9/26/15
f 11/11/16 45/1/16 48/3/16
f 54/28/17 55/32/17 58/29/17
f 56/31/18 59/35/18 58/29/18
f 57/30/110 58/29/110 61/33/110
f 59/35/111 62/44/111 61/33/111
f 3/25/21 20/24/21 54/36/21
f 20/38/112 19/40/112 55/32/112
f 18/39/113 56/31/113 55/32/113
f 4/41/24 24/42/24 56/31/24
f 24/42/114 25/43/114 59/35/114
f 25/43/26 26/130/26 62/44/26
f 62/45/115 26/129/115 8/46/116
f 62/45/117 27/47/117 28/48/117
f 60/50/118 61/150/119 28/51/119
f 60/50/120 29/52/120 7/53/120
f 22/55/121 57/30/121 60/34/121
f 23/57/122 54/28/122 57/30/122
f 63/58/35 64/68/35 67/59/35
f 65/61/36 68/70/36 67/62/36
f 67/59/37 70/75/37 69/64/37
f 67/62/38 68/70/38 71/65/38
f 7/53/123 29/52/123 63/58/123
f 29/52/40 28/51/40 64/68/40
f 27/47/41 65/61/41 64/63/41
f 8/46/124 33/69/124 65/61/124
f 33/69/125 34/145/125 68/70/43
f 68/70/126 34/145/126 35/71/126
f 71/65/127 35/71/127 6/72/127
f 70/66/46 71/65/46 36/73/46
f 70/75/47 37/90/47 38/76/47
f 69/64/128 38/76/128 5/77/128
f 66/60/129 69/64/129 30/78/129
f 32/67/130 63/58/130 66/60/130
f 73/80/131 76/84/131 75/81/131
f 73/80/132 74/93/132 77/83/132
f 76/84/53 79/87/53 78/85/53
f 76/84/133 77/83/133 80/86/133
f 5/77/134 38/76/134 72/88/134
f 37/90/135 73/151/136 72/88/135
f 37/74/137 36/73/137 74/91/137
f 6/72/138 42/144/138 74/91/138
f 74/93/139 42/142/139 43/94/139
f 77/95/140 43/139/140 44/96/140
f 80/97/63 44/96/63 2/16/63
f 79/98/64 80/97/64 14/14/64
f 79/99/141 13/148/141 12/12/141
f 78/100/66 12/12/66 1/10/66
f 75/81/142 78/85/142 39/102/142
f 72/82/143 75/81/143 40/103/68
f 82/105/69 85/109/69 84/106/69
f 83/108/70 86/152/70 85/109/70
f 84/106/71 85/109/71 88/110/71
f 85/109/72 86/152/72 89/112/72
f 23/37/73 81/121/73 9/26/73
f 22/55/144 82/114/144 81/113/144
f 21/56/145 83/153/145 82/114/145
f 21/54/146 7/53/146 32/67/79
f 83/115/80 32/67/80 31/79/80
f 31/79/81 30/78/81 89/117/81
f 30/78/147 5/77/147 41/89/147
f 88/118/148 89/154/148 41/104/148
f 87/119/149 88/155/149 40/120/149
f 11/11/150 87/119/151 39/101/150
f 10/27/87 84/156/152 87/119/153
f 81/121/154 84/156/88 10/27/154
f 90/122/89 91/125/89 94/123/89
f 91/125/90 92/157/90 95/126/90
f 94/123/91 97/128/91 96/127/91
f 95/126/92 98/158/92 97/128/92
f 26/129/155 90/147/155 33/69/155
f 26/130/156 25/43/156 91/131/156
f 25/43/157 24/42/158 92/133/157
f 24/134/159 4/20/159 17/19/159
f 92/135/99 17/19/99 16/136/99
f 16/136/102 15/17/102 98/138/102
f 15/17/160 2/16/160 44/96/103
f 98/138/161 44/96/162 43/139/163
f 97/141/164 43/94/164 42/142/164
f 35/71/106 96/146/106 42/144/106
f 34/145/108 93/159/108 96/146/108
f 90/147/109 93/159/109 34/145/109
