# Blender 5.0.1
# www.blender.org
o Cylinder
v 0.000000 0.007778 -0.055420
v -0.254565 0.818630 -0.055420
v 0.039188 0.007778 -0.039188
v -0.232935 0.851308 -0.039188
v 0.055420 0.007778 0.000000
v -0.223975 0.864843 -0.000000
v 0.039188 0.007778 0.039188
v -0.232935 0.851308 0.039188
v 0.000000 0.007778 0.055420
v -0.254565 0.818630 0.055420
v -0.039188 0.007778 0.039188
v -0.276195 0.785953 0.039188
v -0.055420 0.007778 0.000000
v -0.285155 0.772417 -0.000000
v -0.039188 0.007778 -0.039188
v -0.276195 0.785953 -0.039188
v -0.050884 0.220364 -0.055420
v -0.002378 0.415263 -0.055420
v -0.007286 0.584942 -0.055420
v -0.086633 0.707472 -0.055420
v -0.065003 0.740149 -0.039188
v 0.029017 0.599698 -0.039188
v 0.035329 0.404590 -0.039188
v -0.012278 0.213636 -0.039188
v -0.056044 0.753684 -0.000000
v 0.044055 0.605810 -0.000000
v 0.050947 0.400169 -0.000000
v 0.003713 0.210850 0.000000
v -0.065003 0.740149 0.039188
v 0.029017 0.599698 0.039188
v 0.035329 0.404590 0.039188
v -0.012278 0.213636 0.039188
v -0.086633 0.707472 0.055420
v -0.007286 0.584942 0.055420
v -0.002378 0.415263 0.055420
v -0.050884 0.220364 0.055420
v -0.108263 0.674794 0.039188
v -0.043589 0.570187 0.039188
v -0.040084 0.425936 0.039188
v -0.089490 0.227091 0.039188
v -0.117223 0.661259 -0.000000
v -0.058627 0.564075 -0.000000
v -0.055702 0.430356 0.000000
v -0.105481 0.229878 0.000000
v -0.108263 0.674794 -0.039188
v -0.043589 0.570187 -0.039188
v -0.040084 0.425936 -0.039188
v -0.089490 0.227091 -0.039188
v -0.366238 0.969196 -0.055420
v -0.328103 0.978219 -0.039188
v -0.312307 0.981956 -0.000000
v -0.328103 0.978219 0.039188
v -0.366238 0.969196 0.055420
v -0.404373 0.960174 0.039188
v -0.420169 0.956436 -0.000000
v -0.404373 0.960174 -0.039188
v -0.366237 0.969196 -0.976506
v 0.305705 1.128176 -0.690494
v 0.584033 1.194028 -0.000000
v 0.305704 1.128177 0.690494
v -0.366238 0.969196 0.976506
v -1.038181 0.810217 0.690494
v -1.316508 0.744365 -0.000000
v -1.038181 0.810217 -0.690494
v -0.425255 1.218638 -0.734026
v 0.079835 1.338141 -0.519034
v 0.289049 1.387641 -0.000000
v 0.079834 1.338142 0.519034
v -0.425255 1.218639 0.734025
v -0.930345 1.099136 0.519034
v -1.139560 1.049636 -0.000000
v -0.930345 1.099136 -0.519034
v -0.487248 1.480657 -0.214082
v -0.339937 1.515511 -0.151379
v -0.278918 1.529948 -0.000000
v -0.339937 1.515511 0.151378
v -0.487248 1.480657 0.214081
v -0.634560 1.445804 0.151378
v -0.695578 1.431367 -0.000000
v -0.634560 1.445804 -0.151379
vn 0.2112 0.3191 -0.9239
vn 0.5099 0.7704 -0.3827
vn 0.5099 0.7704 0.3827
vn 0.2112 0.3191 0.9239
vn -0.2112 -0.3191 0.9239
vn -0.5099 -0.7704 0.3827
vn -0.3275 -0.2418 0.9134
vn -0.5099 -0.7704 -0.3827
vn -0.2112 -0.3191 -0.9239
vn -0.0000 -1.0000 -0.0000
vn -0.3902 -0.0914 -0.9162
vn -0.3722 0.0925 -0.9235
vn -0.4012 -0.0108 -0.9159
vn -0.3380 -0.2143 -0.9164
vn -0.9075 -0.2063 -0.3658
vn -0.8968 0.2228 -0.3822
vn -0.9309 -0.0215 -0.3645
vn -0.7945 -0.4854 -0.3649
vn -0.9075 -0.2063 0.3658
vn -0.8970 0.2227 0.3819
vn -0.9309 -0.0215 0.3646
vn -0.7945 -0.4854 0.3649
vn -0.3902 -0.0914 0.9162
vn -0.3722 0.0925 0.9235
vn -0.4012 -0.0108 0.9159
vn -0.3380 -0.2143 0.9164
vn 0.3904 0.0955 0.9157
vn 0.3722 -0.0926 0.9235
vn 0.4011 0.0123 0.9160
vn 0.3336 0.2199 0.9167
vn 0.9034 0.2279 0.3633
vn 0.8966 -0.2236 0.3821
vn 0.9306 0.0307 0.3647
vn 0.7718 0.5196 0.3666
vn 0.9034 0.2279 -0.3633
vn 0.8966 -0.2236 -0.3821
vn 0.9306 0.0306 -0.3647
vn 0.7718 0.5196 -0.3666
vn 0.3904 0.0955 -0.9157
vn 0.3719 -0.0926 -0.9237
vn 0.4011 0.0123 -0.9159
vn 0.3336 0.2199 -0.9167
vn 0.2302 -0.9731 -0.0000
vn -0.3274 -0.2418 -0.9134
vn 0.3263 0.2433 -0.9134
vn 0.7459 0.5609 0.3592
vn -0.7521 -0.5525 0.3593
vn 0.3264 0.2433 0.9134
vn -0.7521 -0.5525 -0.3593
vn 0.7459 0.5609 -0.3592
vn -0.4319 0.5740 -0.6956
vn -0.3829 0.8058 0.4517
vn -0.8285 0.4802 0.2881
vn 0.1289 0.7067 0.6956
vn 0.5254 0.8006 -0.2881
vn -0.8285 0.4802 -0.2881
vn -0.4319 0.5740 0.6956
vn 0.5254 0.8006 0.2881
vn 0.1289 0.7067 -0.6956
vn -0.2302 0.9731 -0.0000
vn 0.2387 0.9529 0.1871
vn -0.0188 0.8920 -0.4517
vn -0.3829 0.8058 -0.4517
vn -0.6404 0.7449 0.1871
vn -0.0188 0.8920 0.4517
vn 0.2387 0.9529 -0.1871
vn -0.6404 0.7449 -0.1871
vn -0.3274 -0.2418 0.9134
vn -0.3903 -0.0914 -0.9162
vn -0.3715 0.0925 -0.9238
vn -0.4012 -0.0107 -0.9159
vn -0.8969 0.2227 -0.3820
vn -0.9309 -0.0215 -0.3646
vn -0.8969 0.2227 0.3821
vn -0.7945 -0.4853 0.3649
vn -0.3903 -0.0914 0.9162
vn -0.3715 0.0925 0.9238
vn -0.4012 -0.0107 0.9159
vn 0.3715 -0.0926 0.9238
vn 0.8965 -0.2237 0.3825
vn 0.8966 -0.2236 -0.3822
vn 0.9307 0.0307 -0.3646
vn 0.3719 -0.0926 -0.9236
vn 0.4011 0.0123 -0.9160
vn 0.3264 0.2433 -0.9134
vt 0.444487 0.905957
vt 0.405890 0.851584
vt 0.418191 0.845465
vt 0.431688 0.912172
vt 0.393251 0.856176
vt 0.491121 0.916580
vt 0.503466 0.851552
vt 0.516175 0.856121
vt 0.464933 0.905386
vt 0.491208 0.845442
vt 0.550797 0.607234
vt 0.591459 0.552339
vt 0.600291 0.563540
vt 0.532747 0.587324
vt 0.581348 0.542551
vt 0.542339 0.596889
vt 0.516390 0.656660
vt 0.502822 0.653339
vt 0.583998 0.889142
vt 0.545105 0.832942
vt 0.558367 0.828235
vt 0.559313 0.899763
vt 0.532421 0.839467
vt 0.371549 0.643835
vt 0.347800 0.633998
vt 0.357637 0.610249
vt 0.583441 0.608769
vt 0.564468 0.675333
vt 0.570302 0.604717
vt 0.550648 0.741610
vt 0.576841 0.680547
vt 0.539498 0.790453
vt 0.538339 0.735183
vt 0.525317 0.790836
vt 0.597427 0.611342
vt 0.564090 0.746903
vt 0.589851 0.684670
vt 0.554038 0.790687
vt 0.625844 0.400520
vt 0.635841 0.329013
vt 0.649633 0.332478
vt 0.609901 0.466182
vt 0.612296 0.398870
vt 0.624327 0.466946
vt 0.600872 0.510189
vt 0.614197 0.516010
vt 0.639265 0.400912
vt 0.663269 0.334245
vt 0.638194 0.466208
vt 0.626940 0.522245
vt 0.473546 0.679209
vt 0.454790 0.611217
vt 0.467962 0.607150
vt 0.486339 0.745951
vt 0.460378 0.684748
vt 0.498382 0.740010
vt 0.497798 0.799175
vt 0.511070 0.799682
vt 0.487422 0.674950
vt 0.482011 0.604717
vt 0.511559 0.735146
vt 0.524735 0.799800
vt 0.441028 0.607126
vt 0.421683 0.674959
vt 0.426975 0.604717
vt 0.410834 0.740038
vt 0.435567 0.679195
vt 0.398247 0.799731
vt 0.397649 0.735196
vt 0.384583 0.799872
vt 0.454207 0.611171
vt 0.422887 0.745958
vt 0.448744 0.684711
vt 0.411520 0.799202
vt 0.287936 0.301282
vt 0.008833 0.430802
vt 0.008832 0.185674
vt 0.571301 0.893862
vt 0.570099 0.959012
vt 0.440419 0.964558
vt 0.477679 0.911616
vt 0.482382 0.964415
vt 0.468628 0.964139
vt 0.490639 0.647264
vt 0.454790 0.967094
vt 0.583822 0.961622
vt 0.426708 0.964739
vt 0.418324 0.916987
vt 0.886474 0.253295
vt 0.861201 0.012342
vt 0.976377 0.024939
vt 0.297773 0.325031
vt 0.427293 0.604135
vt 0.182165 0.604135
vt 0.321522 0.301282
vt 0.427293 0.012342
vt 0.600626 0.185674
vt 0.297773 0.291445
vt 0.182165 0.012342
vt 0.287936 0.315194
vt 0.321522 0.315194
vt 0.311685 0.325031
vt 0.600626 0.430803
vt 0.311685 0.291445
vt 0.189701 0.774920
vt 0.320160 0.604717
vt 0.338057 0.656517
vt 0.302416 0.987616
vt 0.341340 0.875797
vt 0.873908 0.714889
vt 0.633187 0.683492
vt 0.672248 0.574166
vt 0.919485 0.255065
vt 0.880381 0.492584
vt 0.820796 0.320479
vt 0.682793 0.395241
vt 0.795508 0.182545
vt 0.098735 0.845670
vt 0.124008 0.604717
vt 0.849870 0.956455
vt 0.783574 0.786598
vt 0.995615 0.491368
vt 0.829589 0.667812
vt 0.011663 0.896302
vt 0.049663 0.858302
vt 0.103403 0.988042
vt 0.652799 0.956455
vt 0.634992 0.904544
vt 0.673493 0.549028
vt 0.690619 0.496968
vt 0.665049 0.012342
vt 0.384001 0.685812
vt 0.588475 0.875425
vt 0.671797 0.445834
vt 0.643870 0.283422
vt 0.647152 0.064142
vt 0.371549 0.610249
vt 0.381386 0.620086
vt 0.381386 0.633998
vt 0.357637 0.643835
vt 0.347800 0.620086
vt 0.454207 0.967597
vt 0.597427 0.961152
vt 0.008832 0.617315
vt 0.965208 0.943218
vt 0.928874 0.727533
vt 0.103403 0.858302
vt 0.141403 0.896301
vt 0.141403 0.950042
vt 0.049663 0.988042
vt 0.011663 0.950042
vt 0.601208 0.093436
s 0
f 2/1/1 21/2/1 20/3/1
f 4/4/2 25/5/2 21/2/2
f 6/6/3 29/7/3 25/8/3
f 29/7/4 10/9/4 33/10/4
f 10/11/5 37/12/5 33/13/5
f 37/12/6 14/14/6 41/15/6
f 12/16/7 53/17/7 54/18/7
f 14/19/8 45/20/8 41/21/8
f 45/20/9 2/22/9 20/23/9
f 7/24/10 11/25/10 15/26/10
f 15/27/11 17/28/11 1/29/11
f 47/30/12 17/28/12 48/31/12
f 46/32/13 18/33/13 47/30/13
f 45/20/14 19/34/14 46/32/14
f 13/35/15 48/31/15 15/27/15
f 43/36/16 48/31/16 44/37/16
f 42/38/17 47/30/17 43/36/17
f 41/21/18 46/32/18 42/38/18
f 40/39/19 13/40/19 11/41/19
f 40/39/20 43/42/20 44/43/20
f 39/44/21 42/45/21 43/42/21
f 38/46/22 41/15/22 42/45/22
f 36/47/23 11/41/23 9/48/23
f 36/47/24 39/44/24 40/39/24
f 35/49/25 38/46/25 39/44/25
f 34/50/26 37/12/26 38/46/26
f 32/51/27 9/52/27 7/53/27
f 32/51/28 35/54/28 36/55/28
f 31/56/29 34/57/29 35/54/29
f 30/58/30 33/10/30 34/57/30
f 28/59/31 7/53/31 5/60/31
f 28/59/32 31/56/32 32/51/32
f 27/61/33 30/58/33 31/56/33
f 26/62/34 29/7/34 30/58/34
f 3/63/35 28/64/35 5/65/35
f 23/66/36 28/64/36 24/67/36
f 22/68/37 27/69/37 23/66/37
f 21/2/38 26/70/38 22/68/38
f 1/71/39 24/67/39 3/63/39
f 18/72/40 24/67/40 17/73/40
f 19/74/41 23/66/41 18/72/41
f 20/3/42 22/68/42 19/74/42
f 53/75/43 60/76/43 61/77/43
f 16/78/44 49/79/44 2/22/44
f 2/1/45 50/80/45 4/4/45
f 8/81/46 51/82/46 52/83/46
f 14/14/47 54/18/47 55/84/47
f 10/9/48 52/83/48 53/85/48
f 14/19/49 56/86/49 16/78/49
f 4/4/50 51/87/50 6/88/50
f 64/89/51 65/90/51 57/91/51
f 51/92/43 58/93/43 59/94/43
f 56/95/43 63/96/43 64/97/43
f 54/98/43 61/77/43 62/99/43
f 51/92/43 60/76/43 52/100/43
f 49/101/43 58/93/43 50/102/43
f 56/95/43 57/103/43 49/101/43
f 54/98/43 63/96/43 55/104/43
f 70/105/52 77/106/52 78/107/52
f 63/108/53 70/105/53 71/109/53
f 60/110/54 69/111/54 61/112/54
f 59/113/55 66/114/55 67/115/55
f 63/116/56 72/117/56 64/89/56
f 62/118/57 69/119/57 70/105/57
f 60/110/58 67/120/58 68/121/58
f 58/122/59 65/123/59 66/114/59
f 76/124/60 75/125/60 79/126/60
f 68/121/61 75/127/61 76/128/61
f 66/114/62 73/129/62 74/130/62
f 72/117/63 73/131/63 65/90/63
f 71/109/64 78/107/64 79/132/64
f 68/121/65 77/133/65 69/111/65
f 67/115/66 74/130/66 75/134/66
f 71/135/67 80/136/67 72/117/67
f 2/1/1 4/4/1 21/2/1
f 4/4/2 6/88/2 25/5/2
f 6/6/3 8/81/3 29/7/3
f 29/7/4 8/81/4 10/9/4
f 10/11/5 12/16/5 37/12/5
f 37/12/6 12/16/6 14/14/6
f 12/16/68 10/11/68 53/17/68
f 14/19/8 16/78/8 45/20/8
f 45/20/9 16/78/9 2/22/9
f 15/26/10 1/137/10 3/138/10
f 3/138/10 5/139/10 7/24/10
f 7/24/10 9/140/10 11/25/10
f 11/25/10 13/141/10 15/26/10
f 15/26/10 3/138/10 7/24/10
f 15/27/69 48/31/69 17/28/69
f 47/30/70 18/33/70 17/28/70
f 46/32/71 19/34/71 18/33/71
f 45/20/14 20/23/14 19/34/14
f 13/35/15 44/37/15 48/31/15
f 43/36/72 47/30/72 48/31/72
f 42/38/73 46/32/73 47/30/73
f 41/21/18 45/20/18 46/32/18
f 40/39/19 44/43/19 13/40/19
f 40/39/74 39/44/74 43/42/74
f 39/44/21 38/46/21 42/45/21
f 38/46/75 37/12/75 41/15/75
f 36/47/76 40/39/76 11/41/76
f 36/47/77 35/49/77 39/44/77
f 35/49/78 34/50/78 38/46/78
f 34/50/26 33/13/26 37/12/26
f 32/51/27 36/55/27 9/52/27
f 32/51/79 31/56/79 35/54/79
f 31/56/29 30/58/29 34/57/29
f 30/58/30 29/7/30 33/10/30
f 28/59/31 32/51/31 7/53/31
f 28/59/80 27/61/80 31/56/80
f 27/61/33 26/62/33 30/58/33
f 26/62/34 25/8/34 29/7/34
f 3/63/35 24/67/35 28/64/35
f 23/66/81 27/69/81 28/64/81
f 22/68/82 26/70/82 27/69/82
f 21/2/38 25/5/38 26/70/38
f 1/71/39 17/73/39 24/67/39
f 18/72/83 23/66/83 24/67/83
f 19/74/84 22/68/84 23/66/84
f 20/3/42 21/2/42 22/68/42
f 53/75/43 52/100/43 60/76/43
f 16/78/44 56/86/44 49/79/44
f 2/1/85 49/142/85 50/80/85
f 8/81/46 6/6/46 51/82/46
f 14/14/47 12/16/47 54/18/47
f 10/9/48 8/81/48 52/83/48
f 14/19/49 55/143/49 56/86/49
f 4/4/50 50/80/50 51/87/50
f 64/89/51 72/117/51 65/90/51
f 51/92/43 50/102/43 58/93/43
f 56/95/43 55/104/43 63/96/43
f 54/98/43 53/75/43 61/77/43
f 51/92/43 59/94/43 60/76/43
f 49/101/43 57/103/43 58/93/43
f 56/95/43 64/97/43 57/103/43
f 54/98/43 62/99/43 63/96/43
f 70/105/52 69/119/52 77/106/52
f 63/108/53 62/118/53 70/105/53
f 60/110/54 68/121/54 69/111/54
f 59/113/55 58/122/55 66/114/55
f 63/116/56 71/135/56 72/117/56
f 62/118/57 61/144/57 69/119/57
f 60/110/58 59/145/58 67/120/58
f 58/122/59 57/146/59 65/123/59
f 75/125/60 74/147/60 79/126/60
f 74/147/60 73/148/60 79/126/60
f 73/148/60 80/149/60 79/126/60
f 79/126/60 78/150/60 77/151/60
f 77/151/60 76/124/60 79/126/60
f 68/121/61 67/120/61 75/127/61
f 66/114/62 65/123/62 73/129/62
f 72/117/63 80/136/63 73/131/63
f 71/109/64 70/105/64 78/107/64
f 68/121/65 76/128/65 77/133/65
f 67/115/66 66/114/66 74/130/66
f 71/135/67 79/152/67 80/136/67
