# Blender 5.0.1
# www.blender.org
o Cube.001
v -1.983655 -1.983679 1.983667
v -1.983655 1.983636 1.983667
v -1.983655 -1.983679 -1.983650
v -1.983655 1.983636 -1.983650
v 1.983660 -1.983679 1.983667
v 1.983660 1.983636 1.983667
v 1.983660 -1.983679 -1.983650
v 1.983660 1.983636 -1.983650
v -1.211334 -1.211354 -0.627191
v -2.418346 -2.418369 0.000008
v -1.211334 -1.211354 0.627207
v -1.211334 -0.627215 1.211346
v -2.418346 -0.000022 2.418357
v -1.211334 0.627183 1.211346
v -1.211334 1.211322 0.627207
v -2.418346 2.418327 0.000008
v -1.211334 1.211322 -0.627191
v -1.211334 0.627183 -1.211330
v -2.418346 -0.000022 -2.418341
v -1.211334 -0.627215 -1.211330
v 0.627202 -1.211354 -1.211330
v 0.000002 -2.418369 -2.418341
v -0.627196 -1.211354 -1.211330
v -0.627196 1.211322 -1.211330
v 0.000002 2.418327 -2.418341
v 0.627202 1.211322 -1.211330
v 1.211340 0.627183 -1.211330
v 2.418350 -0.000022 -2.418341
v 1.211340 -0.627215 -1.211330
v 1.211340 -1.211354 0.627207
v 2.418350 -2.418369 0.000008
v 1.211340 -1.211354 -0.627191
v 1.211340 1.211322 -0.627191
v 2.418350 2.418327 0.000008
v 1.211340 1.211322 0.627207
v 1.211340 0.627183 1.211346
v 2.418351 -0.000022 2.418357
v 1.211340 -0.627215 1.211346
v -0.627196 -1.211354 1.211346
v 0.000002 -2.418369 2.418357
v 0.627202 -1.211354 1.211346
v 0.627202 1.211322 1.211346
v 0.000002 2.418327 2.418357
v -0.627196 1.211322 1.211346
v -1.541282 -0.668459 0.668451
v -1.652998 -0.000016 0.704358
v -1.541282 0.668427 0.668451
v -1.652998 -0.704366 0.000008
v -3.330584 -0.000022 0.000008
v -1.652998 0.704334 0.000008
v -1.541282 -0.668459 -0.668435
v -1.652998 -0.000016 -0.704342
v -1.541282 0.668427 -0.668435
v -0.668440 -0.668459 -1.541276
v -0.704347 -0.000016 -1.652993
v -0.668440 0.668427 -1.541276
v 0.000003 -0.704366 -1.652993
v 0.000002 -0.000022 -3.330578
v 0.000003 0.704334 -1.652993
v 0.668446 -0.668459 -1.541276
v 0.704353 -0.000016 -1.652993
v 0.668446 0.668427 -1.541276
v 1.541288 -0.668459 -0.668435
v 1.653004 -0.000016 -0.704342
v 1.541288 0.668427 -0.668435
v 1.653004 -0.704366 0.000008
v 3.330589 -0.000022 0.000008
v 1.653004 0.704334 0.000008
v 1.541288 -0.668459 0.668451
v 1.653004 -0.000016 0.704358
v 1.541288 0.668427 0.668451
v 0.668446 -0.668459 1.541292
v 0.704353 -0.000016 1.653009
v 0.668446 0.668427 1.541292
v 0.000003 -0.704366 1.653009
v 0.000002 -0.000022 3.330595
v 0.000003 0.704334 1.653009
v -0.668440 -0.668459 1.541292
v -0.704347 -0.000016 1.653009
v -0.668440 0.668427 1.541292
v -0.668440 -1.541300 -0.668435
v 0.000003 -1.653017 -0.704342
v 0.668446 -1.541300 -0.668435
v -0.704347 -1.653017 0.000008
v 0.000002 -3.330609 0.000008
v 0.704353 -1.653017 0.000008
v -0.668440 -1.541300 0.668451
v 0.000003 -1.653017 0.704358
v 0.668446 -1.541300 0.668451
v 0.668446 1.541268 -0.668435
v 0.000003 1.652984 -0.704342
v -0.668440 1.541268 -0.668435
v 0.704353 1.652984 0.000008
v 0.000002 3.330564 0.000008
v -0.704347 1.652984 0.000008
v 0.668446 1.541268 0.668451
v 0.000003 1.652984 0.704358
v -0.668440 1.541268 0.668451
vn -0.4671 -0.6252 0.6253
vn -0.4671 -0.6252 0.6252
vn -0.4671 0.6252 0.6252
vn -0.4671 -0.6253 -0.6252
vn -0.4671 -0.6252 -0.6252
vn -0.4671 0.6252 -0.6252
vn -0.9729 0.1637 -0.1636
vn -0.9729 0.1636 -0.1637
vn -0.7559 -0.6408 -0.1341
vn -0.7560 -0.6407 -0.1342
vn -0.7559 -0.6407 -0.1342
vn -0.7559 0.6408 -0.1341
vn -0.7559 0.6407 -0.1342
vn -0.9729 -0.1636 -0.1636
vn -0.9729 -0.1636 -0.1637
vn -0.9729 -0.1637 -0.1636
vn -0.7559 -0.1341 0.6408
vn -0.7560 -0.1342 0.6407
vn -0.7559 -0.1342 0.6407
vn -0.7559 -0.1341 -0.6408
vn -0.7559 -0.1342 -0.6407
vn -0.9729 -0.1636 0.1636
vn -0.9729 -0.1637 0.1636
vn -0.9729 -0.1636 0.1637
vn -0.7559 0.6408 0.1341
vn -0.7559 -0.6408 0.1341
vn -0.7559 -0.6407 0.1342
vn -0.9729 0.1636 0.1637
vn -0.9729 0.1637 0.1636
vn -0.7559 0.1341 -0.6408
vn -0.7559 0.1341 0.6408
vn -0.7559 0.1342 0.6407
vn -0.6253 -0.6252 -0.4671
vn -0.6252 -0.6252 -0.4671
vn -0.6252 0.6252 -0.4671
vn 0.6252 -0.6253 -0.4671
vn 0.6252 -0.6252 -0.4671
vn 0.6252 0.6252 -0.4671
vn 0.1636 0.1637 -0.9729
vn 0.1637 0.1636 -0.9729
vn 0.1341 -0.6408 -0.7559
vn 0.1342 -0.6407 -0.7560
vn 0.1342 -0.6407 -0.7559
vn 0.1341 0.6408 -0.7559
vn 0.1342 0.6407 -0.7559
vn 0.1636 -0.1636 -0.9729
vn 0.1637 -0.1636 -0.9729
vn 0.1636 -0.1637 -0.9729
vn -0.6408 -0.1341 -0.7559
vn -0.6407 -0.1342 -0.7560
vn -0.6407 -0.1342 -0.7559
vn 0.6408 -0.1341 -0.7559
vn 0.6407 -0.1342 -0.7559
vn -0.1636 -0.1636 -0.9729
vn -0.1636 -0.1637 -0.9729
vn -0.1637 -0.1636 -0.9729
vn -0.1341 0.6408 -0.7559
vn -0.1341 -0.6408 -0.7559
vn -0.1342 -0.6407 -0.7559
vn -0.1637 0.1636 -0.9729
vn -0.1636 0.1637 -0.9729
vn 0.6408 0.1341 -0.7559
vn -0.6408 0.1341 -0.7559
vn -0.6407 0.1342 -0.7559
vn 0.4671 -0.6252 -0.6253
vn 0.4671 -0.6252 -0.6252
vn 0.4671 0.6252 -0.6252
vn 0.4671 -0.6253 0.6252
vn 0.4671 -0.6252 0.6252
vn 0.4671 0.6252 0.6252
vn 0.9729 0.1637 0.1636
vn 0.9729 0.1636 0.1637
vn 0.7559 -0.6408 0.1341
vn 0.7560 -0.6407 0.1342
vn 0.7559 -0.6407 0.1342
vn 0.7559 0.6408 0.1341
vn 0.7559 0.6407 0.1342
vn 0.9729 -0.1636 0.1636
vn 0.9729 -0.1636 0.1637
vn 0.9729 -0.1637 0.1636
vn 0.7559 -0.1341 -0.6408
vn 0.7560 -0.1342 -0.6407
vn 0.7559 -0.1342 -0.6407
vn 0.7559 -0.1341 0.6408
vn 0.7559 -0.1342 0.6407
vn 0.9729 -0.1636 -0.1636
vn 0.9729 -0.1637 -0.1636
vn 0.9729 -0.1636 -0.1637
vn 0.7559 0.6408 -0.1341
vn 0.7559 -0.6408 -0.1341
vn 0.7559 -0.6407 -0.1342
vn 0.9729 0.1636 -0.1637
vn 0.9729 0.1637 -0.1636
vn 0.7559 0.1341 0.6408
vn 0.7559 0.1341 -0.6408
vn 0.7559 0.1342 -0.6407
vn 0.6253 -0.6252 0.4671
vn 0.6252 -0.6252 0.4671
vn 0.6252 0.6252 0.4671
vn -0.6252 -0.6253 0.4671
vn -0.6252 -0.6252 0.4671
vn -0.6252 0.6252 0.4671
vn -0.1636 0.1637 0.9729
vn -0.1637 0.1636 0.9729
vn -0.1341 -0.6408 0.7559
vn -0.1342 -0.6407 0.7560
vn -0.1342 -0.6407 0.7559
vn -0.1341 0.6408 0.7559
vn -0.1342 0.6407 0.7559
vn -0.1636 -0.1636 0.9729
vn -0.1637 -0.1636 0.9729
vn -0.1636 -0.1637 0.9729
vn 0.6408 -0.1341 0.7559
vn 0.6407 -0.1342 0.7560
vn 0.6407 -0.1342 0.7559
vn -0.6408 -0.1341 0.7559
vn -0.6407 -0.1342 0.7559
vn 0.1636 -0.1636 0.9729
vn 0.1636 -0.1637 0.9729
vn 0.1637 -0.1636 0.9729
vn 0.1341 0.6408 0.7559
vn 0.1341 -0.6408 0.7559
vn 0.1342 -0.6407 0.7559
vn 0.1637 0.1636 0.9729
vn 0.1636 0.1637 0.9729
vn -0.6408 0.1341 0.7559
vn 0.6408 0.1341 0.7559
vn 0.6407 0.1342 0.7559
vn -0.6252 -0.4671 -0.6253
vn -0.6252 -0.4671 -0.6252
vn 0.6252 -0.4671 -0.6252
vn -0.6253 -0.4671 0.6252
vn -0.6252 -0.4671 0.6252
vn 0.6252 -0.4671 0.6252
vn 0.1637 -0.9729 0.1636
vn 0.1636 -0.9729 0.1637
vn -0.6408 -0.7559 0.1341
vn -0.6407 -0.7560 0.1342
vn -0.6407 -0.7559 0.1342
vn 0.6408 -0.7559 0.1341
vn 0.6407 -0.7559 0.1342
vn -0.1636 -0.9729 0.1636
vn -0.1636 -0.9729 0.1637
vn -0.1637 -0.9729 0.1636
vn -0.1341 -0.7559 -0.6408
vn -0.1342 -0.7560 -0.6407
vn -0.1342 -0.7559 -0.6407
vn -0.1341 -0.7559 0.6408
vn -0.1342 -0.7559 0.6407
vn -0.1636 -0.9729 -0.1636
vn -0.1637 -0.9729 -0.1636
vn -0.1636 -0.9729 -0.1637
vn 0.6408 -0.7559 -0.1341
vn -0.6408 -0.7559 -0.1341
vn -0.6407 -0.7559 -0.1342
vn 0.1636 -0.9729 -0.1637
vn 0.1637 -0.9729 -0.1636
vn 0.1341 -0.7559 0.6408
vn 0.1341 -0.7559 -0.6408
vn 0.1342 -0.7559 -0.6407
vn 0.6252 0.4671 -0.6253
vn 0.6252 0.4671 -0.6252
vn -0.6252 0.4671 -0.6252
vn 0.6253 0.4671 0.6252
vn 0.6252 0.4671 0.6252
vn -0.6252 0.4671 0.6252
vn -0.1637 0.9729 0.1636
vn -0.1636 0.9729 0.1637
vn 0.6408 0.7559 0.1341
vn 0.6407 0.7560 0.1342
vn 0.6407 0.7559 0.1342
vn -0.6408 0.7559 0.1341
vn -0.6407 0.7559 0.1342
vn 0.1636 0.9729 0.1636
vn 0.1636 0.9729 0.1637
vn 0.1637 0.9729 0.1636
vn 0.1341 0.7559 -0.6408
vn 0.1342 0.7560 -0.6407
vn 0.1342 0.7559 -0.6407
vn 0.1341 0.7559 0.6408
vn 0.1342 0.7559 0.6407
vn 0.1636 0.9729 -0.1636
vn 0.1637 0.9729 -0.1636
vn 0.1636 0.9729 -0.1637
vn -0.6408 0.7559 -0.1341
vn 0.6408 0.7559 -0.1341
vn 0.6407 0.7559 -0.1342
vn -0.1636 0.9729 -0.1637
vn -0.1637 0.9729 -0.1636
vn -0.1341 0.7559 0.6408
vn -0.1341 0.7559 -0.6408
vn -0.1342 0.7559 -0.6407
vn -0.4671 0.6253 0.6252
vn -0.4671 0.6252 -0.6253
vn -0.9729 0.1636 -0.1636
vn -0.7560 0.6407 0.1342
vn -0.7559 0.6407 0.1342
vn -0.9729 0.1636 0.1636
vn -0.7560 0.1342 -0.6407
vn -0.7559 0.1342 -0.6407
vn -0.6252 0.6253 -0.4671
vn 0.6253 0.6252 -0.4671
vn 0.1636 0.1636 -0.9729
vn -0.1342 0.6407 -0.7560
vn -0.1342 0.6407 -0.7559
vn -0.1636 0.1636 -0.9729
vn 0.6407 0.1342 -0.7560
vn 0.6407 0.1342 -0.7559
vn 0.4671 0.6253 -0.6252
vn 0.4671 0.6252 0.6253
vn 0.9729 0.1636 0.1636
vn 0.7560 0.6407 -0.1342
vn 0.7559 0.6407 -0.1342
vn 0.9729 0.1636 -0.1636
vn 0.7560 0.1342 0.6407
vn 0.7559 0.1342 0.6407
vn 0.6252 0.6253 0.4671
vn -0.6253 0.6252 0.4671
vn -0.1636 0.1636 0.9729
vn 0.1342 0.6407 0.7560
vn 0.1342 0.6407 0.7559
vn 0.1636 0.1636 0.9729
vn -0.6407 0.1342 0.7560
vn -0.6407 0.1342 0.7559
vn 0.6253 -0.4671 -0.6252
vn 0.6252 -0.4671 0.6253
vn 0.1636 -0.9729 0.1636
vn 0.6407 -0.7560 -0.1342
vn 0.6407 -0.7559 -0.1342
vn 0.1636 -0.9729 -0.1636
vn 0.1342 -0.7560 0.6407
vn 0.1342 -0.7559 0.6407
vn -0.6253 0.4671 -0.6252
vn -0.6252 0.4671 0.6253
vn -0.1636 0.9729 0.1636
vn -0.6407 0.7560 -0.1342
vn -0.6407 0.7559 -0.1342
vn -0.1636 0.9729 -0.1636
vn -0.1342 0.7560 0.6407
vn -0.1342 0.7559 0.6407
vt 0.290255 0.367088
vt 0.336015 0.412828
vt 0.299034 0.414439
vt 0.092730 0.452400
vt 0.124156 0.494067
vt -0.000000 0.487199
vt 0.420236 0.263004
vt 0.368517 0.215044
vt 0.413088 0.221213
vt 0.092730 0.550622
vt 0.824140 0.874214
vt 0.877798 0.874214
vt 0.833974 0.986827
vt 0.946214 0.128888
vt 0.885536 0.113944
vt 0.929195 0.114743
vt 0.145128 0.414189
vt 0.050425 0.326362
vt 0.425986 0.938230
vt 0.481932 0.921143
vt 0.450466 0.927606
vt 0.758537 0.580742
vt 0.820370 0.600294
vt 0.785094 0.608328
vt 0.695419 0.878481
vt 0.757288 0.860041
vt 0.736333 0.878785
vt 0.703630 0.991397
vt 0.757288 0.991397
vt 0.744391 0.991077
vt 0.145128 0.583111
vt 0.050425 0.663602
vt 0.415063 0.176711
vt 0.943171 0.615211
vt 0.985124 0.625853
vt 0.943171 0.738490
vt 0.457956 0.216485
vt 0.495891 0.319514
vt 0.294564 0.458467
vt 0.407742 0.509830
vt 0.389524 0.122087
vt 0.456841 0.101028
vt 0.432417 0.135684
vt 0.425986 0.714575
vt 0.493852 0.695952
vt 0.493852 0.824275
vt 0.886286 0.515384
vt 0.820370 0.490735
vt 0.850726 0.500294
vt 0.348348 0.610853
vt 0.398574 0.655924
vt 0.290255 0.692680
vt 0.886190 0.759771
vt 0.941221 0.749582
vt 0.941221 0.870085
vt 0.737975 0.065811
vt 0.761617 0.113666
vt 0.636629 0.145813
vt 0.758153 0.022071
vt 0.754130 0.066263
vt 0.633549 0.860041
vt 0.695418 0.878482
vt 0.654504 0.878785
vt 0.393641 0.564952
vt 0.390793 0.608368
vt 0.758224 0.964044
vt 0.814169 0.981130
vt 0.789689 0.970507
vt 0.355312 0.931008
vt 0.290255 0.931008
vt 0.308338 0.824276
vt 0.249350 0.793631
vt 0.188672 0.808574
vt 0.205691 0.794430
vt 0.673562 0.652868
vt 0.640341 0.617987
vt 0.749983 0.617987
vt 0.633549 0.704384
vt 0.758224 0.748016
vt 0.470891 0.159246
vt 0.549443 0.082542
vt 0.166099 0.495896
vt 0.197525 0.537563
vt 0.161526 0.541171
vt 0.197525 0.439341
vt 0.290255 0.502765
vt 0.407742 0.367088
vt 0.453502 0.412828
vt 0.416521 0.414438
vt 0.179787 0.225333
vt 0.247104 0.204274
vt 0.244561 0.326361
vt 0.891514 0.000000
vt 0.950010 0.000000
vt 0.924799 0.108985
vt 0.758537 0.439759
vt 0.820370 0.459311
vt 0.785093 0.467345
vt 0.122728 0.905482
vt 0.062050 0.920425
vt 0.062050 0.793631
vt 0.941221 0.850625
vt 0.991226 0.870085
vt 0.979323 0.865109
vt 0.145128 0.406852
vt 0.161526 0.447956
vt 0.165737 0.167115
vt 0.204212 0.190677
vt 0.946214 0.226581
vt 0.988167 0.237223
vt 0.987053 0.245396
vt 0.221565 0.149650
vt 0.318315 0.171514
vt 0.412052 0.458467
vt 0.633548 0.878785
vt 0.687207 0.878785
vt 0.643382 0.991397
vt 0.761617 0.000304
vt 0.823487 0.018744
vt 0.761617 0.130770
vt 0.145128 0.575774
vt 0.239830 0.663602
vt 0.358121 0.802380
vt 0.425986 0.821002
vt 0.385398 0.824275
vt 0.268111 0.111317
vt 0.216392 0.063357
vt 0.318315 -0.000000
vt 0.583322 0.591038
vt 0.633548 0.545967
vt 0.625767 0.593522
vt 0.886286 0.419305
vt 0.820370 0.443955
vt 0.820370 0.326362
vt 0.734895 0.406363
vt 0.755074 0.450102
vt 0.633549 0.472174
vt 0.758537 0.358507
vt 0.751050 0.405910
vt 0.886286 0.557178
vt 0.941317 0.567368
vt 0.902671 0.566460
vt 0.178673 0.109876
vt 0.223540 0.105148
vt 0.124675 0.707233
vt 0.164688 0.758749
vt 0.129836 0.748897
vt 0.131468 0.793631
vt 0.188671 0.920425
vt 0.127994 0.905482
vt 0.188671 0.793631
vt 0.423178 0.824276
vt 0.358121 0.824276
vt 0.391497 0.825387
vt 0.886190 0.870085
vt 0.944685 0.870085
vt 0.911400 0.979070
vt 0.628616 0.636939
vt 0.525229 0.692061
vt 0.761617 0.149514
vt 0.823487 0.131074
vt 0.823487 0.261540
vt 0.526499 0.165622
vt 0.510902 0.234641
vt 0.496508 0.195117
vt 0.758224 0.774231
vt 0.824140 0.749582
vt 0.824140 0.867175
vt 0.358121 0.714575
vt 0.290255 0.695952
vt 0.330843 0.692680
vt 0.525229 0.472455
vt 0.575456 0.427384
vt 0.633549 0.509211
vt 0.886286 0.326362
vt 0.941317 0.336551
vt 0.886286 0.446865
vt 0.084662 0.698483
vt 0.124675 0.749999
vt 0.000000 0.793631
vt 0.117882 0.663602
vt 0.119514 0.708336
vt 0.886190 0.767105
vt 0.864075 0.753775
vt 0.573931 0.822090
vt 0.508874 0.822090
vt 0.542251 0.823201
vt 1.000000 0.326362
vt 0.941317 0.326362
vt 0.970659 0.334070
vt 0.530162 0.381483
vt 0.633549 0.326362
vt 0.885536 0.113945
vt 0.823487 0.131468
vt 0.845601 0.118138
vt 0.657191 0.537985
vt 0.637012 0.494246
vt 0.758537 0.472174
vt 0.633548 0.585841
vt 0.758537 0.617987
vt 0.758224 0.746309
vt 0.826089 0.727687
vt 0.798812 0.749582
vt 0.448800 0.591657
vt 0.398574 0.546586
vt 0.506892 0.509830
vt 0.110129 0.160739
vt 0.125727 0.091720
vt 0.140120 0.131245
vt 0.891513 0.095919
vt 0.823487 0.113944
vt 0.823487 -0.000000
vt 0.640092 0.269554
vt 0.660271 0.225815
vt 0.761617 0.291626
vt -0.000000 0.900739
vt 0.062050 0.918263
vt 0.022114 0.914069
vt 0.403506 0.637558
vt 0.506892 0.692680
vt 0.941317 0.528277
vt 1.000000 0.528277
vt 0.970658 0.520568
vt 0.573931 0.912495
vt 0.633476 0.938702
vt 0.604928 0.924922
vt 0.826090 0.742619
vt 0.888140 0.725096
vt 0.866025 0.738426
vt 0.626755 0.822089
vt 0.593535 0.787208
vt 0.628387 0.777355
vt 0.633548 0.735692
vt 0.508874 0.692061
vt 0.943170 0.728301
vt 0.888139 0.738490
vt 0.888139 0.617987
vt 0.087186 0.243819
vt 0.636629 0.177959
vt 0.761617 0.145813
vt 0.407742 0.326362
vt 0.128730 0.448792
vt 0.318314 0.326361
vt 0.128730 0.542007
vt 0.864901 0.874534
vt 0.885536 0.240738
vt 0.425987 0.824275
vt 0.820370 0.467345
vt 0.695419 0.748015
vt 0.713464 0.878785
vt 0.318314 0.154847
vt 0.944285 0.607038
vt 0.392068 -0.000000
vt 0.453264 0.692680
vt 0.820370 0.608328
vt 0.902574 0.750489
vt 0.636629 -0.000000
vt 0.695418 0.748016
vt 0.290255 0.509830
vt 0.814169 0.867175
vt 0.323632 0.929896
vt 0.249350 0.920425
vt 0.638710 0.662721
vt 0.525229 0.326361
vt 0.918029 0.003010
vt 0.820370 0.326362
vt 0.105709 0.919626
vt 0.991226 0.749246
vt 0.239830 0.326362
vt 0.988167 0.113945
vt 0.525229 0.509830
vt 0.674310 0.879105
vt 0.802531 -0.000000
vt 0.425986 0.692680
vt 0.525229 0.509211
vt 0.850726 0.434396
vt 0.633549 0.326362
vt 0.941317 0.446865
vt 0.140738 0.006847
vt 0.249349 0.663602
vt 0.241109 0.793631
vt 0.145012 0.919626
vt 0.376203 0.931008
vt 0.918170 0.873094
vt 0.782572 0.130770
vt 0.636629 0.226782
vt 0.793784 0.759141
vt 0.290255 0.824275
vt 0.533011 0.424900
vt 0.924933 0.327269
vt 0.008241 0.663602
vt 0.824140 0.874214
vt 0.526957 0.928822
vt 0.970659 0.427320
vt 0.885536 0.238577
vt 0.641035 0.538438
vt 0.758224 0.617987
vt 0.406355 0.594141
vt 0.000000 0.099579
vt 0.861223 0.105682
vt 0.644116 0.225362
vt 0.062050 0.793630
vt 0.970659 0.427319
vt 0.633476 0.822089
vt 0.826090 0.617987
vt 0.517114 0.822089
vt 0.926786 0.737582
s 0
f 46/1/1 48/2/2 45/3/1
f 46/4/3 50/5/3 49/6/3
f 48/7/4 52/8/5 51/9/4
f 50/5/6 52/10/6 49/6/6
f 12/11/7 11/12/7 1/13/8
f 12/14/9 46/15/10 45/16/11
f 14/17/12 46/4/12 13/18/13
f 14/19/14 15/20/15 47/21/16
f 15/22/17 50/23/18 47/24/19
f 50/25/20 17/26/20 53/27/21
f 17/28/22 18/29/23 53/30/24
f 52/10/25 18/31/25 19/32/25
f 52/8/26 20/33/26 51/9/27
f 9/34/28 20/35/28 3/36/29
f 48/7/30 9/37/30 10/38/30
f 11/39/31 48/2/31 10/40/32
f 55/41/33 57/42/34 54/43/33
f 55/44/35 59/45/35 58/46/35
f 57/47/36 61/48/37 60/49/36
f 59/50/38 61/51/38 58/52/38
f 20/53/39 23/54/39 3/55/40
f 20/33/41 55/41/42 54/43/43
f 18/56/44 55/57/44 19/58/45
f 18/56/46 24/59/47 56/60/48
f 24/61/49 59/62/50 56/63/51
f 59/50/52 26/64/52 62/65/53
f 26/66/54 27/67/55 62/68/56
f 61/69/57 27/70/57 28/71/57
f 61/72/58 29/73/58 60/74/59
f 21/75/60 29/76/60 7/77/61
f 57/78/62 21/75/62 22/79/62
f 23/80/63 57/42/63 22/81/64
f 64/82/65 66/83/66 63/84/65
f 64/82/67 68/85/67 67/86/67
f 66/87/68 70/88/69 69/89/68
f 68/90/70 70/91/70 67/92/70
f 29/93/71 32/94/71 7/95/72
f 29/96/73 64/97/74 63/98/75
f 27/99/76 64/100/76 28/101/77
f 27/102/78 33/103/79 65/104/80
f 33/105/81 68/85/82 65/106/83
f 68/90/84 35/107/84 71/108/85
f 35/109/86 36/110/87 71/111/88
f 70/91/89 36/112/89 37/113/89
f 70/88/90 38/114/90 69/89/91
f 30/115/92 38/116/92 5/117/93
f 66/118/94 30/119/94 31/120/94
f 32/121/95 66/83/95 31/122/96
f 73/123/97 75/124/98 72/125/97
f 73/126/99 77/127/99 76/128/99
f 75/129/100 79/130/101 78/131/100
f 77/132/102 79/133/102 76/134/102
f 38/135/103 41/136/103 5/137/104
f 38/135/105 73/138/106 72/139/107
f 36/112/108 73/126/108 37/113/109
f 36/140/110 42/141/111 74/142/112
f 42/143/113 77/127/114 74/144/115
f 77/145/116 44/146/116 80/147/117
f 44/146/118 14/148/119 80/147/120
f 79/149/121 14/150/121 13/151/121
f 79/152/122 12/153/122 78/154/123
f 39/155/124 12/156/124 1/157/125
f 75/129/126 39/158/126 40/159/126
f 41/160/127 75/161/127 40/162/128
f 82/163/129 84/164/130 81/165/129
f 82/166/131 86/167/131 85/168/131
f 84/169/132 88/170/133 87/171/132
f 86/172/134 88/173/134 85/174/134
f 23/175/135 9/176/135 3/177/136
f 23/80/137 82/163/138 81/165/139
f 21/178/140 82/179/140 22/180/141
f 21/178/142 32/181/143 83/182/144
f 32/183/145 86/167/146 83/184/147
f 86/185/148 30/186/148 89/187/149
f 30/188/150 41/189/151 89/190/152
f 88/173/153 41/191/153 40/192/153
f 88/193/154 39/194/154 87/195/155
f 11/196/156 39/197/156 1/198/157
f 84/199/158 11/196/158 10/200/158
f 9/37/159 84/164/159 10/38/160
f 91/201/161 93/202/162 90/203/161
f 91/204/163 95/205/163 94/206/163
f 93/207/164 97/208/165 96/209/164
f 95/210/166 97/211/166 94/212/166
f 26/213/167 33/214/167 8/215/168
f 26/216/169 91/217/170 90/218/171
f 24/219/172 91/204/172 25/220/173
f 24/221/174 17/222/175 92/223/176
f 17/224/177 95/225/178 92/226/179
f 95/227/180 15/228/180 98/229/181
f 15/230/182 44/231/183 98/232/184
f 97/233/185 44/231/185 43/234/185
f 97/208/186 42/143/186 96/209/187
f 35/235/188 42/236/188 6/237/189
f 93/207/190 35/107/190 34/238/190
f 33/214/191 93/239/191 34/240/192
f 46/1/2 49/241/2 48/2/2
f 46/4/3 47/242/193 50/5/193
f 48/7/5 49/243/5 52/8/5
f 50/5/6 53/244/194 52/10/194
f 12/11/7 45/245/8 11/12/195
f 12/14/9 13/246/9 46/15/9
f 14/17/12 47/242/13 46/4/12
f 14/19/15 2/247/16 15/20/15
f 15/22/17 16/248/17 50/23/17
f 50/25/20 16/249/21 17/26/20
f 17/28/23 4/250/24 18/29/23
f 52/10/196 53/244/197 18/31/25
f 52/8/26 19/251/27 20/33/26
f 9/34/28 51/252/29 20/35/198
f 48/7/199 51/9/200 9/37/30
f 11/39/31 45/3/32 48/2/31
f 55/41/34 58/253/34 57/42/34
f 55/44/35 56/254/201 59/45/201
f 57/47/37 58/255/37 61/48/37
f 59/50/38 62/65/202 61/51/202
f 20/53/39 54/256/40 23/54/203
f 20/33/41 19/251/41 55/41/41
f 18/56/44 56/60/45 55/57/44
f 18/56/47 4/257/48 24/59/47
f 24/61/49 25/258/49 59/62/49
f 59/50/52 25/259/53 26/64/52
f 26/66/55 8/260/56 27/67/55
f 61/69/204 62/261/205 27/70/57
f 61/72/58 28/262/59 29/73/58
f 21/75/60 60/263/61 29/76/206
f 57/78/207 60/263/208 21/75/62
f 23/80/63 54/43/64 57/42/63
f 64/82/66 67/86/66 66/83/66
f 64/82/67 65/106/209 68/85/209
f 66/87/69 67/264/69 70/88/69
f 68/90/70 71/108/210 70/91/210
f 29/93/71 63/265/72 32/94/211
f 29/96/73 28/266/73 64/97/73
f 27/99/76 65/267/77 64/100/76
f 27/102/79 8/268/80 33/103/79
f 33/105/81 34/269/81 68/85/81
f 68/90/84 34/238/85 35/107/84
f 35/109/87 6/270/88 36/110/87
f 70/91/212 71/108/213 36/112/89
f 70/88/90 37/271/91 38/114/90
f 30/115/92 69/272/93 38/116/214
f 66/118/215 69/273/216 30/119/94
f 32/121/95 63/84/96 66/83/95
f 73/123/98 76/274/98 75/124/98
f 73/126/99 74/144/217 77/127/217
f 75/129/101 76/275/101 79/130/101
f 77/132/102 80/276/218 79/133/218
f 38/135/103 72/139/104 41/136/219
f 38/135/105 37/277/105 73/138/105
f 36/112/108 74/144/109 73/126/108
f 36/140/111 6/278/112 42/141/111
f 42/143/113 43/279/113 77/127/113
f 77/145/116 43/280/117 44/146/116
f 44/146/119 2/281/120 14/148/119
f 79/149/220 80/282/221 14/150/121
f 79/152/122 13/283/123 12/153/122
f 39/155/124 78/284/125 12/156/222
f 75/129/223 78/131/224 39/158/126
f 41/160/127 72/285/128 75/161/127
f 82/163/130 85/286/130 84/164/130
f 82/166/131 83/287/225 86/167/225
f 84/169/133 85/288/133 88/170/133
f 86/172/134 89/289/226 88/173/226
f 23/175/135 81/290/136 9/176/227
f 23/80/137 22/81/137 82/163/137
f 21/178/140 83/182/141 82/179/140
f 21/178/143 7/291/144 32/181/143
f 32/183/145 31/292/145 86/167/145
f 86/185/148 31/293/149 30/186/148
f 30/188/151 5/294/152 41/189/151
f 88/173/228 89/289/229 41/191/153
f 88/193/154 40/295/155 39/194/154
f 11/196/156 87/296/157 39/197/230
f 84/199/231 87/296/232 11/196/158
f 9/37/159 81/165/160 84/164/159
f 91/201/162 94/297/162 93/202/162
f 91/204/163 92/298/233 95/205/233
f 93/207/165 94/299/165 97/208/165
f 95/210/166 98/300/234 97/211/234
f 26/213/167 90/301/168 33/214/235
f 26/216/169 25/302/169 91/217/169
f 24/219/172 92/298/173 91/204/172
f 24/221/175 4/303/176 17/222/175
f 17/224/177 16/304/177 95/225/177
f 95/227/180 16/305/181 15/228/180
f 15/230/183 2/306/184 44/231/183
f 97/233/236 98/232/237 44/231/185
f 97/208/186 43/279/187 42/143/186
f 35/235/188 96/307/189 42/236/238
f 93/207/239 96/209/240 35/107/190
f 33/214/191 90/301/192 93/239/191
