# Blender 5.0.1
# www.blender.org
o Cube
v 53.332314 0.050181 -53.332314
v 53.332314 -0.050181 -53.332314
v 52.797344 17.307602 53.179817
v 52.795837 17.208973 53.179386
v -53.332314 0.050181 -53.332314
v -53.332314 -0.050181 -53.332314
v -53.332314 4.280994 53.332314
v -53.332314 4.182894 53.332314
v -53.344467 -0.035995 -45.715225
v -53.457920 0.102795 -38.114273
v -52.037697 2.384526 -30.907730
v -49.868801 6.365263 -23.997217
v -48.843334 8.264727 -16.715996
v -49.868805 6.365257 -8.759413
v -52.022736 2.375541 -0.431233
v -53.328850 0.028006 7.617765
v -53.332314 1.381014 15.237806
v -53.332314 3.780360 22.856709
v -53.332314 6.344409 30.475609
v -53.332314 7.503663 38.094509
v -53.332314 6.539822 45.713409
v 53.332314 0.050181 -45.713409
v 53.267075 0.139313 -38.113102
v 53.025661 0.469150 -30.563015
v 52.660946 0.967456 -23.048094
v 51.355011 2.753215 -15.807509
v 49.466072 5.336480 -8.737040
v 48.385357 6.814206 -1.430954
v 48.809505 6.233535 6.313603
v 50.206703 5.496702 14.340823
v 51.206059 8.691580 22.250608
v 51.541546 14.105496 29.965141
v 52.013195 18.378962 37.718487
v 52.452888 19.730442 45.462727
v -53.332314 6.637115 45.713409
v -53.332314 7.600596 38.094505
v -53.332314 6.442304 30.475603
v -53.332314 3.879366 22.856701
v -53.332314 1.480322 15.237800
v -53.328854 0.128115 7.617758
v -52.022644 2.476074 -0.431270
v -49.868641 6.465924 -8.759474
v -48.843140 8.365450 -16.716066
v -49.868641 6.465923 -23.997276
v -52.037647 2.485013 -30.907757
v -53.457958 0.203181 -38.114277
v -53.344479 0.064379 -45.715225
v 52.450546 19.632925 45.462055
v 52.010578 18.281845 37.717739
v 51.539604 14.007531 29.964581
v 51.205643 8.591615 22.250483
v 50.205982 5.397255 14.340602
v 48.810028 6.132454 6.313747
v 48.385586 6.713531 -1.430895
v 49.466492 5.235546 -8.736927
v 51.355690 2.651922 -15.807322
v 52.661572 0.866238 -23.047924
v 53.026066 0.368238 -30.562906
v 53.267254 0.038709 -38.113056
v 53.332314 -0.050181 -45.713409
v 42.665852 0.503623 -53.332314
v 31.367182 3.405485 -53.608688
v 17.611485 5.084139 -54.959183
v 5.121213 6.775158 -55.756481
v -3.724125 4.533637 -54.960358
v -11.331289 0.768117 -53.622952
v -22.032736 0.766634 -53.436829
v -33.854336 2.114902 -53.609348
v -43.365665 0.766635 -53.436829
v 42.108723 21.362982 53.173500
v 31.419216 17.369360 53.166931
v 20.857052 8.620736 53.196663
v 10.440951 3.110543 53.268028
v -0.030807 3.708362 53.323532
v -10.666462 1.889381 53.332314
v -21.332924 1.360589 53.332314
v -31.999388 4.280993 53.332314
v -42.665852 5.738041 53.332314
v -42.665852 5.640436 53.332314
v -31.999390 4.182894 53.332314
v -21.332928 1.261371 53.332314
v -10.666465 1.788890 53.332314
v -0.030787 3.607781 53.323536
v 10.441074 3.012161 53.268066
v 20.856642 8.520730 53.196548
v 31.417637 17.270830 53.166481
v 42.106667 21.265034 53.172916
v -43.365738 0.867086 -53.436840
v -33.854469 2.215417 -53.609371
v -22.032816 0.867086 -53.436840
v -11.331342 0.868541 -53.622971
v -3.724264 4.634169 -54.960415
v 5.121021 6.875753 -55.756565
v 17.612867 5.182909 -54.958576
v 31.369743 3.502961 -53.607571
v 42.665852 0.604100 -53.332314
v 42.665852 4.509740 -45.713409
v 31.513783 10.499043 -45.925697
v 17.058756 9.770581 -47.581909
v 3.898623 8.279976 -48.672047
v -4.583001 5.590779 -47.716919
v -11.664347 1.177285 -46.146149
v -24.072929 3.147935 -46.122631
v -37.071560 5.870026 -46.470940
v -45.405861 3.147938 -46.122631
v 42.563999 7.053298 -38.123543
v 31.883671 14.249801 -38.135406
v 18.215334 10.751754 -39.457016
v 5.121212 6.775160 -40.518677
v -3.724126 4.533638 -39.722553
v -11.433513 0.885809 -38.393074
v -25.138039 4.391123 -38.662804
v -38.781898 7.868062 -39.107754
v -46.406448 4.510633 -38.684044
v 42.277588 5.040213 -30.586285
v 31.664408 10.358981 -30.571135
v 19.533192 6.747912 -31.236578
v 7.691674 3.613827 -31.773258
v -1.798065 2.162957 -31.261654
v -10.765196 0.070571 -30.515272
v -24.037373 3.213797 -30.896534
v -35.526070 8.732727 -31.742054
v -43.210228 7.214888 -31.607834
v 41.736832 1.773174 -23.122562
v 31.266479 3.628696 -23.065636
v 20.624008 1.445379 -23.088917
v 9.819617 1.022959 -23.192320
v -0.234231 0.242951 -22.953676
v -10.666462 -0.050181 -22.856705
v -21.662878 1.451718 -23.083014
v -29.926432 9.390534 -24.427176
v -37.757038 11.155454 -24.808105
v 39.725632 3.969903 -16.087862
v 29.989712 2.697083 -15.816742
v 20.449650 1.156614 -15.489587
v 10.161773 0.639364 -15.381668
v -0.159410 0.167617 -15.283243
v -10.666706 -0.049848 -15.237871
v -20.809002 0.920275 -15.410325
v -27.513365 8.274533 -16.717445
v -35.455933 13.304709 -17.611986
v 37.236198 7.374691 -9.192923
v 28.165747 5.191583 -8.727754
v 19.914974 1.887421 -8.024288
v 9.890322 1.010240 -7.840146
v -0.314030 0.378870 -7.708417
v -10.694721 -0.011572 -7.626956
v -21.076178 0.425389 -7.703445
v -28.535879 6.365257 -8.759414
v -36.997131 10.449956 -9.485577
v 35.824238 9.305574 -1.983649
v 27.132195 6.604869 -1.408223
v 19.428051 2.552997 -0.545425
v 9.654610 1.332287 -0.288436
v -0.458741 0.576584 -0.130767
v -10.743791 0.055471 -0.022042
v -21.332924 -0.052884 0.000001
v -30.690399 2.200134 -0.431040
v -40.091026 4.716448 -0.847873
v 36.521206 8.351563 5.841067
v 27.520504 6.073159 6.326120
v 19.385374 2.610997 7.062550
v 9.496988 1.547640 7.285535
v -0.558624 0.713051 7.459662
v -10.784596 0.111222 7.585227
v -21.332924 -1.073391 7.618903
v -31.997456 -1.987046 7.618268
v -42.445095 -0.367641 7.546210
v 38.478973 7.750874 14.032617
v 28.814304 5.477527 14.323856
v 19.480330 2.483016 14.709709
v 9.446155 1.621950 14.889948
v -0.592944 1.073249 15.068782
v -10.798260 -0.065904 15.200234
v -21.332924 -2.580992 15.237804
v -31.999388 -2.924262 15.237805
v -42.665852 -0.295263 15.237806
v 40.262165 10.974545 22.171207
v 29.757814 8.748606 22.217728
v 19.552845 4.039176 22.349277
v 9.498821 3.384209 22.523859
v -0.561376 4.332716 22.696682
v -10.783459 1.536230 22.823355
v -21.332924 -2.279865 22.856705
v -31.999388 -1.693091 22.856707
v -42.665852 2.051230 22.856709
v 40.739952 17.257971 29.926615
v 30.108561 14.141590 29.936611
v 19.773880 7.276015 30.031189
v 9.663763 6.367182 30.189777
v -0.446373 8.520415 30.348364
v -10.741651 4.744856 30.454172
v -21.332924 0.143195 30.475605
v -31.999388 1.932709 30.475607
v -42.665852 5.789746 30.475609
v 41.304764 22.360653 37.706520
v 30.599323 18.388868 37.695408
v 20.118853 9.873203 37.748425
v 9.914833 8.186419 37.880249
v -0.288597 10.469191 38.012238
v -10.691148 6.385420 38.087467
v -21.332924 2.724322 38.094505
v -31.999388 5.486017 38.094505
v -42.665852 8.800340 38.094505
v 41.782955 24.184343 45.461735
v 31.057138 19.715561 45.444817
v 20.499920 10.250646 45.475956
v 10.186765 6.740132 45.576668
v -0.143347 8.106399 45.672546
v -10.666462 4.844003 45.713409
v -21.332924 2.835791 45.713409
v -31.999388 6.370088 45.713409
v -42.665852 8.539320 45.713409
v -45.406025 3.248494 -46.122654
v -37.071815 5.970685 -46.470978
v -24.073101 3.248494 -46.122654
v -11.664400 1.277710 -46.146168
v -4.583163 5.691339 -47.716988
v 3.898362 8.380656 -48.672157
v 17.072483 9.854404 -47.575909
v 31.522165 10.589698 -45.922031
v 42.665852 4.610467 -45.713409
v -46.408279 4.608227 -38.683544
v -38.782520 7.968421 -39.107731
v -25.138250 4.491728 -38.662834
v -11.433443 0.986081 -38.393032
v -3.724265 4.634170 -39.722610
v 5.121021 6.875754 -40.518761
v 18.232252 10.831761 -39.449615
v 31.887707 14.346103 -38.133686
v 42.564129 7.153960 -38.123501
v -43.218102 7.301174 -31.605324
v -35.537983 8.811794 -31.738258
v -24.038395 3.312782 -30.896282
v -10.765220 0.170959 -30.515278
v -1.798154 2.263428 -31.261692
v 7.691538 3.714355 -31.773312
v 19.540564 6.839565 -31.233337
v 31.665075 10.459057 -30.570917
v 42.277603 5.140918 -30.586277
v -37.760674 11.249319 -24.806953
v -29.933994 9.477294 -24.424755
v -21.663645 1.550901 -23.082804
v -10.666465 0.050181 -22.856707
v -0.234381 0.343513 -22.953726
v 9.819284 1.123765 -23.192417
v 20.623821 1.546139 -23.088923
v 31.266300 3.729563 -23.065678
v 41.736496 1.874106 -23.122648
v -35.455601 13.405690 -17.612101
v -27.513199 8.375232 -16.717508
v -20.808950 1.020741 -15.410346
v -10.666719 0.050530 -15.237875
v -0.159695 0.268366 -15.283324
v 10.161240 0.740452 -15.381818
v 20.448910 1.257984 -15.489794
v 29.989021 2.798388 -15.816936
v 39.725121 4.070970 -16.088005
v -36.996895 10.550756 -9.485660
v -28.535717 6.465923 -8.759472
v -21.076143 0.525823 -7.703461
v -10.694839 0.088949 -7.626990
v -0.314439 0.479790 -7.708534
v 9.889638 1.111533 -7.840339
v 19.914080 1.989003 -8.024540
v 28.165337 5.292501 -8.727865
v 37.236229 7.475008 -9.192908
v -40.090881 4.817075 -0.847925
v -30.689995 2.301225 -0.431179
v -21.332928 0.047476 -0.000001
v -10.743987 0.156098 -0.022099
v -0.459245 0.677633 -0.130910
v 9.653806 1.433744 -0.288663
v 19.427059 2.654710 -0.545704
v 27.131975 6.705527 -1.408281
v 35.824669 9.405349 -1.983523
v -42.444553 -0.266317 7.546026
v -31.997330 -1.886283 7.618221
v -21.332928 -0.973099 7.618900
v -10.784841 0.211915 7.585157
v -0.559187 0.814182 7.459502
v 9.496107 1.649204 7.285286
v 19.384228 2.712923 7.062227
v 27.519993 6.174217 6.325978
v 36.521317 8.451772 5.841104
v -42.665852 -0.192128 15.237801
v -31.999390 -2.819624 15.237802
v -21.332928 -2.480053 15.237803
v -10.798529 0.034823 15.200158
v -0.593486 1.174399 15.068628
v 9.445250 1.723551 14.889691
v 19.479103 2.585053 14.709363
v 28.814905 5.577137 14.324040
v 38.482533 7.846460 14.033664
v -42.665852 2.158538 22.856701
v -31.999390 -1.582565 22.856701
v -21.332928 -2.176721 22.856701
v -10.783626 1.637938 22.823305
v -0.561481 4.433409 22.696651
v 9.498305 3.485402 22.523716
v 19.552099 4.140634 22.349072
v 29.758251 8.848536 22.217857
v 40.265278 11.070860 22.172115
v -42.665852 5.896834 30.475603
v -31.999390 2.043555 30.475603
v -21.332928 0.246619 30.475603
v -10.741642 4.846043 30.454174
v -0.445977 8.620564 30.348476
v 9.663873 6.466812 30.189812
v 19.774057 7.372026 30.031240
v 30.110586 14.239437 29.937193
v 40.742893 17.354616 29.927460
v -42.665852 8.900888 38.094505
v -31.999390 5.589930 38.094505
v -21.332928 2.821670 38.094505
v -10.691103 6.485166 38.087482
v -0.288096 10.569334 38.012383
v 9.915232 8.281549 37.880363
v 20.119568 9.964676 37.748631
v 30.602043 18.485836 37.696186
v 41.308319 22.456549 37.707535
v -42.665852 8.635817 45.713409
v -31.999390 6.467903 45.713409
v -21.332928 2.932004 45.713409
v -10.666465 4.944295 45.713409
v -0.143135 8.206797 45.672607
v 10.186950 6.834631 45.576721
v 20.500650 10.346390 45.476166
v 31.059578 19.812943 45.445511
v 41.786064 24.280956 45.462620
vn -0.1725 0.9207 0.3502
vn -0.0000 -0.0000 1.0000
vn -1.0000 -0.0000 -0.0016
vn -0.3725 -0.8730 -0.3149
vn 0.9987 -0.0150 -0.0494
vn -0.0000 -0.0000 -1.0000
vn 1.0000 -0.0000 -0.0000
vn 1.0000 -0.0000 0.0086
vn 0.9995 0.0018 0.0318
vn 0.9988 0.0041 0.0482
vn 0.9844 0.0064 0.1759
vn 0.9667 0.0070 0.2558
vn 0.9894 0.0043 0.1455
vn 0.9985 0.0051 -0.0543
vn 0.9851 -0.0068 -0.1719
vn 0.9924 -0.0069 -0.1226
vn 0.9992 -0.0041 -0.0403
vn 0.9986 -0.0195 -0.0499
vn 0.9983 -0.0265 -0.0521
vn -0.3539 -0.8278 0.4353
vn -0.5290 -0.8068 0.2633
vn -0.5323 -0.8126 -0.2373
vn -0.0729 -0.9117 -0.4044
vn -0.1149 -0.9571 0.2660
vn -0.1729 -0.9065 0.3852
vn -0.2064 -0.9545 0.2152
vn -0.1968 -0.9752 -0.1014
vn -0.1765 -0.9838 -0.0300
vn -0.1906 -0.8977 0.3973
vn -0.2278 -0.7496 0.6214
vn -0.3005 -0.7874 0.5382
vn -0.3816 -0.8943 0.2338
vn -1.0000 -0.0000 -0.0000
vn -1.0000 -0.0000 -0.0005
vn -0.9871 -0.0000 -0.1602
vn -0.9682 0.0008 -0.2500
vn -0.9918 0.0015 -0.1275
vn -0.9903 0.0017 0.1390
vn -0.9542 0.0006 0.2992
vn -0.9811 -0.0004 0.1934
vn -0.9999 -0.0001 -0.0149
vn -0.0806 0.9409 -0.3288
vn -0.3730 0.9025 -0.2152
vn -0.4831 0.8683 -0.1126
vn -0.3710 0.9009 -0.2254
vn -0.3572 0.9200 -0.1613
vn -0.3253 0.9098 0.2579
vn -0.2417 0.8461 0.4751
vn -0.1527 0.8637 0.4803
vn 0.0362 0.9993 -0.0086
vn 0.1482 0.9450 -0.2916
vn 0.1433 0.8885 -0.4359
vn -0.1127 0.9244 -0.3645
vn -0.1209 0.9921 0.0345
vn 0.3503 0.9191 -0.1803
vn -0.3773 0.9064 -0.1900
vn -0.6651 0.7416 -0.0877
vn -0.3224 0.9461 -0.0308
vn 0.1312 0.9751 0.1787
vn -0.3488 0.8937 0.2822
vn -0.3195 0.9286 0.1887
vn 0.2512 0.9678 -0.0140
vn 0.2947 0.9493 -0.1094
vn 0.2545 0.8403 -0.4786
vn -0.2991 0.8078 -0.5080
vn -0.5899 0.7235 -0.3586
vn -0.1587 0.9380 -0.3080
vn 0.1992 0.9523 -0.2312
vn -0.3576 0.9068 -0.2232
vn -0.3192 0.9270 -0.1969
vn 0.1576 0.9355 -0.3162
vn 0.3112 0.8616 -0.4010
vn 0.1784 0.8017 -0.5704
vn -0.2244 0.7639 -0.6051
vn -0.4870 0.7264 -0.4850
vn -0.0883 0.9191 -0.3840
vn 0.0812 0.9283 -0.3628
vn -0.3110 0.8357 -0.4526
vn -0.3725 0.8562 -0.3579
vn 0.0530 0.9516 -0.3027
vn 0.3019 0.8608 -0.4097
vn 0.1985 0.8998 -0.3885
vn -0.1972 0.9255 -0.3235
vn -0.4016 0.8620 -0.3092
vn -0.0672 0.9778 -0.1985
vn -0.0572 0.9729 -0.2241
vn -0.2484 0.8911 -0.3797
vn -0.3342 0.9225 -0.1933
vn -0.0318 0.9987 -0.0398
vn 0.2363 0.9591 -0.1557
vn 0.1948 0.9792 0.0560
vn -0.2232 0.9667 0.1249
vn -0.2986 0.9469 0.1190
vn -0.1065 0.9941 0.0179
vn -0.0829 0.9965 -0.0103
vn -0.0593 0.9971 -0.0475
vn -0.1115 0.9935 0.0229
vn -0.0837 0.9776 0.1934
vn 0.2375 0.9642 0.1182
vn 0.1749 0.9825 0.0641
vn -0.2851 0.9481 0.1409
vn -0.4564 0.8858 0.0837
vn -0.1242 0.9922 -0.0083
vn -0.0750 0.9967 -0.0299
vn -0.0508 0.9985 -0.0186
vn -0.0103 0.9999 -0.0074
vn 0.2266 0.9654 0.1293
vn 0.2073 0.8537 0.4778
vn 0.1759 0.9696 -0.1701
vn -0.2378 0.9256 -0.2944
vn -0.3786 0.8974 -0.2267
vn -0.0885 0.9916 -0.0940
vn -0.0623 0.9971 -0.0445
vn -0.0378 0.9989 -0.0268
vn 0.0421 0.9991 -0.0085
vn 0.2307 0.9707 0.0680
vn 0.3446 0.8009 0.4897
vn 0.1144 0.9426 -0.3138
vn -0.1270 0.8705 -0.4756
vn -0.1606 0.9174 -0.3641
vn -0.0510 0.9936 -0.1010
vn -0.0461 0.9976 -0.0508
vn -0.0208 0.9994 -0.0283
vn 0.0953 0.9954 -0.0047
vn 0.6151 0.7852 0.0717
vn 0.4012 0.8777 0.2621
vn 0.0821 0.9710 -0.2247
vn 0.1676 0.9537 -0.2499
vn -0.2003 0.9756 0.0900
vn -0.0498 0.9981 0.0367
vn -0.0451 0.9977 0.0509
vn -0.0280 0.9996 0.0101
vn 0.0952 0.9955 -0.0000
vn 0.7417 0.6697 -0.0364
vn 0.5384 0.8413 -0.0488
vn 0.3984 0.9163 -0.0414
vn 0.1616 0.8997 0.4055
vn -0.2520 0.7271 0.6386
vn -0.0379 0.8355 0.5481
vn -0.0666 0.9505 0.3035
vn -0.0252 0.9730 0.2296
vn 0.1349 0.9908 0.0139
vn 0.6953 0.7170 -0.0496
vn 0.2253 0.9395 -0.2581
vn 0.3985 0.9167 -0.0273
vn 0.4343 0.8660 0.2478
vn -0.2795 0.8573 0.4324
vn -0.2464 0.8557 0.4550
vn -0.1210 0.9216 0.3687
vn -0.3577 0.8749 0.3266
vn 0.2274 0.9704 0.0811
vn 0.4256 0.9017 0.0766
vn -0.1934 0.9808 -0.0271
vn 0.3931 0.9195 -0.0074
vn 0.4583 0.8446 -0.2769
vn -0.1881 0.8881 -0.4195
vn -0.2825 0.9564 -0.0747
vn -0.2733 0.9378 0.2141
vn -0.4948 0.8530 0.1660
vn 0.1568 0.9871 0.0325
vn 0.2066 0.9695 -0.1321
vn -0.3066 0.8982 -0.3149
vn 0.0519 0.9987 -0.0000
vn 0.2320 0.8609 -0.4527
vn 0.0402 0.7342 -0.6778
vn 0.1472 0.8407 -0.5212
vn -0.2588 0.9348 -0.2432
vn -0.4617 0.8683 -0.1815
vn -0.0011 0.9985 -0.0547
vn 0.1128 0.9536 -0.2790
vn -0.1300 0.8522 -0.5069
vn 0.1828 -0.9754 -0.1234
vn -0.1992 -0.9794 -0.0336
vn -0.3126 -0.9435 0.1095
vn 0.1850 -0.9826 0.0144
vn 0.2900 -0.9379 -0.1905
vn -0.2128 -0.9348 -0.2843
vn 0.1578 -0.9695 -0.1878
vn 0.6306 -0.7761 0.0068
vn 0.3444 -0.9285 0.1386
vn -0.0513 -0.9873 0.1502
vn -0.2776 -0.8935 0.3531
vn -0.2284 -0.8823 0.4115
vn 0.3811 -0.8757 0.2967
vn 0.3394 -0.9201 0.1955
vn -0.2087 -0.9468 0.2450
vn 0.0907 -0.9698 0.2264
vn 0.5377 -0.8060 0.2472
vn 0.2512 -0.8556 0.4525
vn -0.0492 -0.9466 0.3186
vn -0.3088 -0.8539 0.4190
vn -0.1498 -0.8928 0.4249
vn 0.3267 -0.9007 0.2864
vn 0.2490 -0.8933 0.3742
vn -0.1762 -0.8624 0.4746
vn 0.0669 -0.9303 0.3606
vn 0.3967 -0.8499 0.3467
vn 0.1743 -0.8109 0.5586
vn -0.1528 -0.9426 0.2968
vn -0.3181 -0.9061 0.2791
vn -0.0542 -0.9857 0.1593
vn 0.2322 -0.9719 0.0384
vn 0.1112 -0.9726 0.2042
vn -0.0797 -0.9165 0.3920
vn 0.0873 -0.9708 0.2235
vn 0.3071 -0.9331 0.1872
vn 0.2245 -0.9094 0.3500
vn -0.1529 -0.9730 0.1727
vn -0.1532 -0.9882 0.0049
vn 0.0319 -0.9920 -0.1220
vn 0.2274 -0.9553 -0.1890
vn 0.1106 -0.9936 -0.0229
vn 0.0554 -0.9973 0.0475
vn 0.0857 -0.9963 0.0103
vn 0.3900 -0.9206 -0.0202
vn 0.2383 -0.9649 -0.1104
vn -0.0367 -0.9577 -0.2853
vn -0.1253 -0.8326 -0.5395
vn 0.0762 -0.8896 -0.4504
vn 0.1102 -0.9851 -0.1319
vn 0.0588 -0.9982 0.0076
vn 0.0830 -0.9964 0.0190
vn 0.1075 -0.9937 0.0305
vn 0.3923 -0.9198 0.0092
vn 0.2407 -0.9674 -0.0786
vn 0.1640 -0.9055 -0.3914
vn -0.1846 -0.7871 -0.5886
vn -0.5007 -0.7154 -0.4873
vn 0.0101 -0.9980 -0.0616
vn 0.0507 -0.9987 0.0091
vn 0.0749 -0.9968 0.0274
vn 0.1250 -0.9911 0.0462
vn 0.4722 -0.8748 0.1086
vn 0.3027 -0.9269 0.2217
vn 0.2875 -0.9393 -0.1872
vn -0.4668 -0.8030 -0.3706
vn -0.6927 -0.6761 -0.2512
vn -0.0415 -0.9970 -0.0655
vn 0.0376 -0.9993 0.0052
vn 0.0621 -0.9976 0.0291
vn 0.0880 -0.9948 0.0521
vn 0.3778 -0.9185 0.1170
vn 0.2350 -0.8964 0.3759
vn 0.3721 -0.9096 0.1849
vn -0.2224 -0.9124 0.3436
vn -0.6979 -0.7068 0.1161
vn -0.1340 -0.9895 -0.0536
vn 0.0207 -0.9998 -0.0000
vn 0.0771 -0.9970 -0.0105
vn 0.0395 -0.9979 -0.0507
vn 0.1582 -0.9868 -0.0339
vn 0.1261 -0.9865 -0.1046
vn 0.4739 -0.8192 0.3231
vn 0.1858 -0.9074 0.3769
vn -0.4212 -0.8161 0.3958
vn -0.2238 -0.9631 -0.1492
vn 0.2258 -0.9740 -0.0183
vn 0.1334 -0.9598 -0.2469
vn 0.2551 -0.9063 -0.3369
vn 0.1685 -0.8157 -0.5534
vn -0.3463 -0.6892 -0.6364
vn 0.5325 -0.8315 0.1583
vn 0.4052 -0.8999 0.1609
vn -0.2476 -0.9435 0.2202
vn -0.2442 -0.9633 -0.1114
vn 0.2163 -0.9691 -0.1186
vn 0.2077 -0.9286 -0.3075
vn 0.2958 -0.8672 -0.4005
vn 0.2618 -0.8505 -0.4562
vn -0.5106 -0.7585 -0.4049
vn 0.5313 -0.8469 0.0234
vn 0.4035 -0.8889 0.2171
vn -0.2481 -0.9480 0.1996
vn -0.2482 -0.9607 0.1247
vn 0.4207 -0.9060 -0.0466
vn 0.2299 -0.9613 -0.1518
vn 0.1265 -0.9719 -0.1984
vn 0.0369 -0.9927 0.1146
vn -0.5144 -0.7628 0.3917
vn 0.3723 -0.9281 0.0023
vn 0.3023 -0.8783 0.3703
vn -0.1991 -0.9014 0.3845
vn -0.1506 -0.9516 0.2678
vn 0.5388 -0.8395 0.0699
vn 0.3154 -0.9330 0.1736
vn 0.0916 -0.9707 0.2220
vn -0.1536 -0.8392 0.5216
vn -0.3758 -0.6773 0.6325
vn -0.0105 -0.0000 -0.9999
vn -0.0181 -0.0002 -0.9998
vn 0.0146 -0.0001 -0.9999
vn -0.0174 -0.0001 -0.9998
vn -0.1730 -0.0002 -0.9849
vn -0.0895 -0.0006 -0.9960
vn 0.0644 0.0052 -0.9979
vn 0.0988 0.0087 -0.9951
vn 0.0245 -0.0000 -0.9997
vn 0.1294 -0.9473 -0.2930
vn -0.1867 -0.9182 -0.3494
vn -0.3035 -0.9159 -0.2629
vn 0.0484 -0.9782 -0.2021
vn 0.1565 -0.9167 -0.3676
vn -0.1180 -0.8568 -0.5020
vn 0.4250 -0.8089 -0.4061
vn 0.6250 -0.7551 -0.1981
vn 0.3342 -0.8939 -0.2986
vn -0.0023 -0.0044 1.0000
vn 0.0011 -0.0045 1.0000
vn 0.0038 -0.0012 1.0000
vn 0.0067 0.0004 1.0000
vn 0.0053 0.0004 1.0000
vn 0.0008 -0.0001 1.0000
vn -0.0000 -0.0001 1.0000
vn 0.3417 0.9009 0.2676
vn -0.3616 0.8669 0.3432
vn -0.6446 0.7198 0.2578
vn -0.3124 0.9239 0.2209
vn 0.0536 0.8994 0.4337
vn -0.2559 0.8317 0.4928
vn -0.1725 0.9143 0.3666
vn 0.2590 0.9460 0.1951
vn 0.1302 0.9530 0.2735
vn -0.1294 0.9473 0.2930
vn -1.0000 -0.0001 -0.0016
vn -0.3417 -0.9009 -0.2677
vn 0.9984 -0.0236 -0.0519
vn 1.0000 0.0018 0.0086
vn 0.9995 0.0040 0.0318
vn 0.9988 0.0063 0.0481
vn 0.9844 0.0069 0.1759
vn 0.9665 0.0043 0.2567
vn 0.9893 0.0023 0.1459
vn 0.9985 0.0022 -0.0545
vn 0.9853 0.0048 -0.1710
vn 0.9923 -0.0040 -0.1237
vn 0.9994 -0.0196 -0.0297
vn 0.9986 -0.0266 -0.0461
vn 0.9983 -0.0236 -0.0526
vn -0.0519 -0.9987 -0.0000
vn -0.3931 -0.9195 0.0074
vn -0.3985 -0.9167 0.0273
vn -0.3984 -0.9163 0.0414
vn -0.0821 -0.9710 0.2246
vn -0.1144 -0.9426 0.3139
vn -0.1759 -0.9696 0.1701
vn -0.1750 -0.9825 -0.0641
vn -0.1951 -0.9792 -0.0558
vn -0.1987 -0.8998 0.3885
vn -0.1787 -0.8016 0.5705
vn -0.2546 -0.8403 0.4787
vn -0.3504 -0.9191 0.1803
vn -1.0000 -0.0000 -0.0004
vn -0.9871 0.0008 -0.1600
vn -0.9683 0.0014 -0.2498
vn -0.9919 0.0018 -0.1274
vn -0.9903 0.0020 0.1389
vn -0.9544 0.0017 0.2986
vn -0.9812 0.0005 0.1932
vn -0.9999 -0.0004 -0.0149
vn -0.3724 0.9281 -0.0023
vn -0.5311 0.8470 -0.0234
vn -0.5324 0.8316 -0.1584
vn -0.4731 0.8195 -0.3236
vn -0.3718 0.9097 -0.1850
vn -0.2875 0.9393 0.1872
vn -0.1640 0.9055 0.3914
vn 0.0366 0.9577 0.2853
vn 0.1526 0.9731 -0.1726
vn 0.1521 0.9427 -0.2968
vn 0.0484 0.9467 -0.3185
vn 0.0505 0.9874 -0.1501
vn -0.1828 0.9754 0.1233
vn 0.3815 0.8943 -0.2339
vn -0.3442 0.9286 -0.1387
vn -0.6308 0.7759 -0.0072
vn -0.1575 0.9695 0.1878
vn 0.2133 0.9347 0.2843
vn -0.2900 0.9379 0.1904
vn -0.1854 0.9826 -0.0142
vn 0.3128 0.9436 -0.1087
vn 0.1991 0.9794 0.0341
vn 0.3005 0.7874 -0.5382
vn -0.2511 0.8557 -0.4524
vn -0.5378 0.8061 -0.2467
vn -0.0904 0.9699 -0.2259
vn 0.2091 0.9467 -0.2450
vn -0.3393 0.9202 -0.1953
vn -0.3810 0.8759 -0.2960
vn 0.2290 0.8825 -0.4108
vn 0.2774 0.8938 -0.3524
vn 0.2277 0.7496 -0.6214
vn -0.1740 0.8111 -0.5585
vn -0.3966 0.8502 -0.3462
vn -0.0669 0.9304 -0.3604
vn 0.1763 0.8624 -0.4746
vn -0.2489 0.8933 -0.3742
vn -0.3266 0.9007 -0.2865
vn 0.1504 0.8927 -0.4249
vn 0.3085 0.8540 -0.4190
vn 0.1903 0.8977 -0.3974
vn -0.2240 0.9095 -0.3502
vn -0.3068 0.9332 -0.1871
vn -0.0874 0.9708 -0.2234
vn 0.0796 0.9165 -0.3919
vn -0.1112 0.9726 -0.2043
vn -0.2322 0.9719 -0.0387
vn 0.0549 0.9856 -0.1600
vn 0.3178 0.9060 -0.2795
vn 0.1764 0.9838 0.0305
vn -0.2382 0.9649 0.1106
vn -0.3899 0.9207 0.0202
vn -0.0857 0.9963 -0.0103
vn -0.0554 0.9973 -0.0475
vn -0.1107 0.9936 0.0229
vn -0.2274 0.9553 0.1889
vn -0.0316 0.9921 0.1215
vn 0.1533 0.9882 -0.0051
vn 0.1967 0.9752 0.1013
vn -0.2406 0.9675 0.0785
vn -0.3922 0.9198 -0.0092
vn -0.1076 0.9937 -0.0305
vn -0.0831 0.9964 -0.0190
vn -0.0589 0.9982 -0.0076
vn -0.1102 0.9851 0.1320
vn -0.0762 0.8896 0.4504
vn 0.1254 0.8327 0.5394
vn 0.2064 0.9545 -0.2152
vn -0.3026 0.9270 -0.2217
vn -0.4721 0.8748 -0.1086
vn -0.1250 0.9911 -0.0462
vn -0.0750 0.9968 -0.0275
vn -0.0507 0.9987 -0.0091
vn -0.0101 0.9980 0.0616
vn 0.5007 0.7154 0.4873
vn 0.1845 0.7871 0.5886
vn 0.1729 0.9065 -0.3851
vn -0.2349 0.8964 -0.3758
vn -0.3777 0.9185 -0.1170
vn -0.0880 0.9948 -0.0521
vn -0.0621 0.9976 -0.0291
vn -0.0377 0.9993 -0.0052
vn 0.0415 0.9970 0.0655
vn 0.6927 0.6761 0.2512
vn 0.4668 0.8029 0.3706
vn 0.1149 0.9571 -0.2661
vn -0.1260 0.9865 0.1045
vn -0.1582 0.9868 0.0338
vn -0.0395 0.9979 0.0507
vn -0.0771 0.9970 0.0105
vn -0.0207 0.9998 -0.0000
vn 0.1339 0.9895 0.0535
vn 0.6970 0.7073 -0.1178
vn 0.2233 0.9117 -0.3448
vn 0.0729 0.9117 0.4043
vn 0.3463 0.6892 0.6364
vn -0.1686 0.8161 0.5528
vn -0.2545 0.9065 0.3368
vn -0.1334 0.9598 0.2469
vn -0.2258 0.9740 0.0183
vn 0.2237 0.9632 0.1492
vn 0.4196 0.8169 -0.3958
vn -0.1850 0.9070 -0.3783
vn 0.5323 0.8126 0.2373
vn 0.5106 0.7585 0.4049
vn -0.2628 0.8507 0.4552
vn -0.2945 0.8678 0.4003
vn -0.2077 0.9286 0.3075
vn -0.2163 0.9691 0.1186
vn 0.2442 0.9633 0.1116
vn 0.2477 0.9442 -0.2171
vn -0.4055 0.9001 -0.1597
vn 0.5290 0.8068 -0.2633
vn 0.5142 0.7628 -0.3920
vn -0.0375 0.9928 -0.1141
vn -0.1252 0.9721 0.1982
vn -0.2299 0.9613 0.1518
vn -0.4207 0.9060 0.0466
vn 0.2482 0.9607 -0.1247
vn 0.2481 0.9480 -0.1996
vn -0.4037 0.8888 -0.2168
vn 0.3539 0.8278 -0.4353
vn 0.3754 0.6777 -0.6323
vn 0.1537 0.8400 -0.5203
vn -0.0902 0.9709 -0.2218
vn -0.3154 0.9330 -0.1736
vn -0.5388 0.8395 -0.0699
vn 0.1506 0.9516 -0.2678
vn 0.1991 0.9014 -0.3845
vn -0.3024 0.8783 -0.3703
vn 0.1206 -0.9921 -0.0340
vn -0.2949 -0.9492 0.1101
vn -0.2506 -0.9680 0.0142
vn 0.3194 -0.9286 -0.1887
vn 0.3488 -0.8937 -0.2823
vn -0.1306 -0.9752 -0.1786
vn 0.3224 -0.9461 0.0303
vn 0.6651 -0.7416 0.0877
vn 0.3773 -0.9064 0.1899
vn 0.1123 -0.9241 0.3652
vn -0.3114 -0.8612 0.4017
vn -0.1569 -0.9354 0.3169
vn 0.3191 -0.9270 0.1971
vn 0.3576 -0.9068 0.2232
vn -0.1992 -0.9522 0.2317
vn 0.1590 -0.9378 0.3085
vn 0.5897 -0.7235 0.3588
vn 0.2991 -0.8077 0.5080
vn -0.1440 -0.8884 0.4359
vn -0.3022 -0.8608 0.4096
vn -0.0524 -0.9517 0.3027
vn 0.3727 -0.8561 0.3579
vn 0.3111 -0.8356 0.4527
vn -0.0813 -0.9283 0.3630
vn 0.0886 -0.9188 0.3846
vn 0.4869 -0.7262 0.4853
vn 0.2245 -0.7639 0.6051
vn -0.1485 -0.9451 0.2911
vn -0.2364 -0.9592 0.1550
vn 0.0321 -0.9987 0.0395
vn 0.3343 -0.9225 0.1932
vn 0.2485 -0.8911 0.3797
vn 0.0572 -0.9729 0.2242
vn 0.0671 -0.9778 0.1985
vn 0.4018 -0.8620 0.3092
vn 0.1975 -0.9255 0.3233
vn -0.0363 -0.9993 0.0084
vn -0.2376 -0.9641 -0.1186
vn 0.0838 -0.9775 -0.1934
vn 0.1115 -0.9935 -0.0229
vn 0.0593 -0.9971 0.0475
vn 0.0829 -0.9965 0.0103
vn 0.1065 -0.9942 -0.0180
vn 0.2989 -0.9469 -0.1189
vn 0.2236 -0.9667 -0.1243
vn 0.1527 -0.8637 -0.4803
vn -0.2073 -0.8537 -0.4777
vn -0.2265 -0.9654 -0.1293
vn 0.0102 -0.9999 0.0074
vn 0.0508 -0.9985 0.0186
vn 0.0749 -0.9967 0.0299
vn 0.1241 -0.9922 0.0083
vn 0.4565 -0.8858 -0.0838
vn 0.2852 -0.9480 -0.1410
vn 0.2417 -0.8461 -0.4751
vn -0.3446 -0.8009 -0.4897
vn -0.2306 -0.9707 -0.0680
vn -0.0421 -0.9991 0.0085
vn 0.0378 -0.9989 0.0268
vn 0.0623 -0.9971 0.0445
vn 0.0885 -0.9916 0.0940
vn 0.3787 -0.8973 0.2267
vn 0.2379 -0.9256 0.2945
vn 0.3252 -0.9098 -0.2579
vn -0.4012 -0.8777 -0.2621
vn -0.6151 -0.7852 -0.0717
vn -0.0953 -0.9954 0.0047
vn 0.0208 -0.9994 0.0283
vn 0.0461 -0.9976 0.0507
vn 0.0510 -0.9936 0.1009
vn 0.1606 -0.9174 0.3641
vn 0.1270 -0.8704 0.4757
vn 0.3572 -0.9201 0.1606
vn -0.5382 -0.8415 0.0466
vn -0.7417 -0.6697 0.0362
vn -0.0952 -0.9955 -0.0000
vn 0.0280 -0.9996 -0.0101
vn 0.0451 -0.9977 -0.0510
vn 0.0498 -0.9981 -0.0368
vn 0.2003 -0.9756 -0.0901
vn -0.1676 -0.9537 0.2499
vn 0.3714 -0.9010 0.2243
vn -0.2244 -0.9402 0.2563
vn -0.6961 -0.7162 0.0501
vn -0.1350 -0.9907 -0.0139
vn 0.0252 -0.9730 -0.2296
vn 0.0665 -0.9505 -0.3035
vn 0.0379 -0.8352 -0.5486
vn 0.2515 -0.7272 -0.6387
vn -0.1616 -0.8997 -0.4055
vn 0.4838 -0.8678 0.1131
vn 0.1942 -0.9805 0.0293
vn -0.4272 -0.9010 -0.0760
vn -0.2275 -0.9704 -0.0811
vn 0.3577 -0.8749 -0.3266
vn 0.1210 -0.9216 -0.3687
vn 0.2470 -0.8550 -0.4560
vn 0.2789 -0.8572 -0.4328
vn -0.4343 -0.8660 -0.2478
vn 0.3730 -0.9025 0.2155
vn 0.3065 -0.8982 0.3149
vn -0.2066 -0.9695 0.1321
vn -0.1568 -0.9871 -0.0324
vn 0.4948 -0.8530 -0.1660
vn 0.2732 -0.9378 -0.2141
vn 0.2842 -0.9558 0.0750
vn 0.1869 -0.8886 0.4189
vn -0.4587 -0.8444 0.2768
vn 0.0806 -0.9410 0.3288
vn 0.1300 -0.8522 0.5069
vn -0.1128 -0.9536 0.2790
vn 0.0011 -0.9985 0.0547
vn 0.4617 -0.8683 0.1815
vn 0.2588 -0.9348 0.2432
vn -0.1471 -0.8399 0.5225
vn -0.0407 -0.7337 0.6782
vn -0.2322 -0.8609 0.4527
vn -0.0105 -0.0001 -0.9999
vn 0.0146 -0.0003 -0.9999
vn -0.0174 -0.0002 -0.9998
vn -0.1728 -0.0009 -0.9850
vn -0.0894 -0.0010 -0.9960
vn 0.0637 -0.0007 -0.9980
vn 0.0983 0.0048 -0.9951
vn 0.0271 0.0107 -0.9996
vn 0.1726 -0.9206 -0.3503
vn -0.1302 -0.9530 -0.2736
vn -0.2591 -0.9459 -0.1955
vn 0.1721 -0.9143 -0.3666
vn 0.2559 -0.8317 -0.4928
vn -0.0534 -0.8993 -0.4341
vn 0.3123 -0.9238 -0.2214
vn 0.6445 -0.7198 -0.2580
vn 0.3617 -0.8668 -0.3433
vn -0.0028 -0.0059 1.0000
vn 0.0016 -0.0060 1.0000
vn 0.0067 -0.0046 1.0000
vn 0.0075 -0.0012 1.0000
vn 0.0053 0.0001 1.0000
vn 0.0008 0.0001 1.0000
vn 0.3724 0.8730 0.3148
vn -0.3342 0.8940 0.2985
vn -0.6250 0.7552 0.1977
vn -0.4252 0.8090 0.4058
vn 0.1185 0.8567 0.5020
vn -0.1565 0.9167 0.3676
vn -0.0485 0.9782 0.2018
vn 0.3036 0.9158 0.2629
vn 0.1866 0.9183 0.3492
vt 0.002500 0.045175
vt 0.052352 0.011453
vt 0.052262 0.043612
vt 0.553229 0.944917
vt 0.555750 0.994971
vt 0.555300 0.995051
vt 0.555771 0.959021
vt 0.556218 0.994522
vt 0.555750 0.994522
vt 0.533613 0.495050
vt 0.497561 0.447022
vt 0.525531 0.444754
vt 0.596142 0.530465
vt 0.613853 0.497353
vt 0.614303 0.497446
vt 0.662322 0.547066
vt 0.664436 0.497353
vt 0.664904 0.497353
vt 0.594764 0.999908
vt 0.602228 0.965189
vt 0.595223 1.000000
vt 0.601769 0.965096
vt 0.608811 0.930378
vt 0.608351 0.930285
vt 0.614254 0.895568
vt 0.613792 0.895476
vt 0.618897 0.860759
vt 0.618435 0.860667
vt 0.617431 0.825983
vt 0.616968 0.825890
vt 0.612179 0.791227
vt 0.611717 0.791135
vt 0.612172 0.756444
vt 0.621474 0.721516
vt 0.621936 0.721609
vt 0.632182 0.685572
vt 0.632637 0.685664
vt 0.625286 0.646625
vt 0.624829 0.646533
vt 0.607622 0.606411
vt 0.607175 0.606319
vt 0.595207 0.567074
vt 0.594764 0.566982
vt 0.993094 0.447161
vt 0.961235 0.497298
vt 0.953136 0.447006
vt 0.928364 0.497353
vt 0.915921 0.446567
vt 0.887082 0.445865
vt 0.862047 0.495158
vt 0.860804 0.444139
vt 0.827696 0.489192
vt 0.826609 0.434824
vt 0.792654 0.480396
vt 0.790856 0.423115
vt 0.758571 0.475523
vt 0.756381 0.416635
vt 0.724406 0.420389
vt 0.726275 0.477954
vt 0.690213 0.429988
vt 0.693034 0.484946
vt 0.649409 0.438269
vt 0.610381 0.490789
vt 0.604789 0.440047
vt 0.569363 0.492800
vt 0.562174 0.442388
vt 0.575300 0.497354
vt 0.585873 0.532850
vt 0.574842 0.497354
vt 0.586327 0.532850
vt 0.590411 0.568355
vt 0.585510 0.603871
vt 0.585054 0.603872
vt 0.573610 0.639397
vt 0.573148 0.639397
vt 0.562474 0.674921
vt 0.562011 0.674922
vt 0.556217 0.710445
vt 0.555750 0.710445
vt 0.566742 0.747912
vt 0.567211 0.747912
vt 0.585392 0.786649
vt 0.585861 0.786649
vt 0.594295 0.823695
vt 0.585952 0.857669
vt 0.585483 0.857669
vt 0.567435 0.889957
vt 0.566967 0.889958
vt 0.556840 0.923596
vt 0.556372 0.923596
vt 0.556239 0.959020
vt 0.000263 0.503826
vt 0.037434 0.468148
vt 0.046732 0.503807
vt 0.000366 0.469004
vt 0.032952 0.432881
vt 0.006826 0.399152
vt 0.048035 0.398147
vt 0.017177 0.363978
vt 0.073709 0.363598
vt 0.022156 0.328989
vt 0.084656 0.328801
vt 0.077573 0.294244
vt 0.017497 0.294345
vt 0.063195 0.259951
vt 0.007535 0.259891
vt 0.052277 0.226195
vt 0.001559 0.225230
vt 0.051409 0.190972
vt 0.001735 0.189168
vt 0.051626 0.154000
vt 0.001954 0.152152
vt 0.051876 0.115756
vt 0.002364 0.079107
vt 0.052109 0.078185
vt 0.443815 0.069652
vt 0.495853 0.036995
vt 0.493609 0.073612
vt 0.396146 0.036456
vt 0.446248 0.032553
vt 0.393818 0.073074
vt 0.346703 0.044729
vt 0.344756 0.080382
vt 0.298550 0.047228
vt 0.297158 0.081064
vt 0.250440 0.045270
vt 0.201077 0.081243
vt 0.249661 0.078105
vt 0.151389 0.084300
vt 0.201314 0.047808
vt 0.101742 0.081492
vt 0.151551 0.049383
vt 0.101924 0.045870
vt 0.440892 0.109869
vt 0.491144 0.112949
vt 0.391262 0.112411
vt 0.342921 0.118017
vt 0.248717 0.114910
vt 0.295781 0.117866
vt 0.200642 0.117627
vt 0.101496 0.119560
vt 0.151167 0.121478
vt 0.438351 0.151058
vt 0.489287 0.153159
vt 0.389327 0.152621
vt 0.341646 0.156079
vt 0.247916 0.153713
vt 0.294776 0.155627
vt 0.200208 0.155438
vt 0.101248 0.157701
vt 0.150948 0.158516
vt 0.484385 0.192208
vt 0.429793 0.191160
vt 0.384685 0.191669
vt 0.341108 0.192415
vt 0.247528 0.191558
vt 0.294326 0.192127
vt 0.199940 0.191744
vt 0.101059 0.193652
vt 0.150781 0.193611
vt 0.477723 0.228179
vt 0.420495 0.227993
vt 0.378496 0.227638
vt 0.294401 0.226946
vt 0.340509 0.227241
vt 0.247519 0.226661
vt 0.199848 0.226380
vt 0.150658 0.227045
vt 0.100931 0.227615
vt 0.475598 0.263027
vt 0.376539 0.262484
vt 0.417107 0.262857
vt 0.340547 0.262061
vt 0.294972 0.261759
vt 0.247823 0.261475
vt 0.199877 0.261195
vt 0.150523 0.260925
vt 0.106957 0.260592
vt 0.423488 0.297608
vt 0.480446 0.297796
vt 0.381167 0.297254
vt 0.342644 0.296860
vt 0.295905 0.296569
vt 0.248334 0.296288
vt 0.199945 0.296010
vt 0.151570 0.295696
vt 0.116925 0.294886
vt 0.434861 0.332301
vt 0.489039 0.332522
vt 0.389458 0.331983
vt 0.344963 0.331658
vt 0.297004 0.331379
vt 0.248891 0.331100
vt 0.199916 0.330826
vt 0.152665 0.330467
vt 0.121570 0.329527
vt 0.444034 0.366513
vt 0.494930 0.367280
vt 0.395281 0.364286
vt 0.345626 0.366124
vt 0.295256 0.366711
vt 0.199757 0.365642
vt 0.248384 0.366081
vt 0.069259 0.576644
vt 0.063338 0.533458
vt 0.093572 0.550359
vt 0.110152 0.363675
vt 0.446479 0.397638
vt 0.496460 0.402088
vt 0.053723 0.614252
vt 0.032512 0.561923
vt 0.063338 0.556070
vt 0.340535 0.398461
vt 0.285222 0.403494
vt 0.240968 0.402246
vt 0.199139 0.400526
vt 0.148534 0.365020
vt 0.137345 0.399050
vt 0.083864 0.397564
vt 0.497419 0.436898
vt 0.447705 0.430242
vt 0.397146 0.392422
vt 0.398120 0.423423
vt 0.334362 0.432313
vt 0.273135 0.440494
vt 0.195880 0.435761
vt 0.231871 0.438687
vt 0.132084 0.433432
vt 0.068567 0.431931
vt 0.447959 0.467261
vt 0.497562 0.471713
vt 0.396161 0.462449
vt 0.328762 0.470315
vt 0.227726 0.474228
vt 0.267302 0.476342
vt 0.194648 0.470917
vt 0.136862 0.468688
vt 0.076337 0.467455
vt 0.447701 0.505751
vt 0.497402 0.506529
vt 0.395118 0.504064
vt 0.272815 0.510126
vt 0.331012 0.508349
vt 0.231552 0.508320
vt 0.196033 0.505468
vt 0.146160 0.504348
vt 0.091091 0.503600
vt 0.587587 0.003466
vt 0.552885 0.053394
vt 0.556519 0.003964
vt 0.585210 0.052988
vt 0.556707 0.103372
vt 0.591081 0.103116
vt 0.562971 0.153529
vt 0.595963 0.153172
vt 0.559322 0.202957
vt 0.589388 0.202268
vt 0.553606 0.251552
vt 0.586947 0.298020
vt 0.582351 0.250191
vt 0.584443 0.345330
vt 0.556407 0.299852
vt 0.569383 0.393035
vt 0.550506 0.347433
vt 0.533654 0.395371
vt 0.623387 0.053012
vt 0.622452 0.003247
vt 0.630228 0.103212
vt 0.625176 0.201876
vt 0.633371 0.153139
vt 0.618823 0.249338
vt 0.622305 0.343688
vt 0.623303 0.296714
vt 0.610377 0.390928
vt 0.659830 0.003212
vt 0.662865 0.053132
vt 0.669505 0.103316
vt 0.663759 0.201731
vt 0.670497 0.153086
vt 0.659247 0.248979
vt 0.661159 0.342709
vt 0.661633 0.295964
vt 0.653247 0.389626
vt 0.696914 0.003156
vt 0.699854 0.053069
vt 0.704499 0.103107
vt 0.699434 0.201500
vt 0.703828 0.152754
vt 0.697908 0.248889
vt 0.696824 0.342203
vt 0.697642 0.295578
vt 0.693078 0.385275
vt 0.732130 0.002978
vt 0.735618 0.102621
vt 0.733087 0.053732
vt 0.733923 0.152185
vt 0.731893 0.201170
vt 0.731302 0.248725
vt 0.730504 0.295453
vt 0.726442 0.378780
vt 0.729509 0.341371
vt 0.762568 0.008362
vt 0.760110 0.063621
vt 0.762766 0.107768
vt 0.764890 0.151679
vt 0.764734 0.200996
vt 0.764215 0.248838
vt 0.763487 0.295847
vt 0.762357 0.341206
vt 0.758782 0.376523
vt 0.791265 0.017467
vt 0.189464 0.517568
vt 0.159859 0.555461
vt 0.159859 0.510127
vt 0.189463 0.544713
vt 0.191463 0.510127
vt 0.217602 0.544713
vt 0.797189 0.152437
vt 0.797585 0.200863
vt 0.797182 0.249169
vt 0.796565 0.296619
vt 0.795734 0.343197
vt 0.792808 0.381167
vt 0.822107 0.021606
vt 0.787015 0.076861
vt 0.821981 0.120976
vt 0.816877 0.083269
vt 0.093573 0.550025
vt 0.093573 0.510127
vt 0.124005 0.533080
vt 0.829473 0.153240
vt 0.830411 0.200627
vt 0.830161 0.249547
vt 0.829685 0.297564
vt 0.829169 0.345420
vt 0.827771 0.389647
vt 0.851706 0.072481
vt 0.856849 0.016723
vt 0.853181 0.109212
vt 0.861550 0.148818
vt 0.863204 0.200257
vt 0.862618 0.295539
vt 0.863040 0.248815
vt 0.861360 0.345824
vt 0.857297 0.395119
vt 0.888049 0.047261
vt 0.893723 0.006805
vt 0.885871 0.082854
vt 0.892041 0.137144
vt 0.895951 0.199407
vt 0.895373 0.240872
vt 0.894928 0.284867
vt 0.886949 0.339648
vt 0.007411 0.613389
vt 0.030545 0.562190
vt 0.032512 0.612784
vt 0.032512 0.510127
vt -0.000000 0.554896
vt 0.923360 0.032381
vt 0.928829 0.000137
vt 0.919137 0.067441
vt 0.923368 0.131483
vt 0.928402 0.195802
vt 0.926928 0.272050
vt 0.927559 0.231175
vt 0.915176 0.332582
vt 0.903157 0.395864
vt 0.877561 0.395723
vt 0.961792 0.000313
vt 0.957808 0.036859
vt 0.954393 0.075312
vt 0.957693 0.136244
vt 0.961252 0.194311
vt 0.960080 0.226645
vt 0.951907 0.326926
vt 0.959336 0.265759
vt 0.943398 0.394254
vt 0.994601 -0.000000
vt 0.993536 0.046320
vt 0.991816 0.090445
vt 0.993421 0.145705
vt 0.994162 0.195551
vt 0.993143 0.230432
vt 0.992512 0.271307
vt 0.989154 0.394128
vt 0.992038 0.329757
vt 0.664436 0.994476
vt 0.661097 0.948021
vt 0.664904 0.994476
vt 0.660629 0.948021
vt 0.654814 0.903683
vt 0.660629 0.848596
vt 0.661097 0.848596
vt 0.660623 0.798712
vt 0.661091 0.798711
vt 0.643548 0.763191
vt 0.643080 0.763192
vt 0.633106 0.721927
vt 0.640522 0.663748
vt 0.640983 0.663754
vt 0.648344 0.599699
vt 0.648799 0.599711
vt 0.661854 0.547066
vt 0.525278 0.054147
vt 0.527942 0.004645
vt 0.527828 0.104031
vt 0.531995 0.203730
vt 0.532996 0.154107
vt 0.528722 0.253040
vt 0.520369 0.349698
vt 0.529970 0.301902
vt 0.124005 0.554448
vt 0.159818 0.522006
vt 0.159859 0.562996
vt 0.504791 0.397749
vt 0.528367 0.497353
vt 0.555303 0.543152
vt 0.527916 0.497441
vt 0.546205 0.595385
vt 0.545754 0.595473
vt 0.514740 0.651028
vt 0.514281 0.651112
vt 0.498013 0.703342
vt 0.497561 0.703422
vt 0.508893 0.750978
vt 0.509743 0.801185
vt 0.509282 0.801268
vt 0.516075 0.850557
vt 0.515620 0.850638
vt 0.537783 0.897177
vt 0.538233 0.897096
vt 0.447843 -0.000000
vt 0.497562 0.003961
vt 0.397924 0.003421
vt 0.348484 0.011040
vt 0.251014 0.014435
vt 0.299805 0.015502
vt 0.201400 0.015793
vt 0.102030 0.013059
vt 0.151673 0.016008
vt 0.002602 0.012519
vt 0.553676 0.944837
vt 0.504731 0.497353
vt 0.595697 0.530372
vt 0.611712 0.756351
vt 0.994027 0.496926
vt 0.895280 0.496555
vt 0.653271 0.489569
vt 0.590863 0.568354
vt 0.594764 0.823695
vt 0.000000 0.434140
vt 0.002176 0.114986
vt 0.093572 0.510127
vt 0.032512 0.510126
vt 0.791150 0.116852
vt 0.118230 0.576074
vt 0.654346 0.903684
vt 0.632637 0.721928
vt 0.124005 0.510127
vt 0.555750 0.543062
vt 0.509355 0.750895
s 0
f 35/1/1 78/2/1 322/3/1
f 79/4/2 7/5/2 8/6/2
f 9/7/3 5/8/3 6/9/3
f 48/10/4 87/11/4 205/12/4
f 48/13/5 3/14/5 4/15/5
f 61/16/6 1/17/6 2/18/6
f 1/19/7 60/20/7 2/21/7
f 22/22/8 59/23/8 60/20/8
f 23/24/9 58/25/9 59/23/9
f 24/26/10 57/27/10 58/25/10
f 25/28/11 56/29/11 57/27/11
f 26/30/12 55/31/12 56/29/12
f 27/32/13 54/33/13 55/31/13
f 54/33/14 29/34/14 53/35/14
f 53/35/15 30/36/15 52/37/15
f 30/36/16 51/38/16 52/37/16
f 31/39/17 50/40/17 51/38/17
f 32/41/18 49/42/18 50/40/18
f 33/43/19 48/13/19 49/42/19
f 61/44/20 60/45/20 97/46/20
f 97/46/21 59/47/21 106/48/21
f 59/47/22 115/49/22 106/48/22
f 115/49/23 57/50/23 124/51/23
f 124/51/24 56/52/24 133/53/24
f 133/53/25 55/54/25 142/55/25
f 142/55/26 54/56/26 151/57/26
f 54/56/27 160/58/27 151/57/27
f 53/59/28 169/60/28 160/58/28
f 52/61/29 178/62/29 169/60/29
f 178/62/30 50/63/30 187/64/30
f 187/64/31 49/65/31 196/66/31
f 196/66/32 48/10/32 205/12/32
f 7/67/33 21/68/33 8/69/33
f 35/70/33 20/71/33 21/68/33
f 20/71/33 37/72/33 19/73/33
f 19/73/33 38/74/33 18/75/33
f 18/75/33 39/76/33 17/77/33
f 17/77/34 40/78/34 16/79/34
f 40/78/35 15/80/35 16/79/35
f 41/81/36 14/82/36 15/80/36
f 42/83/37 13/84/37 14/82/37
f 13/84/38 44/85/38 12/86/38
f 12/86/39 45/87/39 11/88/39
f 11/88/40 46/89/40 10/90/40
f 10/90/41 47/91/41 9/7/41
f 5/92/42 214/93/42 88/94/42
f 47/95/43 223/96/43 214/93/43
f 223/96/44 45/97/44 232/98/44
f 232/98/45 44/99/45 241/100/45
f 241/100/46 43/101/46 250/102/46
f 43/101/47 259/103/47 250/102/47
f 42/104/48 268/105/48 259/103/48
f 41/106/49 277/107/49 268/105/49
f 40/108/50 286/109/50 277/107/50
f 39/110/51 295/111/51 286/109/51
f 38/112/52 304/113/52 295/111/52
f 304/113/53 36/114/53 313/115/53
f 36/114/54 322/3/54 313/115/54
f 321/116/55 34/117/55 33/118/55
f 321/116/56 329/119/56 330/120/56
f 320/121/57 328/122/57 329/119/57
f 319/123/58 327/124/58 328/122/58
f 318/125/59 326/126/59 327/124/59
f 316/127/60 326/126/60 317/128/60
f 315/129/61 325/130/61 316/127/61
f 314/131/62 324/132/62 315/129/62
f 313/115/63 323/133/63 314/131/63
f 312/134/64 33/118/64 32/135/64
f 312/134/65 320/121/65 321/116/65
f 311/136/66 319/123/66 320/121/66
f 310/137/67 318/125/67 319/123/67
f 308/138/68 318/125/68 309/139/68
f 308/138/69 316/127/69 317/128/69
f 307/140/70 315/129/70 316/127/70
f 305/141/71 315/129/71 306/142/71
f 304/113/72 314/131/72 305/141/72
f 303/143/73 32/135/73 31/144/73
f 303/143/74 311/136/74 312/134/74
f 302/145/75 310/137/75 311/136/75
f 301/146/76 309/139/76 310/137/76
f 299/147/77 309/139/77 300/148/77
f 299/147/78 307/140/78 308/138/78
f 298/149/79 306/142/79 307/140/79
f 296/150/80 306/142/80 297/151/80
f 295/111/81 305/141/81 296/150/81
f 30/152/82 303/143/82 31/144/82
f 294/153/83 302/145/83 303/143/83
f 293/154/84 301/146/84 302/145/84
f 292/155/85 300/148/85 301/146/85
f 290/156/86 300/148/86 291/157/86
f 290/156/87 298/149/87 299/147/87
f 289/158/88 297/151/88 298/149/88
f 287/159/89 297/151/89 288/160/89
f 286/109/90 296/150/90 287/159/90
f 29/161/91 294/153/91 30/152/91
f 285/162/92 293/154/92 294/153/92
f 284/163/93 292/155/93 293/154/93
f 282/164/94 292/155/94 283/165/94
f 281/166/95 291/157/95 282/164/95
f 280/167/96 290/156/96 281/166/96
f 279/168/97 289/158/97 280/167/97
f 278/169/98 288/160/98 279/168/98
f 278/169/99 286/109/99 287/159/99
f 28/170/100 285/162/100 29/161/100
f 275/171/101 285/162/101 276/172/101
f 274/173/102 284/163/102 275/171/102
f 273/174/103 283/165/103 274/173/103
f 272/175/104 282/164/104 273/174/104
f 271/176/105 281/166/105 272/175/105
f 270/177/106 280/167/106 271/176/106
f 269/178/107 279/168/107 270/177/107
f 268/105/108 278/169/108 269/178/108
f 267/179/109 28/170/109 27/180/109
f 266/181/110 276/172/110 267/179/110
f 265/182/111 275/171/111 266/181/111
f 264/183/112 274/173/112 265/182/112
f 263/184/113 273/174/113 264/183/113
f 262/185/114 272/175/114 263/184/114
f 261/186/115 271/176/115 262/185/115
f 261/186/116 269/178/116 270/177/116
f 259/103/117 269/178/117 260/187/117
f 258/188/118 27/180/118 26/189/118
f 257/190/119 267/179/119 258/188/119
f 256/191/120 266/181/120 257/190/120
f 255/192/121 265/182/121 256/191/121
f 254/193/122 264/183/122 255/192/122
f 253/194/123 263/184/123 254/193/123
f 252/195/124 262/185/124 253/194/124
f 252/195/125 260/187/125 261/186/125
f 251/196/126 259/103/126 260/187/126
f 249/197/127 26/189/127 25/198/127
f 248/199/128 258/188/128 249/197/128
f 247/200/129 257/190/129 248/199/129
f 247/200/130 255/192/130 256/191/130
f 246/201/131 254/193/131 255/192/131
f 244/202/132 254/193/132 245/203/132
f 244/202/133 252/195/133 253/194/133
f 243/204/134 251/205/134 252/206/134
f 242/207/135 250/102/135 251/196/135
f 240/208/136 25/198/136 24/209/136
f 240/208/137 248/199/137 249/197/137
f 238/210/138 248/211/138 239/212/138
f 238/213/139 246/201/139 247/200/139
f 237/214/140 245/203/140 246/201/140
f 236/215/141 244/202/141 245/203/141
f 235/216/142 243/217/142 244/202/142
f 234/218/143 242/207/143 243/217/143
f 233/219/144 241/100/144 242/207/144
f 23/220/145 240/208/145 24/209/145
f 231/221/146 239/222/146 240/208/146
f 230/223/147 238/213/147 239/222/147
f 229/224/148 237/214/148 238/213/148
f 228/225/149 236/215/149 237/214/149
f 226/226/150 236/215/150 227/227/150
f 226/226/151 234/218/151 235/216/151
f 225/228/152 233/219/152 234/218/152
f 224/229/153 232/98/153 233/219/153
f 222/230/154 23/220/154 22/231/154
f 221/232/155 231/221/155 222/230/155
f 221/232/156 229/224/156 230/223/156
f 220/233/157 228/225/157 229/224/157
f 218/234/158 228/225/158 219/235/158
f 217/236/159 227/227/159 218/234/159
f 216/237/160 226/226/160 217/236/160
f 215/238/161 225/228/161 216/237/161
f 214/93/162 224/229/162 215/238/162
f 96/239/163 22/231/163 1/240/163
f 95/241/164 222/230/164 96/239/164
f 95/241/165 220/233/165 221/232/165
f 93/242/166 220/233/166 94/243/166
f 92/244/167 219/235/167 93/242/167
f 91/245/168 218/234/168 92/244/168
f 90/246/169 217/236/169 91/245/169
f 89/247/170 216/237/170 90/246/170
f 88/94/171 215/238/171 89/247/171
f 20/248/172 213/249/172 21/250/172
f 204/251/173 212/252/173 213/249/173
f 203/253/174 211/254/174 212/252/174
f 202/255/175 210/256/175 211/254/175
f 201/257/176 209/258/176 210/256/176
f 199/259/177 209/258/177 200/260/177
f 198/261/178 208/262/178 199/259/178
f 197/263/179 207/264/179 198/261/179
f 196/66/180 206/265/180 197/263/180
f 195/266/181 20/248/181 19/267/181
f 195/266/182 203/253/182 204/251/182
f 194/268/183 202/255/183 203/253/183
f 192/269/184 202/255/184 193/270/184
f 191/271/185 201/257/185 192/269/185
f 191/271/186 199/259/186 200/260/186
f 189/272/187 199/259/187 190/273/187
f 188/274/188 198/261/188 189/272/188
f 187/64/189 197/263/189 188/274/189
f 18/275/190 195/266/190 19/267/190
f 186/276/191 194/268/191 195/266/191
f 185/277/192 193/270/192 194/268/192
f 183/278/193 193/270/193 184/279/193
f 182/280/194 192/269/194 183/278/194
f 182/280/195 190/273/195 191/271/195
f 180/281/196 190/273/196 181/282/196
f 179/283/197 189/272/197 180/281/197
f 178/62/198 188/274/198 179/283/198
f 17/284/199 186/276/199 18/275/199
f 177/285/200 185/277/200 186/276/200
f 176/286/201 184/279/201 185/277/201
f 174/287/202 184/279/202 175/288/202
f 173/289/203 183/278/203 174/287/203
f 173/289/204 181/282/204 182/280/204
f 171/290/205 181/282/205 172/291/205
f 170/292/206 180/281/206 171/290/206
f 169/60/207 179/283/207 170/292/207
f 16/293/208 177/285/208 17/284/208
f 167/294/209 177/285/209 168/295/209
f 167/294/210 175/288/210 176/286/210
f 166/296/211 174/287/211 175/288/211
f 165/297/212 173/289/212 174/287/212
f 164/298/213 172/291/213 173/289/213
f 163/299/214 171/290/214 172/291/214
f 161/300/215 171/290/215 162/301/215
f 160/58/216 170/292/216 161/300/216
f 15/302/217 168/295/217 16/293/217
f 159/303/218 167/294/218 168/295/218
f 158/304/219 166/296/219 167/294/219
f 157/305/220 165/297/220 166/296/220
f 156/306/221 164/298/221 165/297/221
f 155/307/222 163/299/222 164/298/222
f 154/308/223 162/301/223 163/299/223
f 153/309/224 161/300/224 162/301/224
f 152/310/225 160/58/225 161/300/225
f 14/311/226 159/303/226 15/302/226
f 150/312/227 158/313/227 159/314/227
f 148/315/228 158/316/228 149/317/228
f 148/318/229 156/306/229 157/305/229
f 147/319/230 155/307/230 156/306/230
f 146/320/231 154/308/231 155/307/231
f 145/321/232 153/309/232 154/308/232
f 144/322/233 152/310/233 153/309/233
f 143/323/234 151/57/234 152/310/234
f 13/324/235 150/325/235 14/311/235
f 140/326/236 150/325/236 141/327/236
f 139/328/237 149/329/237 140/330/237
f 139/331/238 147/319/238 148/318/238
f 138/332/239 146/320/239 147/319/239
f 137/333/240 145/321/240 146/320/240
f 136/334/241 144/322/241 145/321/241
f 135/335/242 143/323/242 144/322/242
f 134/336/243 142/55/243 143/323/243
f 132/337/244 13/324/244 12/338/244
f 131/339/245 141/327/245 132/337/245
f 130/340/246 140/326/246 131/339/246
f 129/341/247 139/331/247 130/340/247
f 129/341/248 137/333/248 138/332/248
f 127/342/249 137/333/249 128/343/249
f 126/344/250 136/334/250 127/342/250
f 126/344/251 134/336/251 135/335/251
f 125/345/252 133/53/252 134/336/252
f 123/346/253 12/338/253 11/347/253
f 122/348/254 132/337/254 123/346/254
f 121/349/255 131/339/255 122/348/255
f 120/350/256 130/340/256 121/349/256
f 119/351/257 129/341/257 120/350/257
f 118/352/258 128/343/258 119/351/258
f 117/353/259 127/342/259 118/352/259
f 117/354/260 125/355/260 126/356/260
f 115/357/261 125/355/261 116/358/261
f 114/359/262 11/347/262 10/360/262
f 113/361/263 123/346/263 114/359/263
f 112/362/264 122/348/264 113/361/264
f 111/363/265 121/349/265 112/362/265
f 111/363/266 119/351/266 120/350/266
f 109/364/267 119/351/267 110/365/267
f 108/366/268 118/352/268 109/364/268
f 107/367/269 117/353/269 108/366/269
f 106/48/270 116/368/270 107/367/270
f 9/369/271 114/359/271 10/360/271
f 105/370/272 113/361/272 114/359/272
f 104/371/273 112/362/273 113/361/273
f 103/372/274 111/363/274 112/362/274
f 102/373/275 110/365/275 111/363/275
f 101/374/276 109/364/276 110/365/276
f 99/375/277 109/364/277 100/376/277
f 98/377/278 108/366/278 99/375/278
f 98/377/279 106/48/279 107/367/279
f 6/378/280 105/370/280 9/369/280
f 69/379/281 104/371/281 105/370/281
f 68/380/282 103/372/282 104/371/282
f 67/381/283 102/373/283 103/372/283
f 66/382/284 101/374/284 102/373/284
f 65/383/285 100/376/285 101/374/285
f 64/384/286 99/375/286 100/376/286
f 62/385/287 99/375/287 63/386/287
f 62/385/288 97/46/288 98/377/288
f 5/387/289 69/388/289 6/389/289
f 88/390/290 68/391/290 69/388/290
f 68/391/291 90/392/291 67/393/291
f 67/393/292 91/394/292 66/395/292
f 91/394/293 65/396/293 66/395/293
f 92/397/294 64/398/294 65/396/294
f 64/398/295 94/399/295 63/400/295
f 63/400/296 95/401/296 62/402/296
f 62/402/297 96/403/297 61/16/297
f 21/250/298 79/404/298 8/405/298
f 212/252/299 79/404/299 213/249/299
f 211/254/300 80/406/300 212/252/300
f 211/254/301 82/407/301 81/408/301
f 210/256/302 83/409/302 82/407/302
f 208/262/303 83/409/303 209/258/303
f 208/262/304 85/410/304 84/411/304
f 207/412/305 86/413/305 85/414/305
f 206/265/306 87/11/306 86/415/306
f 3/416/307 87/417/307 4/418/307
f 87/417/308 71/419/308 86/420/308
f 86/420/309 72/421/309 85/422/309
f 85/422/310 73/423/310 84/424/310
f 73/423/311 83/425/311 84/424/311
f 83/425/312 75/426/312 82/427/312
f 82/427/2 76/428/2 81/429/2
f 76/428/313 80/430/313 81/429/313
f 77/431/2 79/4/2 80/430/2
f 34/117/314 70/432/314 3/433/314
f 329/119/315 70/432/315 330/120/315
f 328/122/316 71/434/316 329/119/316
f 327/124/317 72/435/317 328/122/317
f 327/124/318 74/436/318 73/437/318
f 325/130/319 74/436/319 326/126/319
f 324/132/320 75/438/320 325/130/320
f 324/132/321 77/439/321 76/440/321
f 323/133/322 78/2/322 77/439/322
f 35/1/323 7/441/323 78/2/323
f 79/4/2 78/442/2 7/5/2
f 9/7/324 47/91/324 5/8/324
f 48/10/325 4/443/325 87/11/325
f 48/13/326 34/444/326 3/14/326
f 61/16/6 96/403/6 1/17/6
f 1/19/7 22/22/7 60/20/7
f 22/22/327 23/24/327 59/23/327
f 23/24/328 24/26/328 58/25/328
f 24/26/329 25/28/329 57/27/329
f 25/28/330 26/30/330 56/29/330
f 26/30/331 27/32/331 55/31/331
f 27/32/332 28/445/332 54/33/332
f 54/33/333 28/445/333 29/34/333
f 53/35/334 29/34/334 30/36/334
f 30/36/335 31/39/335 51/38/335
f 31/39/336 32/41/336 50/40/336
f 32/41/337 33/43/337 49/42/337
f 33/43/338 34/444/338 48/13/338
f 61/44/339 2/446/339 60/45/339
f 97/46/340 60/45/340 59/47/340
f 59/47/341 58/447/341 115/49/341
f 115/49/342 58/447/342 57/50/342
f 124/51/343 57/50/343 56/52/343
f 133/53/344 56/52/344 55/54/344
f 142/55/345 55/54/345 54/56/345
f 54/56/346 53/59/346 160/58/346
f 53/59/347 52/61/347 169/60/347
f 52/61/348 51/448/348 178/62/348
f 178/62/349 51/448/349 50/63/349
f 187/64/350 50/63/350 49/65/350
f 196/66/351 49/65/351 48/10/351
f 7/67/33 35/70/33 21/68/33
f 35/70/33 36/449/33 20/71/33
f 20/71/33 36/449/33 37/72/33
f 19/73/33 37/72/33 38/74/33
f 18/75/33 38/74/33 39/76/33
f 17/77/352 39/76/352 40/78/352
f 40/78/353 41/81/353 15/80/353
f 41/81/354 42/83/354 14/82/354
f 42/83/355 43/450/355 13/84/355
f 13/84/356 43/450/356 44/85/356
f 12/86/357 44/85/357 45/87/357
f 11/88/358 45/87/358 46/89/358
f 10/90/359 46/89/359 47/91/359
f 5/92/360 47/95/360 214/93/360
f 47/95/361 46/451/361 223/96/361
f 223/96/362 46/451/362 45/97/362
f 232/98/363 45/97/363 44/99/363
f 241/100/364 44/99/364 43/101/364
f 43/101/365 42/104/365 259/103/365
f 42/104/366 41/106/366 268/105/366
f 41/106/367 40/108/367 277/107/367
f 40/108/368 39/110/368 286/109/368
f 39/110/369 38/112/369 295/111/369
f 38/112/370 37/452/370 304/113/370
f 304/113/371 37/452/371 36/114/371
f 36/114/372 35/1/372 322/3/372
f 321/116/373 330/120/373 34/117/373
f 321/116/374 320/121/374 329/119/374
f 320/121/375 319/123/375 328/122/375
f 319/123/376 318/125/376 327/124/376
f 318/125/377 317/128/377 326/126/377
f 316/127/378 325/130/378 326/126/378
f 315/129/379 324/132/379 325/130/379
f 314/131/380 323/133/380 324/132/380
f 313/115/381 322/3/381 323/133/381
f 312/134/382 321/116/382 33/118/382
f 312/134/383 311/136/383 320/121/383
f 311/136/384 310/137/384 319/123/384
f 310/137/385 309/139/385 318/125/385
f 308/138/386 317/128/386 318/125/386
f 308/138/387 307/140/387 316/127/387
f 307/140/388 306/142/388 315/129/388
f 305/141/389 314/131/389 315/129/389
f 304/113/390 313/115/390 314/131/390
f 303/143/391 312/134/391 32/135/391
f 303/143/392 302/145/392 311/136/392
f 302/145/393 301/146/393 310/137/393
f 301/146/394 300/148/394 309/139/394
f 299/147/395 308/138/395 309/139/395
f 299/147/396 298/149/396 307/140/396
f 298/149/397 297/151/397 306/142/397
f 296/150/398 305/141/398 306/142/398
f 295/111/399 304/113/399 305/141/399
f 30/152/400 294/153/400 303/143/400
f 294/153/401 293/154/401 302/145/401
f 293/154/402 292/155/402 301/146/402
f 292/155/403 291/157/403 300/148/403
f 290/156/404 299/147/404 300/148/404
f 290/156/405 289/158/405 298/149/405
f 289/158/406 288/160/406 297/151/406
f 287/159/407 296/150/407 297/151/407
f 286/109/408 295/111/408 296/150/408
f 29/161/409 285/162/409 294/153/409
f 285/162/410 284/163/410 293/154/410
f 284/163/411 283/165/411 292/155/411
f 282/164/412 291/157/412 292/155/412
f 281/166/413 290/156/413 291/157/413
f 280/167/414 289/158/414 290/156/414
f 279/168/415 288/160/415 289/158/415
f 278/169/416 287/159/416 288/160/416
f 278/169/417 277/107/417 286/109/417
f 28/170/418 276/172/418 285/162/418
f 275/171/419 284/163/419 285/162/419
f 274/173/420 283/165/420 284/163/420
f 273/174/421 282/164/421 283/165/421
f 272/175/422 281/166/422 282/164/422
f 271/176/423 280/167/423 281/166/423
f 270/177/424 279/168/424 280/167/424
f 269/178/425 278/169/425 279/168/425
f 268/105/426 277/107/426 278/169/426
f 267/179/427 276/172/427 28/170/427
f 266/181/428 275/171/428 276/172/428
f 265/182/429 274/173/429 275/171/429
f 264/183/430 273/174/430 274/173/430
f 263/184/431 272/175/431 273/174/431
f 262/185/432 271/176/432 272/175/432
f 261/186/433 270/177/433 271/176/433
f 261/186/434 260/187/434 269/178/434
f 259/103/435 268/105/435 269/178/435
f 258/188/436 267/179/436 27/180/436
f 257/190/437 266/181/437 267/179/437
f 256/191/438 265/182/438 266/181/438
f 255/192/439 264/183/439 265/182/439
f 254/193/440 263/184/440 264/183/440
f 253/194/441 262/185/441 263/184/441
f 252/195/442 261/186/442 262/185/442
f 252/206/443 251/205/443 260/453/443
f 251/196/444 250/102/444 259/103/444
f 249/197/445 258/188/445 26/189/445
f 248/199/446 257/190/446 258/188/446
f 247/200/447 256/191/447 257/190/447
f 247/200/448 246/201/448 255/192/448
f 246/201/449 245/203/449 254/193/449
f 244/202/450 253/194/450 254/193/450
f 244/202/451 243/217/451 252/195/451
f 243/217/452 242/207/452 251/196/452
f 242/207/453 241/100/453 250/102/453
f 240/208/454 249/197/454 25/198/454
f 240/454/455 239/212/455 248/211/455
f 238/213/456 247/200/456 248/199/456
f 238/213/457 237/214/457 246/201/457
f 237/214/458 236/215/458 245/203/458
f 236/215/459 235/216/459 244/202/459
f 235/216/460 234/218/460 243/217/460
f 234/218/461 233/219/461 242/207/461
f 233/219/462 232/98/462 241/100/462
f 23/220/463 231/221/463 240/208/463
f 231/221/464 230/223/464 239/222/464
f 230/223/465 229/224/465 238/213/465
f 229/224/466 228/225/466 237/214/466
f 228/225/467 227/227/467 236/215/467
f 226/226/468 235/216/468 236/215/468
f 226/226/469 225/228/469 234/218/469
f 225/228/470 224/229/470 233/219/470
f 224/229/471 223/96/471 232/98/471
f 222/230/472 231/221/472 23/220/472
f 221/232/473 230/223/473 231/221/473
f 221/232/474 220/233/474 229/224/474
f 220/233/475 219/235/475 228/225/475
f 218/234/476 227/227/476 228/225/476
f 217/236/477 226/226/477 227/227/477
f 216/237/478 225/228/478 226/226/478
f 215/238/479 224/229/479 225/228/479
f 214/93/480 223/96/480 224/229/480
f 96/239/481 222/230/481 22/231/481
f 95/241/482 221/232/482 222/230/482
f 95/241/483 94/243/483 220/233/483
f 93/242/484 219/235/484 220/233/484
f 92/244/485 218/234/485 219/235/485
f 91/245/486 217/236/486 218/234/486
f 90/246/487 216/237/487 217/236/487
f 89/247/488 215/238/488 216/237/488
f 88/94/489 214/93/489 215/238/489
f 20/248/490 204/251/490 213/249/490
f 204/251/491 203/253/491 212/252/491
f 203/253/492 202/255/492 211/254/492
f 202/255/493 201/257/493 210/256/493
f 201/257/494 200/260/494 209/258/494
f 199/259/495 208/262/495 209/258/495
f 198/261/496 207/264/496 208/262/496
f 197/263/497 206/265/497 207/264/497
f 196/66/498 205/12/498 206/265/498
f 195/266/499 204/251/499 20/248/499
f 195/266/500 194/268/500 203/253/500
f 194/268/501 193/270/501 202/255/501
f 192/269/502 201/257/502 202/255/502
f 191/271/503 200/260/503 201/257/503
f 191/271/504 190/273/504 199/259/504
f 189/272/505 198/261/505 199/259/505
f 188/274/506 197/263/506 198/261/506
f 187/64/507 196/66/507 197/263/507
f 18/275/508 186/276/508 195/266/508
f 186/276/509 185/277/509 194/268/509
f 185/277/510 184/279/510 193/270/510
f 183/278/511 192/269/511 193/270/511
f 182/280/512 191/271/512 192/269/512
f 182/280/513 181/282/513 190/273/513
f 180/281/514 189/272/514 190/273/514
f 179/283/515 188/274/515 189/272/515
f 178/62/516 187/64/516 188/274/516
f 17/284/517 177/285/517 186/276/517
f 177/285/518 176/286/518 185/277/518
f 176/286/519 175/288/519 184/279/519
f 174/287/520 183/278/520 184/279/520
f 173/289/521 182/280/521 183/278/521
f 173/289/522 172/291/522 181/282/522
f 171/290/523 180/281/523 181/282/523
f 170/292/524 179/283/524 180/281/524
f 169/60/525 178/62/525 179/283/525
f 16/293/526 168/295/526 177/285/526
f 167/294/527 176/286/527 177/285/527
f 167/294/528 166/296/528 175/288/528
f 166/296/529 165/297/529 174/287/529
f 165/297/530 164/298/530 173/289/530
f 164/298/531 163/299/531 172/291/531
f 163/299/532 162/301/532 171/290/532
f 161/300/533 170/292/533 171/290/533
f 160/58/534 169/60/534 170/292/534
f 15/302/535 159/303/535 168/295/535
f 159/303/536 158/304/536 167/294/536
f 158/304/537 157/305/537 166/296/537
f 157/305/538 156/306/538 165/297/538
f 156/306/539 155/307/539 164/298/539
f 155/307/540 154/308/540 163/299/540
f 154/308/541 153/309/541 162/301/541
f 153/309/542 152/310/542 161/300/542
f 152/310/543 151/57/543 160/58/543
f 14/311/544 150/325/544 159/303/544
f 150/325/545 149/455/545 158/304/545
f 148/318/546 157/305/546 158/304/546
f 148/318/547 147/319/547 156/306/547
f 147/319/548 146/320/548 155/307/548
f 146/320/549 145/321/549 154/308/549
f 145/321/550 144/322/550 153/309/550
f 144/322/551 143/323/551 152/310/551
f 143/323/552 142/55/552 151/57/552
f 13/324/553 141/327/553 150/325/553
f 140/326/554 149/455/554 150/325/554
f 139/331/555 148/318/555 149/455/555
f 139/331/556 138/332/556 147/319/556
f 138/332/557 137/333/557 146/320/557
f 137/333/558 136/334/558 145/321/558
f 136/334/559 135/335/559 144/322/559
f 135/335/560 134/336/560 143/323/560
f 134/336/561 133/53/561 142/55/561
f 132/337/562 141/327/562 13/324/562
f 131/339/563 140/326/563 141/327/563
f 130/456/564 139/328/564 140/330/564
f 129/341/565 138/332/565 139/331/565
f 129/341/566 128/343/566 137/333/566
f 127/342/567 136/334/567 137/333/567
f 126/344/568 135/335/568 136/334/568
f 126/344/569 125/345/569 134/336/569
f 125/345/570 124/51/570 133/53/570
f 123/346/571 132/337/571 12/338/571
f 122/348/572 131/339/572 132/337/572
f 121/349/573 130/340/573 131/339/573
f 120/350/574 129/341/574 130/340/574
f 119/351/575 128/343/575 129/341/575
f 118/352/576 127/342/576 128/343/576
f 117/353/577 126/344/577 127/342/577
f 117/354/578 116/358/578 125/355/578
f 115/49/579 124/51/579 125/345/579
f 114/359/580 123/346/580 11/347/580
f 113/361/581 122/348/581 123/346/581
f 112/362/582 121/349/582 122/348/582
f 111/363/583 120/350/583 121/349/583
f 111/363/584 110/365/584 119/351/584
f 109/364/585 118/352/585 119/351/585
f 108/366/586 117/353/586 118/352/586
f 107/367/587 116/368/587 117/353/587
f 106/48/588 115/49/588 116/368/588
f 9/369/589 105/370/589 114/359/589
f 105/370/590 104/371/590 113/361/590
f 104/371/591 103/372/591 112/362/591
f 103/372/592 102/373/592 111/363/592
f 102/373/593 101/374/593 110/365/593
f 101/374/594 100/376/594 109/364/594
f 99/375/595 108/366/595 109/364/595
f 98/377/596 107/367/596 108/366/596
f 98/377/597 97/46/597 106/48/597
f 6/378/598 69/379/598 105/370/598
f 69/379/599 68/380/599 104/371/599
f 68/380/600 67/381/600 103/372/600
f 67/381/601 66/382/601 102/373/601
f 66/382/602 65/383/602 101/374/602
f 65/383/603 64/384/603 100/376/603
f 64/384/604 63/386/604 99/375/604
f 62/385/605 98/377/605 99/375/605
f 62/385/606 61/44/606 97/46/606
f 5/387/607 88/390/607 69/388/607
f 88/390/290 89/457/290 68/391/290
f 68/391/608 89/457/608 90/392/608
f 67/393/609 90/392/609 91/394/609
f 91/394/610 92/397/610 65/396/610
f 92/397/611 93/458/611 64/398/611
f 64/398/612 93/458/612 94/399/612
f 63/400/613 94/399/613 95/401/613
f 62/402/614 95/401/614 96/403/614
f 21/250/615 213/249/615 79/404/615
f 212/252/616 80/406/616 79/404/616
f 211/254/617 81/408/617 80/406/617
f 211/254/618 210/256/618 82/407/618
f 210/256/619 209/258/619 83/409/619
f 208/262/620 84/411/620 83/409/620
f 208/262/621 207/264/621 85/410/621
f 207/412/622 206/459/622 86/413/622
f 206/265/623 205/12/623 87/11/623
f 3/416/624 70/460/624 87/417/624
f 87/417/625 70/460/625 71/419/625
f 86/420/626 71/419/626 72/421/626
f 85/422/627 72/421/627 73/423/627
f 73/423/628 74/461/628 83/425/628
f 83/425/629 74/461/629 75/426/629
f 82/427/2 75/426/2 76/428/2
f 76/428/2 77/431/2 80/430/2
f 77/431/2 78/442/2 79/4/2
f 34/117/630 330/120/630 70/432/630
f 329/119/631 71/434/631 70/432/631
f 328/122/632 72/435/632 71/434/632
f 327/124/633 73/437/633 72/435/633
f 327/124/634 326/126/634 74/436/634
f 325/130/635 75/438/635 74/436/635
f 324/132/636 76/440/636 75/438/636
f 324/132/637 323/133/637 77/439/637
f 323/133/638 322/3/638 78/2/638
